<?xml version="1.0" standalone="no"?>
<!DOCTYPE svg PUBLIC "-//W3C//DTD SVG 20010904//EN"
 "http://www.w3.org/TR/2001/REC-SVG-20010904/DTD/svg10.dtd">
<svg version="1.0" xmlns="http://www.w3.org/2000/svg"
 width="700.000000pt" height="700.000000pt" viewBox="0 0 700.000000 700.000000"
 preserveAspectRatio="xMidYMid meet">
<metadata>
Created by potrace 1.14, written by Peter Selinger 2001-2017
</metadata>
<g transform="translate(0.000000,700.000000) scale(0.100000,-0.100000)"
fill="#000000" stroke="none">
<path d="M0 3500 l0 -3500 3500 0 3500 0 0 3500 0 3500 -3500 0 -3500 0 0
-3500z m3940 2306 c298 -46 573 -142 796 -277 500 -301 861 -799 1009 -1389
59 -236 76 -381 82 -717 l6 -293 -1703 0 -1702 0 7 -47 c12 -82 54 -215 95
-301 158 -333 471 -568 868 -652 126 -27 409 -38 548 -21 365 45 744 194 969
380 27 23 53 40 57 39 4 -2 125 -169 268 -373 l261 -370 -43 -38 c-279 -247
-708 -440 -1158 -521 -289 -52 -718 -72 -981 -46 -505 50 -909 202 -1281 483
-506 380 -797 916 -859 1581 -15 160 -6 512 16 651 75 475 273 879 601 1224
389 409 846 629 1454 701 118 14 568 4 690 -14z"/>
<path d="M3290 4884 c-193 -33 -373 -118 -504 -236 -179 -161 -337 -453 -370
-680 l-7 -48 1129 0 1130 0 -6 48 c-34 327 -273 679 -557 819 -70 35 -161 66
-260 88 -102 24 -442 29 -555 9z"/>
</g>
</svg>
