<svg width="260" height="260" viewBox="0 0 260 260" fill="none" xmlns="http://www.w3.org/2000/svg">
<path d="M197.921 117.166L206.505 110.735H177.769V149.261H206.505V142.829H185.979V132.993H203.519V126.561H185.979V117.166H197.921Z" fill="#21A038"/>
<path d="M156.062 125.742H146.11V117.166H162.033L170.616 110.735H137.9V149.261H155.004C164.583 149.261 170.119 144.847 170.119 137.154C170.119 129.777 165.143 125.742 156.062 125.742ZM154.693 142.829H146.11V132.173H154.693C159.918 132.173 162.344 133.939 162.344 137.533C162.344 141.127 159.731 142.829 154.693 142.829Z" fill="#21A038"/>
<path d="M229.767 110.735H214.155V149.261H222.365V138.352H229.829C239.781 138.352 246.001 133.056 246.001 124.544C246.001 116.031 239.781 110.735 229.767 110.735ZM229.58 131.921H222.303V117.166H229.58C234.867 117.166 237.728 119.814 237.728 124.544C237.728 129.273 234.867 131.921 229.58 131.921Z" fill="#21A038"/>
<path d="M123.843 140.938C121.666 142.136 119.24 142.766 116.752 142.766C109.351 142.766 104.002 137.407 104.002 130.029C104.002 122.652 109.351 117.292 116.752 117.292C119.427 117.229 122.039 118.112 124.216 119.688L130.125 115.275L129.752 114.896C126.331 111.807 121.728 110.23 116.504 110.23C110.844 110.23 105.681 112.185 101.949 115.716C98.2172 119.373 96.1025 124.48 96.2269 129.777C96.1647 135.137 98.2172 140.307 101.949 144.09C105.868 147.81 111.092 149.891 116.441 149.765C122.35 149.765 127.513 147.684 130.996 143.901L125.709 139.929L123.843 140.938Z" fill="#21A038"/>
<path d="M70.5393 110.483C72.0321 112.438 73.276 114.582 74.3334 116.852L45.5977 138.353L33.5312 130.66V121.455L45.5355 129.084L70.5393 110.483Z" fill="#21A038"/>
<path d="M21.2772 130.03C21.2772 129.588 21.2772 129.21 21.3394 128.769L14.0622 128.39C14.0622 128.895 14 129.462 14 129.967C14 138.794 17.5453 146.802 23.2676 152.603L28.43 147.37C24.0139 142.956 21.2772 136.84 21.2772 130.03Z" fill="url(#paint0_linear_748_116)"/>
<path d="M45.5356 105.44C45.971 105.44 46.3442 105.44 46.7795 105.503L47.1527 98.1253C46.6551 98.1253 46.0954 98.0623 45.5978 98.0623C36.89 98.0623 28.9908 101.656 23.2686 107.457L28.431 112.691C32.7849 108.214 38.8803 105.44 45.5356 105.44Z" fill="url(#paint1_linear_748_116)"/>
<path d="M45.5341 154.62C45.0988 154.62 44.7256 154.62 44.2902 154.557L43.917 161.934C44.4146 161.934 44.9744 161.997 45.472 161.997C54.1797 161.997 62.0789 158.403 67.8012 152.602L62.6387 147.369C58.2848 151.909 52.2516 154.62 45.5341 154.62Z" fill="url(#paint2_linear_748_116)"/>
<path d="M59.2178 109.727L65.3755 105.124C59.9642 100.71 53.0602 97.9988 45.5342 97.9988V105.376C50.6344 105.439 55.3615 107.016 59.2178 109.727Z" fill="url(#paint3_linear_748_116)"/>
<path d="M77.1319 130.03C77.1319 128.075 76.9453 126.183 76.6343 124.292L69.8546 129.399C69.8546 129.588 69.8546 129.841 69.8546 130.03C69.8546 137.281 66.7447 143.775 61.8311 148.252L66.7447 153.738C73.089 147.937 77.1319 139.425 77.1319 130.03Z" fill="#21A038"/>
<path d="M45.535 154.62C38.3822 154.62 31.9758 151.467 27.5597 146.486L22.1484 151.467C27.9329 157.962 36.2675 161.997 45.535 161.997V154.62Z" fill="url(#paint4_linear_748_116)"/>
<path d="M29.3008 111.809L24.3871 106.323C17.9807 112.187 14 120.636 14 130.031H21.2772C21.2772 122.843 24.3871 116.286 29.3008 111.809Z" fill="url(#paint5_linear_748_116)"/>
<defs>
<linearGradient id="paint0_linear_748_116" x1="865.48" y1="2459.91" x2="102.272" y2="290.705" gradientUnits="userSpaceOnUse">
<stop offset="0.1444" stop-color="#F2E913"/>
<stop offset="0.3037" stop-color="#E7E518"/>
<stop offset="0.5823" stop-color="#CADB26"/>
<stop offset="0.891" stop-color="#A3CD39"/>
</linearGradient>
<linearGradient id="paint1_linear_748_116" x1="230.706" y1="952.036" x2="2125.18" y2="242.165" gradientUnits="userSpaceOnUse">
<stop offset="0.0592" stop-color="#0FA8E0"/>
<stop offset="0.5385" stop-color="#0099F9"/>
<stop offset="0.9234" stop-color="#0291EB"/>
</linearGradient>
<linearGradient id="paint2_linear_748_116" x1="1.1867" y1="980.919" x2="2253.81" y2="480.319" gradientUnits="userSpaceOnUse">
<stop offset="0.1226" stop-color="#A3CD39"/>
<stop offset="0.2846" stop-color="#86C339"/>
<stop offset="0.8693" stop-color="#21A038"/>
</linearGradient>
<linearGradient id="paint3_linear_748_116" x1="-103.985" y1="570.015" x2="1771.5" y2="1139" gradientUnits="userSpaceOnUse">
<stop offset="0.0566" stop-color="#0291EB"/>
<stop offset="0.79" stop-color="#0C8ACB"/>
</linearGradient>
<linearGradient id="paint4_linear_748_116" x1="207.182" y1="764.441" x2="2223.25" y2="1505.1" gradientUnits="userSpaceOnUse">
<stop offset="0.1324" stop-color="#F2E913"/>
<stop offset="0.2977" stop-color="#EBE716"/>
<stop offset="0.5306" stop-color="#D9E01F"/>
<stop offset="0.8023" stop-color="#BBD62D"/>
<stop offset="0.9829" stop-color="#A3CD39"/>
</linearGradient>
<linearGradient id="paint5_linear_748_116" x1="567.728" y1="2566.27" x2="1392.47" y2="456.707" gradientUnits="userSpaceOnUse">
<stop offset="0.0698" stop-color="#A3CD39"/>
<stop offset="0.2599" stop-color="#81C55F"/>
<stop offset="0.9216" stop-color="#0FA8E0"/>
</linearGradient>
</defs>
</svg>
