<svg width="260" height="260" viewBox="0 0 260 260" fill="none" xmlns="http://www.w3.org/2000/svg">
<g clip-path="url(#clip0_748_80)">
<g clip-path="url(#clip1_748_80)">
<path d="M-0.17637 116.157L-2.5498 125.139H4.94657L0.346378 143.307H11.889L16.4907 125.139H23.9528L26.3278 116.157H-0.17637Z" fill="#1969BC"/>
<path d="M43.8377 134.252C42.7267 136.324 41.6078 136.811 38.8958 136.811C37.3744 136.811 35.5159 136.172 35.5159 133.385C35.5159 132.028 36.3694 128.979 37.3744 127.057C38.7117 124.497 40.2346 124.385 42.0541 124.385C44.6226 124.385 45.6587 125.592 45.6587 127.552C45.6587 130.6 44.2497 133.5 43.8377 134.252ZM43.393 115.403C36.6285 115.403 31.0904 116.09 27.8962 121.302C25.2528 125.632 23.6924 131.428 23.6924 135.304C23.6924 143.788 29.8624 144.054 38.1156 144.054C43.4304 144.054 50.4228 143.71 53.3221 138.985C56.2261 134.403 57.8255 128.038 57.8255 124.158C57.8255 115.667 50.1279 115.403 43.393 115.403Z" fill="#1969BC"/>
<path d="M79.0634 116.154L72.2584 128.11H72.1476L70.6995 116.154H58.2939L63.8273 137.097L59.3426 143.307H72.934L92.2117 116.154H79.0634Z" fill="#1969BC"/>
<path d="M107.081 134.252C105.967 136.324 104.851 136.811 102.138 136.811C100.616 136.811 98.753 136.172 98.753 133.385C98.753 132.028 99.6128 128.979 100.616 127.057C101.952 124.497 103.478 124.385 105.294 124.385C107.858 124.385 108.901 125.592 108.901 127.552C108.901 130.6 107.49 133.5 107.081 134.252ZM106.633 115.403C99.8718 115.403 94.3354 116.09 91.1333 121.302C88.4962 125.632 86.9326 131.428 86.9326 135.304C86.9326 143.788 93.1026 144.054 101.359 144.054C106.669 144.054 113.663 143.71 116.562 138.985C119.466 134.403 121.066 128.038 121.066 124.158C121.066 115.667 113.365 115.403 106.633 115.403Z" fill="#1969BC"/>
<path d="M130.509 116.157L128.136 125.141H135.634L131.03 143.307H142.571L147.178 125.141H154.631L157.012 116.157H130.509Z" fill="#1969BC"/>
<path d="M158.784 116.154L151.761 143.307H162.943L170.152 116.154H158.784Z" fill="#1969BC"/>
<path d="M184.969 129.379H179.89L181.302 123.75H186.246C187.798 123.75 188.693 124.362 188.693 125.653C188.693 127.401 187.577 129.379 184.969 129.379ZM200.123 122.197C200.123 118.354 199.045 116.154 193.995 116.154H172.088L164.851 143.307H176.178L178.523 133.848L184.022 143.307H197.28L189.616 132.161H191.623C196.412 132.161 200.123 129.04 200.123 122.197Z" fill="#1969BC"/>
<path d="M230.349 124.738L232.539 116.154H205.177L198.341 143.304H225.667L227.487 136.059H211.669L212.302 133.619H228.12L229.606 127.752H213.788L214.537 124.738H230.349Z" fill="#1969BC"/>
<path d="M250.19 123.988C253.83 123.988 257.394 124.362 260.997 124.81L263.339 116.426C257.915 115.591 251.936 115.398 248.223 115.398C245.471 115.398 241.871 115.478 239.376 116.194C234.925 117.487 231.957 122.236 231.957 128.053C231.957 132.317 235.709 133.501 239.12 133.501C245.77 133.501 246.438 133.759 246.438 135.066C246.438 136.811 243.842 136.811 242.611 136.811C238.346 136.811 234.142 136.479 229.915 135.955L228.237 142.797C233.171 143.71 238.232 144.053 244.174 144.053C251.491 144.053 255.205 143.33 257.505 139.518C258.291 138.226 259.254 135.287 259.254 133.194C259.254 127.485 255.534 127.295 251.304 127.295C245.471 127.295 244.733 126.996 244.733 125.904C244.733 124.626 245.77 123.988 250.19 123.988Z" fill="#1969BC"/>
</g>
</g>
<defs>
<clipPath id="clip0_748_80">
<rect width="260" height="260" fill="white"/>
</clipPath>
<clipPath id="clip1_748_80">
<rect width="266.667" height="29.3333" fill="white" transform="translate(-3 115)"/>
</clipPath>
</defs>
</svg>
