<svg width="260" height="260" viewBox="0 0 260 260" fill="none" xmlns="http://www.w3.org/2000/svg">
<path fill-rule="evenodd" clip-rule="evenodd" d="M70.0259 68.934C69.5924 69.084 69.2161 69.3647 68.9491 69.7375C68.682 70.1102 68.5374 70.5566 68.5352 71.015C68.533 71.4627 75.2913 156.914 75.3528 157.217L75.3928 157.412H97.5068V68.7686L83.998 68.7711C71.1033 68.7737 70.4672 68.781 70.0259 68.934ZM162.557 113.09V157.412H184.65L184.698 157.044C184.976 154.86 191.537 70.7503 191.453 70.4499C191.237 69.6817 190.551 69.0264 189.791 68.8635C189.482 68.7973 185.309 68.769 175.953 68.769H162.557V113.09Z" fill="#E4042C"/>
<path fill-rule="evenodd" clip-rule="evenodd" d="M68.6432 63.7564C65.6712 64.1831 63.334 66.8674 63.334 69.852C63.334 71.0762 72.9555 191.721 73.0974 192.281C73.7215 194.74 75.9379 196.633 78.5383 196.929C79.0888 196.992 95.257 197.012 130.596 196.994L181.856 196.968L182.504 196.768C184.722 196.081 186.39 194.4 186.923 192.314C187.21 191.192 196.794 70.0042 196.666 69.1233C196.292 66.5597 194.558 64.5995 192.004 63.8527C191.418 63.6817 69.8256 63.5863 68.6432 63.7564ZM191.7 65.5066C193.583 66.1382 194.869 67.683 195.047 69.5298C195.116 70.2568 185.503 191.178 185.322 191.856C184.898 193.433 183.679 194.658 182.029 195.163C181.332 195.376 79.0234 195.416 78.165 195.204C76.586 194.813 75.2389 193.571 74.7791 192.085C74.6123 191.545 64.9822 71.4131 64.9813 69.8649C64.9813 67.7917 66.5753 65.8989 68.7112 65.4387C69.7129 65.2225 191.052 65.2896 191.7 65.5066ZM127.647 69.8662C124.852 70.1614 121.04 71.2051 118.068 72.4891C116.4 73.2097 116.068 73.4653 116.068 74.0291C116.068 74.7596 114.696 76.3731 113.639 76.8865C112.595 77.3936 112.028 77.5319 110.1 77.7511C109.894 77.7743 109.706 77.8473 109.68 77.9135C109.53 78.3062 111.101 80.1522 111.883 80.5024C112.622 80.832 112.141 80.9953 110.214 81.0696C108.272 81.1435 107.707 81.4129 107.21 82.5035C106.971 83.0269 107.004 83.1691 107.567 84.0246C108.845 85.9698 108.812 87.087 107.443 88.1754C105.723 89.5427 105.708 89.7765 106.999 95.0269C107.497 97.0507 107.962 98.8683 108.032 99.0656C108.166 99.439 108.106 99.6169 107.845 99.6169C107.591 99.6169 107.062 99.9958 106.893 100.299C106.175 101.584 106.383 103.564 107.688 107.892C108.611 110.955 108.722 111.366 109.004 112.744C109.707 116.199 110.552 117.419 112.222 117.395C112.891 117.385 112.915 117.415 112.986 118.377C113.115 120.115 113.544 121.804 114.242 123.316C114.468 123.804 114.594 124.239 114.67 124.789C115.008 127.236 116.525 129.963 118.815 132.24C119.788 133.207 120.56 133.834 123.029 135.659C124.019 136.39 124.828 137.017 124.828 137.05C124.828 137.084 123.94 137.134 122.855 137.161C120.933 137.209 120.102 137.318 119.865 137.554C119.6 137.819 119.507 142.118 119.756 142.599C120.049 143.165 120.977 143.214 126.845 142.975C128.354 142.913 128.272 142.794 127.693 144.194C127.241 145.305 126.797 146.419 126.36 147.535C125.234 150.401 124.172 152.807 123.075 154.975C122.007 157.087 121.976 156.858 123.373 157.148C123.646 157.204 124.263 157.443 124.745 157.679C125.991 158.287 125.948 158.3 126.512 157.131C127.512 155.06 129.311 150.518 129.755 148.943C129.879 148.502 130.012 148.141 130.05 148.141C130.14 148.141 130.13 156.123 130.037 157.803C129.938 159.589 129.984 159.642 131.351 159.317C131.886 159.194 132.431 159.126 132.98 159.114C133.958 159.1 133.957 159.101 134.103 157.934C134.503 154.755 133.785 147.221 132.762 143.84C132.481 142.914 132.484 142.889 132.873 142.824C133.504 142.721 136.167 142.767 137.799 142.911C139.625 143.072 139.861 143.05 140.036 142.703C140.241 142.299 140.303 138.12 140.111 137.735C139.821 137.154 138.529 136.891 136.472 136.994C135.232 137.055 135.22 137.041 136.042 136.536C138.758 134.865 142.887 131.186 144.027 129.42C145.776 126.712 147.29 121.769 147.292 118.764C147.293 117.459 147.321 117.416 148.222 117.362C149.958 117.259 150.493 116.369 151.93 111.198C153.438 105.773 153.823 103.989 153.833 102.39C153.843 100.8 153.689 100.502 152.474 99.7582C152.185 99.5816 152.159 99.7281 152.9 97.382C153.683 94.9027 153.882 94.1292 153.943 93.3176L153.996 92.6068L153.565 92.1913C152.801 91.4544 152.696 91.2245 152.541 89.9556C151.257 79.4393 144.067 71.7496 133.936 70.0553C132.885 69.88 128.709 69.7545 127.648 69.8662M131.519 71.8927C135.635 72.3065 139.536 73.8907 143.294 76.6764C147.016 79.4346 149.051 83.1115 149.825 88.4822C150.142 90.6741 149.931 95.64 149.501 96.1346C149.198 96.4827 149.107 96.3263 148.604 94.5869C147.648 91.2834 146.888 89.3674 145.851 87.6465C145.207 86.5778 145.108 86.7914 145.094 89.2849L145.083 91.3603L145.342 91.72C146.454 93.2651 146.727 93.8469 147.176 95.6259C147.549 97.1023 147.653 98.2844 147.419 98.3742C147.331 98.4073 146.711 98.3501 146.04 98.2461C144.565 98.018 142.574 97.9698 138.576 98.0665C134.843 98.1568 134.165 98.3312 132.374 99.6607C131.381 100.398 131.283 100.438 130.732 100.319C130.097 100.187 129.44 100.199 128.811 100.355C128.177 100.52 127.989 100.453 127.127 99.7548C125.224 98.2152 124.658 98.1048 118.638 98.1026L113.704 98.1005L113.748 97.4074C113.824 96.1982 114.2 95.637 115.26 95.1481C116.039 94.7893 115.976 94.9233 116.45 92.5738C117.385 87.9348 118.78 85.4022 121.331 83.7105C123.215 82.4605 126.735 82.5705 129.491 83.9657C130.119 84.2837 130.16 84.2721 131.009 83.539C132.023 82.6646 132.023 82.6663 130.878 81.5487C126.894 77.6591 122.335 76.8088 116.879 78.9375C116.218 79.1949 115.666 79.3745 115.651 79.3358C115.402 78.6882 118.869 76.2824 121.208 75.4802C122.778 74.9418 122.646 74.4059 120.944 74.4029C120.287 74.4016 120.173 74.2594 120.529 73.8881C121.688 72.679 127.98 71.5364 131.519 71.8927ZM121.345 81.0374C121.745 81.2041 121.677 81.2943 120.897 81.6329C118.493 82.6775 117.085 84.0177 115.701 86.5804C115.329 87.2688 115.131 87.5257 114.639 87.9546C113.405 89.0318 113.26 89.2471 112.788 90.6917C112.137 92.6868 111.803 94.5362 111.654 96.9644C111.569 98.36 111.493 98.5439 110.869 98.8593C110.27 99.1622 110.338 99.2697 109.787 97.1431C108.246 91.1927 108.246 91.1992 110.425 88.062C110.963 87.2881 110.869 86.2586 110.112 84.6434C109.66 83.6796 109.608 83.7268 111.384 83.5012C113.037 83.2915 115.151 82.6556 116.734 81.892C118.594 80.9948 120.428 80.6549 121.345 81.0374ZM114.348 99.2404C114.824 99.671 114.297 100.239 113.637 100.005C113.435 99.9353 113.16 99.8772 113.025 99.8772C112.672 99.8772 112.529 99.5889 112.791 99.4054C112.897 99.3315 113.103 99.2697 113.247 99.2692C113.392 99.2684 113.568 99.2301 113.639 99.1837C113.839 99.0548 114.173 99.0815 114.348 99.2404ZM146.659 99.2632C147.285 99.3749 147.491 99.8772 146.91 99.8772C146.798 99.8772 146.541 99.9353 146.338 100.007C145.858 100.176 145.765 100.171 145.558 99.964C145.177 99.5838 145.464 99.0381 145.99 99.1399C146.158 99.1726 146.459 99.228 146.659 99.2632ZM118.22 100.375C118.242 100.527 118.162 100.622 117.85 100.808C117.63 100.939 117.018 101.329 116.489 101.675C115.468 102.342 115.223 102.412 114.932 102.121C114.621 101.81 114.945 101.002 115.566 100.542C116.119 100.132 118.168 100.003 118.22 100.375ZM142.995 100.232C144.035 100.493 144.24 102.13 143.234 102.13C142.6 102.13 140.586 100.647 140.726 100.283C140.793 100.107 142.358 100.071 142.995 100.232ZM122.866 100.565C123.309 100.78 123.758 101.336 123.67 101.564C123.628 101.674 123.477 101.687 122.728 101.645C121.655 101.585 120.99 101.734 119.666 102.327C118.626 102.793 118.07 102.929 117.786 102.788C117.323 102.557 117.519 102.314 118.714 101.635C119.072 101.431 119.431 101.227 119.788 101.022C120.969 100.34 122.065 100.177 122.866 100.565ZM139.468 100.821C139.666 100.921 140.131 101.279 140.503 101.615C140.874 101.951 141.44 102.401 141.761 102.616C142.44 103.071 142.477 103.115 142.305 103.256C141.992 103.516 141.013 103.15 140.059 102.417C139.16 101.725 138.544 101.596 137.233 101.822C135.95 102.042 135.836 101.627 137.014 101.024C137.982 100.528 138.767 100.463 139.468 100.821ZM147.999 101.025C148.203 101.405 148.232 101.934 148.149 103.769C148.042 106.147 148.157 106.296 149.25 105.204C149.712 104.744 149.774 104.523 149.661 103.738C149.479 102.469 150.06 101.393 150.818 101.594C152.069 101.924 152.079 102.933 150.875 107.242C150.606 108.209 150.351 109.18 150.109 110.155C149.177 114.027 148.528 115.056 147.334 114.558C146.81 114.339 146.671 114.43 146.099 115.366C145.452 116.423 145.411 116.563 145.35 117.944C145.059 124.625 141.782 130.158 137.014 132.02C135.776 132.504 135.452 132.498 134.898 131.981C134.52 131.627 134.212 131.487 134.185 131.656C134.179 131.692 134.168 132.152 134.159 132.679C134.141 133.812 134.063 134.004 133.156 135.143C132.319 136.196 132.103 136.677 131.899 137.937C131.647 139.499 127.937 135.817 126.902 132.977C126.604 132.16 126.623 130.974 126.952 129.901C127.564 127.901 127.687 126.935 127.494 125.642C127.439 125.281 127.454 125.168 127.568 125.053C127.812 124.81 128.019 125.006 128.671 126.098C129.092 126.802 129.357 126.15 129.21 124.774C129.133 124.056 128.823 123.701 128.086 123.487C126.551 123.041 127.617 122.156 129.599 122.23C132.906 122.354 133.622 122.29 135.479 121.703C136.799 121.286 136.907 121.286 137.549 121.701C138.201 122.122 138.248 122.245 138.303 123.706C138.398 126.215 139.302 126.08 139.835 123.476C140.094 122.209 140.25 121.81 140.658 121.371C141.675 120.273 142.116 118.677 141.964 116.646C141.871 115.408 141.663 115.081 140.669 114.609C140.04 114.311 139.251 113.521 138.485 112.422C137.275 110.688 136.715 110.16 135.599 109.701C134.574 109.28 134.268 109.471 134.504 110.38C134.831 111.642 134.687 111.924 133.388 112.557C131.426 113.512 129.782 113.451 128.211 112.366C126.658 111.293 126.456 109.946 127.512 107.719C127.989 106.714 128.064 106.44 128.254 105.033C128.597 102.487 128.851 101.956 129.727 101.956C130.472 101.956 130.799 102.261 131.03 103.17C131.479 104.929 132.197 105.633 132.971 105.074C133.506 104.686 133.555 104.516 133.297 103.958C132.944 103.198 133.131 103.079 133.988 103.518C135.11 104.092 137.111 104.322 138.523 104.039C140.061 103.732 140.691 103.857 141.04 104.542C141.274 105 141.363 105.054 142.048 105.161C143.134 105.331 143.228 105.428 142.993 106.134C142.705 107.001 141.807 107.622 140.401 107.93C139.5 108.126 139.487 108.136 139.487 108.528C139.487 109.271 140.147 109.436 141.617 109.061C143.634 108.545 144.498 107.252 145.206 103.689C145.656 101.428 145.675 101.395 146.686 101.058C147.528 100.777 147.86 100.768 147.999 101.025ZM110.491 101.866C111.045 102.204 111.264 102.941 111.013 103.625C110.721 104.418 110.739 104.639 111.383 108.152C111.903 110.99 111.78 111.722 110.912 110.96C110.529 110.625 110.383 110.356 110.221 109.694C110.154 109.418 109.8 108.12 109.435 106.809C108.689 104.13 108.584 103.424 108.815 102.632C109.066 101.771 109.791 101.44 110.491 101.866ZM121.977 103.862C123.125 104.063 123.557 104.074 124.542 103.932C125.479 103.797 125.594 103.883 125.145 104.379C124.767 104.797 124.768 104.79 125.055 105.338C125.709 106.589 124.225 107.765 121.717 107.983C120.939 108.051 120.839 108.124 120.839 108.623C120.839 109.129 121.075 109.246 122.079 109.235C123.219 109.222 123.18 109.218 123.18 109.336C123.18 109.392 123.065 109.616 122.925 109.835C122.784 110.054 122.608 110.466 122.534 110.749C122.363 111.407 122.322 111.444 121.329 111.834C120.874 112.013 120.256 112.334 119.955 112.548C117.424 114.347 116.204 113.807 115.071 110.386C114.282 108.007 114.458 107.633 116.016 108.379C117.06 108.88 117.475 108.917 117.711 108.531C118.079 107.928 117.984 107.719 117.167 107.331C115.734 106.651 114.79 105.146 115.503 104.679C115.739 104.525 115.917 104.582 116.359 104.956C117.179 105.648 117.51 105.661 118.094 105.022C119.23 103.782 120.075 103.53 121.977 103.862ZM125.445 109.398C125.623 109.543 125.634 109.587 125.541 109.792C125.353 110.204 125.321 110.892 125.469 111.315C125.83 112.34 125.359 112.781 124.622 112.106C123.493 111.072 124.285 108.461 125.445 109.398ZM135.326 113.763C135.485 113.87 135.932 114.348 136.32 114.824C137.057 115.729 138.002 116.529 138.532 116.697C140.968 117.468 136.561 118.583 133.274 118.027C132.803 117.947 131.93 117.727 131.333 117.537C130.069 117.134 129.634 117.129 128.686 117.508C126.552 118.36 122.788 118.451 121.279 117.687C120.363 117.223 120.383 116.973 121.364 116.559C121.719 116.41 122.527 115.946 123.159 115.529C125.074 114.266 125.952 114.058 126.823 114.661C128.795 116.025 131.077 116.151 132.242 114.96C132.534 114.662 132.828 114.461 133.152 114.341C133.452 114.226 133.743 114.089 134.022 113.93C134.712 113.519 134.925 113.492 135.326 113.763ZM118.144 116.637C118.315 116.82 118.352 116.985 118.418 117.872C118.69 121.535 119.9 125.482 120.749 125.482C120.924 125.482 121.004 125.372 121.278 124.756C121.893 123.37 122.158 123.268 122.433 124.313C122.734 125.457 123.365 127.509 123.616 128.159C124.01 129.181 123.863 129.426 122.859 129.422C119.244 129.41 114.036 121.088 115.624 117.864C116.206 116.684 117.565 116.023 118.144 116.637ZM133.232 119.457C134.509 119.58 134.454 119.806 133.064 120.142C131.736 120.463 128.646 120.688 127.993 120.511C127.313 120.328 126.545 119.675 126.845 119.537C127.305 119.323 131.332 119.273 133.232 119.457ZM160.389 164.006C150.71 164.68 144.822 170.039 144.829 178.166C144.836 186.306 153.058 190.474 164.565 188.172C166.965 187.692 166.816 187.835 167.237 185.611C167.677 183.296 167.656 183.27 165.751 183.751C157.263 185.895 151.762 181.769 153.576 174.621C154.533 170.854 157.146 168.35 160.598 167.893C163.355 167.528 165.174 168.69 165.313 170.905C165.373 171.877 165.384 171.883 166.857 171.883C168.332 171.883 168.15 172.167 168.934 168.65C169.81 164.716 169.854 164.952 168.169 164.567C165.623 163.985 163.198 163.81 160.389 164.006ZM95.6536 164.54C95.5138 164.762 95.1654 166.227 95.1654 166.593C95.1654 166.875 95.2815 166.988 95.8884 167.29C96.5176 167.604 96.8389 168.088 96.8828 168.787C96.9155 169.31 94.451 181.004 93.9439 182.729C93.488 184.282 92.731 185.271 91.7933 185.537C90.897 185.793 90.8936 185.796 90.6759 186.659C90.1826 188.619 89.5465 188.433 96.7667 188.433C103.73 188.433 102.995 188.561 103.282 187.302C103.609 185.864 103.571 185.667 102.911 185.406C102.525 185.254 102.052 184.773 101.933 184.412C101.847 184.15 102.821 179.153 103.2 177.918C103.269 177.694 103.267 177.691 104.45 179.812C107.814 185.843 109.407 187.541 112.343 188.223C113.229 188.428 119.918 188.516 120.175 188.326C120.335 188.207 120.744 186.735 120.749 186.259C120.753 185.9 120.472 185.721 119.787 185.648C118.374 185.498 118.18 185.296 114.002 179.646C110.809 175.33 110.684 175.145 110.836 175.001C111.733 174.153 119.396 167.926 119.781 167.733C120.402 167.42 121.262 167.153 121.907 167.073C122.61 166.984 122.718 166.865 122.919 165.948C123.307 164.179 123.863 164.345 117.543 164.345C111.818 164.345 112.061 164.325 111.947 164.806C111.517 166.613 111.532 166.816 112.121 167.145C113.036 167.657 113.039 167.654 108.762 171.207C103.99 175.171 103.84 175.294 103.807 175.254C103.752 175.189 105.224 168.635 105.365 168.317C105.563 167.872 106.055 167.422 106.617 167.174C107.239 166.9 107.254 166.879 107.471 165.881C107.842 164.173 108.501 164.345 101.557 164.345H95.7761L95.6536 164.54ZM124.97 164.54C124.829 164.762 124.482 166.227 124.482 166.593C124.482 166.877 124.546 166.939 125.178 167.269C125.471 167.422 125.746 167.653 125.906 167.879C126.399 168.581 126.451 168.261 124.186 178.514C121.943 188.672 122.069 188.017 122.313 188.26C122.567 188.513 131.977 188.534 132.272 188.282C132.476 188.107 132.944 186.126 132.851 185.832C132.82 185.736 132.647 185.582 132.466 185.49C131.011 184.748 130.989 184.314 132.158 179.357L132.204 179.162H136.219C139.295 179.162 140.268 179.136 140.38 179.054C140.523 178.948 141.308 175.718 141.308 175.236C141.308 174.738 141.344 174.743 137.116 174.743C133.483 174.743 133.242 174.734 133.243 174.591C133.244 174.508 133.549 173.055 133.922 171.363L134.598 168.287L137.368 168.264C141.54 168.229 142 168.448 142.001 170.468C142.002 171.403 142.117 171.471 143.623 171.435C144.556 171.412 144.799 171.379 144.916 171.262C145.054 171.124 146.425 165.268 146.425 164.817C146.425 164.316 147.083 164.344 135.6 164.344H125.093L124.97 164.54ZM189.792 188.347C189.792 188.604 189.797 188.607 190.269 188.607H190.746V191.813H191.353V188.607H191.831C192.303 188.607 192.307 188.604 192.307 188.347V188.087H189.792V188.347ZM193.175 189.95V191.813H193.695L193.698 190.491L193.701 189.17L194.058 189.928C194.511 190.891 194.592 190.895 195.058 189.971L195.42 189.257L195.424 190.535L195.43 191.813H195.95V188.087H195.684C195.432 188.087 195.397 188.132 195.002 188.975L194.586 189.863L194.14 188.975C193.723 188.146 193.676 188.087 193.434 188.087H193.175V189.95Z" fill="#050505"/>
<path fill-rule="evenodd" clip-rule="evenodd" d="M68.8855 65.4505C66.6511 65.8252 65.0782 67.6815 65.0713 69.9516C65.0691 70.7723 74.5517 190.519 74.6911 191.423C74.9732 193.259 76.5268 194.844 78.3771 195.185C79.2683 195.348 180.99 195.313 181.77 195.149C183.4 194.805 184.725 193.621 185.199 192.083C185.368 191.538 194.996 71.4065 194.996 69.8493C194.996 68.0038 193.776 66.3421 191.892 65.6224L191.397 65.4338L130.25 65.4235C96.6188 65.4183 69.0051 65.4303 68.8855 65.4505ZM97.5079 113.091V157.413H86.4055C80.2992 157.413 75.304 157.384 75.3044 157.348C75.3053 157.313 73.7603 137.836 71.8722 114.066C68.5689 72.479 68.4442 70.8329 68.5724 70.3924C68.7435 69.8033 69.2313 69.2361 69.7909 68.9757L70.2296 68.7721L83.8683 68.7712L97.507 68.7703L97.5079 113.091ZM190.45 69.0754C190.953 69.3852 191.392 69.995 191.51 70.5497C191.577 70.8629 190.882 79.911 188.181 113.897C186.302 137.522 184.765 156.976 184.764 157.131L184.762 157.413H162.471V68.7673L176.247 68.7901L190.023 68.8133L190.45 69.0754ZM133.805 69.9761C136.105 70.3486 138.596 71.1289 140.38 72.0351C147.265 75.5333 151.622 81.9507 152.622 90.0672C152.769 91.2562 152.945 91.6278 153.618 92.1598C154.278 92.6823 154.176 93.5383 153.02 97.173C152.219 99.6919 152.238 99.5793 152.599 99.7727C154.527 100.805 154.418 102.567 151.858 111.661C150.532 116.376 149.935 117.314 148.18 117.444C147.362 117.504 147.383 117.473 147.381 118.613C147.377 121.844 145.612 127.391 143.812 129.832C142.624 131.443 139.196 134.514 136.842 136.076C136.221 136.487 135.682 136.85 135.644 136.881C135.605 136.913 136.21 136.939 136.988 136.939C140.314 136.936 140.362 136.987 140.276 140.429C140.203 143.347 140.328 143.206 137.995 142.998C135.642 142.788 134.634 142.746 133.564 142.813L132.571 142.875L132.641 143.147C133.857 147.85 134.445 152.899 134.241 156.867C134.128 159.066 134.07 159.166 132.878 159.188C132.287 159.198 131.729 159.269 131.23 159.396C130.518 159.577 130.46 159.58 130.201 159.446L129.925 159.304L129.978 157.644C130.092 154.099 130.139 150.112 130.078 149.217L130.014 148.28L129.725 149.229C129.059 151.422 126.67 157.241 126.161 157.911C125.878 158.284 125.788 158.273 124.64 157.716C124.057 157.432 123.446 157.203 123.138 157.15C122.318 157.011 122.249 156.989 122.196 156.851C122.168 156.778 122.658 155.679 123.305 154.359C124.591 151.738 125.437 149.791 126.721 146.495C127.194 145.28 127.685 144.043 127.81 143.747C128.099 143.063 128.105 142.907 127.837 142.974C127.726 143.002 126.029 143.066 124.066 143.118C119.191 143.247 119.498 143.457 119.551 140.04C119.596 137.102 119.452 137.237 122.643 137.135C123.754 137.1 124.682 137.053 124.704 137.031C124.726 137.009 123.934 136.392 122.943 135.66C117.435 131.59 115.145 128.599 114.598 124.757C114.531 124.284 114.38 123.771 114.165 123.282C113.47 121.706 113.104 120.308 112.95 118.646C112.834 117.393 112.88 117.467 112.219 117.467C110.504 117.467 109.672 116.271 108.95 112.768C108.65 111.315 108.409 110.423 107.651 107.958C106.445 104.037 106.163 101.978 106.651 100.658C106.875 100.054 107.46 99.5303 107.911 99.5303C108.132 99.5303 108.137 99.5991 107.839 98.5962C107.702 98.1334 107.405 96.9745 107.181 96.021C106.941 95.0076 106.691 93.9966 106.431 92.9882C105.67 90.09 105.814 89.4618 107.584 87.9853C107.91 87.7133 108.154 87.413 108.31 87.0967L108.544 86.6189L108.398 86.0345C108.209 85.2727 107.922 84.6522 107.38 83.8251C106.863 83.0366 106.876 82.762 107.47 81.9769C108.052 81.2078 108.546 81.0325 110.165 81.0213C111.115 81.0144 111.615 80.9745 111.854 80.8855L112.192 80.7592L111.767 80.5108C111.171 80.1628 110.089 79.0413 109.78 78.453C109.438 77.8003 109.498 77.7479 110.736 77.6194C113.501 77.3328 115.467 76.0059 115.993 74.0702C116.204 73.2946 116.403 73.1399 118.15 72.3931C123.518 70.1002 129.181 69.2258 133.805 69.9761ZM128.515 71.9428C124.154 72.3909 121.457 73.0595 120.546 73.9193C120.204 74.242 120.331 74.3327 121.165 74.3594C122.743 74.4092 122.778 75.0133 121.23 75.5281C119.375 76.1456 116.642 77.8747 115.917 78.8896C115.544 79.4125 115.504 79.4151 117.03 78.8269C122.083 76.8804 126.489 77.5666 130.25 80.8851C132.077 82.4977 132.123 82.6516 131.053 83.5664C130.152 84.3368 130.113 84.3424 129.092 83.8586C126.945 82.8385 123.727 82.594 122.15 83.3309C119.219 84.6986 117.509 87.5226 116.491 92.6767C116.042 94.9481 116.108 94.805 115.351 95.1539C114.207 95.6824 113.748 96.4546 113.729 97.8842C113.727 97.9985 114.311 98.0144 118.476 98.0144C124.665 98.0144 125.148 98.1123 127.276 99.8066C128.016 100.396 128.262 100.463 128.951 100.263C129.452 100.117 129.789 100.119 130.987 100.276C131.367 100.326 131.402 100.309 132.288 99.6571C134.396 98.1059 135.092 97.9727 141.146 97.9714C144.451 97.971 144.948 97.9894 145.83 98.1433C146.372 98.2378 146.962 98.316 147.141 98.3169L147.467 98.3173V97.8017C147.467 96.1366 146.572 93.4291 145.603 92.1654C144.991 91.367 145.012 91.4706 145.03 89.2306C145.048 87.0641 145.049 87.0529 145.295 87.0529C145.959 87.0529 147.418 90.3022 148.638 94.4943C149.377 97.0312 149.685 96.822 149.905 93.6384C150.242 88.7528 149.174 83.8929 147.057 80.684C143.522 75.3249 134.947 71.2823 128.515 71.9428ZM119.582 81.0282C118.56 81.1902 117.973 81.3818 116.74 81.9546C114.771 82.8686 111.84 83.6734 110.479 83.6734C109.812 83.6734 109.777 83.7821 110.167 84.6269C111.097 86.6387 111.084 87.2824 110.089 88.6548C108.642 90.6507 108.502 91.3339 109.036 93.7681C109.514 95.9424 110.302 99.0104 110.384 99.0104C111.13 99.0104 111.491 98.4243 111.575 97.0733C111.725 94.6817 112.156 92.3678 112.808 90.4492C113.206 89.2787 113.315 89.1171 114.36 88.1503C115.148 87.4207 115.298 87.2325 115.722 86.4359C116.955 84.1224 118.625 82.5287 120.747 81.6392C121.589 81.2869 121.655 81.1928 121.181 81.0217C120.808 80.8868 120.462 80.8885 119.582 81.0282ZM113.652 99.2308C113.492 99.3004 113.257 99.358 113.132 99.3584C112.603 99.3614 112.538 99.7318 113.049 99.829C113.207 99.859 113.498 99.9252 113.695 99.9755C114.165 100.096 114.421 99.9707 114.421 99.6206C114.421 99.1522 114.15 99.0147 113.652 99.2308ZM145.576 99.288C145.276 99.5875 145.555 100.107 145.969 100.021C146.101 99.994 146.386 99.9381 146.602 99.8977C147.244 99.7774 147.451 99.4947 146.968 99.401C146.836 99.3752 146.563 99.3163 146.359 99.2695C145.875 99.1578 145.702 99.1621 145.576 99.288ZM116.936 100.233C115.754 100.367 115.026 100.851 114.887 101.595C114.73 102.432 115.265 102.418 116.581 101.551C117.145 101.178 117.73 100.807 117.879 100.726C118.302 100.496 118.203 100.112 117.732 100.149C117.652 100.155 117.294 100.193 116.936 100.233ZM140.827 100.247C140.692 100.599 142.272 101.891 143.067 102.078C143.936 102.282 144.107 100.763 143.257 100.387C142.719 100.15 140.904 100.045 140.827 100.247ZM121.013 100.564C120.095 100.866 117.886 102.091 117.686 102.407C117.349 102.941 118.211 102.911 119.471 102.344C121.021 101.648 122.135 101.416 123.051 101.598C123.614 101.711 123.711 101.619 123.483 101.195C123.11 100.499 122.039 100.225 121.013 100.564ZM137.579 100.834C136.329 101.28 135.837 101.997 136.917 101.798C138.36 101.533 139.221 101.693 140.104 102.39C140.971 103.074 141.938 103.441 142.238 103.198C142.341 103.115 142.359 103.058 142.292 103.03C142.023 102.916 141.356 102.413 140.571 101.731C139.292 100.62 138.687 100.438 137.579 100.834ZM147.043 101.017C145.775 101.348 145.716 101.435 145.296 103.56C144.458 107.796 143.126 109.322 140.267 109.322C139.015 109.322 139.052 108.142 140.311 107.89C141.617 107.63 142.483 107.097 142.838 106.336C143.217 105.523 143.128 105.385 142.125 105.24C141.346 105.127 141.275 105.086 141.038 104.623C140.701 103.963 139.9 103.78 138.663 104.078C137.396 104.384 135.092 104.125 133.954 103.549C133.14 103.137 133.013 103.214 133.357 103.915C133.678 104.568 133.312 105.185 132.482 105.393C132.027 105.507 131.353 104.523 130.988 103.213C130.723 102.262 130.475 102.029 129.728 102.029C128.852 102.029 128.753 102.262 128.216 105.64C128.058 106.627 127.978 106.888 127.566 107.762C126.636 109.732 126.679 110.836 127.727 111.882C129.081 113.235 131.148 113.533 133.059 112.651C134.6 111.939 134.751 111.734 134.506 110.678C134.222 109.457 134.386 109.247 135.366 109.569C136.499 109.94 137.32 110.658 138.421 112.24C139.305 113.51 140.008 114.204 140.862 114.652C141.875 115.181 141.952 115.349 141.987 117.071C142.03 119.214 141.733 120.263 140.792 121.283C140.325 121.789 140.114 122.293 139.922 123.359C139.679 124.713 139.236 125.526 138.743 125.526C138.393 125.526 138.191 124.598 138.187 122.967C138.184 121.62 137.255 121.205 135.482 121.762C133.544 122.37 132.462 122.492 130.594 122.311C128.954 122.153 128.753 122.167 128.087 122.478C127.297 122.847 127.247 123.249 127.972 123.394C128.851 123.569 129.212 124.045 129.303 125.148C129.419 126.547 129.009 126.848 128.426 125.792C127.781 124.621 127.439 124.721 127.607 126.032C127.741 127.087 127.664 127.67 127.157 129.405C126.562 131.44 126.596 132.236 127.342 133.8C128.182 135.562 129.894 137.487 131.27 138.217C131.687 138.439 131.752 138.369 131.911 137.527C132.084 136.614 132.336 136.092 133.016 135.239C133.996 134.011 134.046 133.894 134.103 132.693C134.166 131.365 134.254 131.27 134.867 131.868C135.417 132.406 135.693 132.452 136.539 132.15C141.388 130.419 144.612 125.488 145.213 118.888C145.467 116.101 145.389 116.445 145.994 115.441C146.66 114.336 146.78 114.255 147.368 114.508C148.499 114.994 149.123 113.991 150.026 110.232C150.254 109.308 150.498 108.388 150.756 107.471C152.042 102.941 151.998 101.61 150.559 101.61C150.001 101.61 149.574 102.711 149.729 103.751L149.836 104.466L149.584 104.871C149.32 105.295 148.604 105.856 148.328 105.856C148.033 105.856 148.007 105.608 148.094 103.646C148.218 100.888 148.153 100.727 147.043 101.017ZM109.195 102.002C108.675 102.522 108.649 103.661 109.12 105.423C110.492 110.561 110.529 110.665 111.105 111.059C111.776 111.518 111.802 110.637 111.207 107.502C110.779 105.244 110.695 104.225 110.898 103.744C111.44 102.452 110.108 101.09 109.195 102.002ZM119.823 103.902C119.23 104.087 118.719 104.433 118.216 104.988C117.543 105.731 117.295 105.723 116.241 104.925C115.804 104.593 115.608 104.572 115.423 104.836C115.005 105.432 115.887 106.654 117.168 107.251C118.054 107.664 118.197 108.042 117.704 108.668C117.432 109.014 117.014 108.938 115.74 108.31C114.625 107.76 114.458 108.066 114.94 109.778C116.024 113.637 117.279 114.323 119.936 112.51C120.322 112.247 120.967 111.905 121.368 111.751C122.29 111.397 122.279 111.407 122.486 110.712C122.582 110.392 122.774 109.959 122.914 109.751C123.249 109.253 123.24 109.248 122.206 109.293C121.004 109.346 120.882 109.281 120.882 108.585C120.882 107.979 120.845 108 122.156 107.856C124.306 107.621 125.649 106.456 125.013 105.378C124.76 104.95 124.782 104.703 125.102 104.338C125.479 103.908 125.364 103.863 124.287 104.017C123.395 104.143 123.306 104.141 122.205 103.961C120.913 103.75 120.356 103.736 119.823 103.902ZM124.485 109.565C123.823 110.227 124.005 111.635 124.827 112.206C125.374 112.586 125.706 112.299 125.494 111.628C125.325 111.092 125.307 110.308 125.452 109.823C125.619 109.265 124.962 109.089 124.485 109.565ZM134.543 113.718C134.471 113.746 134.276 113.854 134.109 113.959C133.942 114.064 133.553 114.241 133.245 114.353C132.813 114.511 132.57 114.674 132.188 115.062C131.071 116.195 128.952 116.11 127.021 114.855C125.857 114.098 125.242 114.215 123.161 115.594C122.614 115.957 121.829 116.409 121.416 116.599C120.579 116.986 120.522 117.089 120.964 117.426C122.21 118.375 126.242 118.39 128.665 117.453C129.64 117.076 130.13 117.084 131.393 117.495C134.068 118.366 137.923 118.312 139.066 117.388C139.284 117.211 139.121 116.861 138.819 116.861C138.344 116.861 137.135 115.92 136.356 114.944C135.403 113.75 135.061 113.519 134.543 113.718ZM117.038 116.593C115.586 117.094 115.045 118.701 115.633 120.765C117.002 125.569 120.209 129.371 122.873 129.348C123.941 129.338 123.955 129.281 123.322 127.465C123.154 126.983 122.834 125.95 122.612 125.169C122.39 124.388 122.176 123.715 122.137 123.673C122.01 123.538 121.646 124.039 121.35 124.755C120.925 125.786 120.655 125.834 120.11 124.978C119.293 123.694 118.324 119.619 118.324 117.467C118.324 116.546 117.937 116.282 117.038 116.593ZM127.795 119.476C126.727 119.584 126.639 119.737 127.383 120.193L127.811 120.457L129.421 120.443C131.767 120.422 134.399 119.981 134.079 119.661C133.885 119.468 129.24 119.33 127.795 119.476ZM165.16 164.009C167.191 164.206 169.181 164.662 169.475 164.998C169.742 165.304 169.751 165.234 169.012 168.591C168.205 172.252 168.388 171.97 166.813 171.97C165.348 171.97 165.316 171.948 165.239 170.856C165.092 168.788 163.611 167.764 161.001 167.925C157.093 168.166 154.058 171.304 153.402 175.783C152.455 182.242 157.865 185.718 165.724 183.699C167.701 183.191 167.746 183.247 167.286 185.683C166.901 187.717 166.956 187.641 165.594 187.996C161.55 189.048 156.015 189.063 152.584 188.03C146.077 186.072 143.252 180.463 145.429 173.825C147.74 166.777 155.237 163.047 165.16 164.009ZM107.595 164.536L107.771 164.771L107.566 165.742C107.336 166.839 107.222 167.016 106.598 167.242C106.153 167.402 105.567 167.93 105.408 168.314C105.304 168.564 103.842 175.114 103.88 175.157C103.91 175.19 112.273 168.242 112.402 168.077C112.67 167.731 112.499 167.372 111.929 167.084C111.756 166.996 111.625 166.85 111.588 166.705C111.495 166.34 111.864 164.704 112.094 164.459L112.283 164.258H122.804L123.005 164.472C123.229 164.71 123.224 164.89 122.957 166.059C122.759 166.933 122.68 167.005 121.762 167.164C120.92 167.308 119.95 167.653 119.408 168.001C119.118 168.187 111.243 174.688 110.875 175.045C110.774 175.144 111.265 175.852 114.039 179.604C118.291 185.357 118.342 185.411 119.754 185.569C120.821 185.688 120.924 185.858 120.661 187.075C120.316 188.673 120.682 188.551 116.399 188.497C109.897 188.414 108.748 187.596 104.507 180.029C104.121 179.338 103.732 178.648 103.342 177.96C103.237 177.786 101.896 183.948 101.964 184.288C102.045 184.692 102.31 184.997 102.814 185.266C103.682 185.73 103.69 185.754 103.399 187.063C103.163 188.126 103.088 188.306 102.832 188.423C102.679 188.492 100.922 188.52 96.7345 188.52C89.5676 188.52 90.1375 188.679 90.5732 186.812C90.8046 185.822 90.8911 185.7 91.4451 185.581C92.6386 185.325 93.4042 184.429 93.8945 182.715C94.021 182.272 96.7246 169.97 96.8489 169.271C96.9917 168.468 96.5608 167.664 95.8008 167.316C95.0369 166.967 95.0063 166.866 95.2803 165.615C95.6137 164.09 94.839 164.253 101.65 164.279L107.42 164.302L107.595 164.536ZM146.299 164.471C146.572 164.744 146.615 164.434 145.82 168.018C144.984 171.786 145.206 171.45 143.556 171.45C141.96 171.45 141.916 171.419 141.916 170.296C141.916 169.383 141.716 168.945 141.148 168.611L140.745 168.374L137.694 168.348L134.644 168.323L134.539 168.825C134.482 169.101 134.174 170.517 133.853 171.97L133.272 174.613L137.172 174.656L141.073 174.7L141.252 174.939L141.43 175.178L141.024 177.011C140.714 178.408 140.572 178.893 140.427 179.047L140.238 179.249H132.242L131.778 181.374C131.137 184.3 131.18 184.6 132.35 185.38C132.616 185.558 132.862 185.782 132.896 185.877C133.002 186.181 132.515 188.181 132.289 188.363C132.053 188.554 122.868 188.611 122.457 188.424C121.965 188.2 121.899 188.598 124.084 178.702C126.472 167.885 126.255 168.97 126.129 168.496C125.981 167.944 125.669 167.584 125.08 167.287C124.354 166.921 124.325 166.821 124.578 165.627C124.725 164.929 124.84 164.592 124.976 164.453L125.168 164.258H146.086L146.299 164.471Z" fill="#FBFBFB"/>
<path fill-rule="evenodd" clip-rule="evenodd" d="M195.021 69.9382C195.022 70.1767 195.039 70.2639 195.059 70.1316C195.079 69.988 195.078 69.8424 195.058 69.6989C195.037 69.5923 195.021 69.6998 195.021 69.9382ZM129.534 71.8611C129.617 71.8826 129.754 71.8826 129.838 71.8611C129.921 71.8392 129.853 71.8216 129.686 71.8216C129.519 71.8216 129.451 71.8388 129.534 71.8611ZM130.315 71.8611C130.399 71.8826 130.535 71.8826 130.618 71.8611C130.702 71.8392 130.633 71.8216 130.466 71.8216C130.3 71.8216 130.231 71.8388 130.315 71.8611ZM109.411 81.0458C109.495 81.0673 109.632 81.0673 109.716 81.0458C109.799 81.0243 109.731 81.0063 109.564 81.0063C109.397 81.0063 109.328 81.0239 109.411 81.0458ZM110.798 87.0516C110.798 87.2188 110.816 87.2871 110.838 87.2033C110.859 87.1033 110.859 86.9999 110.838 86.8999C110.816 86.8166 110.798 86.8849 110.798 87.0516ZM145.058 88.4378C145.058 88.6049 145.076 88.6733 145.097 88.5895C145.119 88.5061 145.119 88.3703 145.097 88.2865C145.076 88.2032 145.058 88.2715 145.058 88.4378ZM106.033 90.6043C106.033 90.8664 106.05 90.9738 106.07 90.8424C106.09 90.6841 106.09 90.5241 106.07 90.3658C106.05 90.2352 106.033 90.3422 106.033 90.6043ZM111.579 97.3629C111.579 97.5297 111.596 97.598 111.618 97.5146C111.64 97.4146 111.64 97.3112 111.618 97.2113C111.596 97.1279 111.579 97.1962 111.579 97.3629ZM115.093 98.0307C115.2 98.0513 115.376 98.0513 115.483 98.0307C115.591 98.0101 115.503 97.9933 115.288 97.9933C115.073 97.9933 114.985 98.0101 115.093 98.0307ZM122.033 98.0307C122.14 98.0517 122.297 98.0509 122.38 98.0294C122.463 98.0075 122.374 97.9907 122.183 97.9912C121.993 97.9924 121.925 98.0105 122.033 98.0311M137.949 98.032C138.08 98.0517 138.276 98.0513 138.382 98.0307C138.489 98.0101 138.381 97.9937 138.142 97.9942C137.904 97.995 137.817 98.0118 137.949 98.032ZM129.577 100.197C129.685 100.217 129.86 100.217 129.968 100.197C130.076 100.176 129.987 100.159 129.773 100.159C129.558 100.159 129.47 100.177 129.577 100.197ZM153.905 102.215C153.905 102.382 153.922 102.45 153.944 102.367C153.966 102.267 153.966 102.164 153.944 102.064C153.923 101.98 153.905 102.049 153.905 102.215ZM108.721 103.472C108.722 103.71 108.738 103.798 108.759 103.665C108.778 103.522 108.778 103.376 108.757 103.233C108.737 103.126 108.72 103.234 108.721 103.472ZM120.559 103.75C120.666 103.771 120.822 103.77 120.905 103.748C120.988 103.727 120.9 103.709 120.709 103.71C120.518 103.712 120.45 103.729 120.559 103.75ZM121.729 109.296C121.861 109.316 122.056 109.316 122.163 109.295C122.269 109.274 122.162 109.258 121.923 109.259C121.685 109.259 121.598 109.276 121.729 109.296ZM140.16 109.296C140.268 109.316 140.424 109.315 140.507 109.294C140.59 109.272 140.501 109.255 140.311 109.256C140.12 109.257 140.052 109.275 140.16 109.296ZM147.792 117.44C147.899 117.461 148.074 117.461 148.182 117.44C148.289 117.42 148.202 117.403 147.986 117.403C147.772 117.403 147.684 117.42 147.792 117.44ZM123.81 118.219C123.893 118.24 124.029 118.24 124.113 118.219C124.197 118.197 124.128 118.179 123.962 118.179C123.795 118.179 123.726 118.197 123.81 118.219ZM129.839 119.349C129.995 119.367 130.229 119.367 130.359 119.347C130.49 119.328 130.362 119.312 130.076 119.312C129.79 119.312 129.683 119.329 129.839 119.349ZM127.624 126.824C127.624 126.991 127.642 127.059 127.664 126.976C127.686 126.876 127.686 126.772 127.664 126.673C127.642 126.589 127.624 126.657 127.624 126.824ZM119.572 139.951C119.572 140.619 119.586 140.88 119.602 140.533C119.619 140.185 119.619 139.639 119.602 139.32C119.585 139 119.572 139.285 119.572 139.951ZM124.113 143.09C124.268 143.11 124.522 143.11 124.677 143.09C124.832 143.071 124.705 143.056 124.395 143.056C124.085 143.056 123.958 143.071 124.113 143.09ZM130.06 155.592C130.06 155.902 130.076 156.028 130.095 155.874C130.115 155.687 130.115 155.498 130.095 155.311C130.076 155.156 130.061 155.282 130.061 155.592M136.001 168.308C136.78 168.322 138.028 168.322 138.777 168.308C139.525 168.293 138.888 168.282 137.362 168.282C135.835 168.282 135.223 168.294 136.001 168.308ZM165.272 171.059C165.272 171.298 165.289 171.385 165.309 171.252C165.329 171.109 165.328 170.963 165.308 170.82C165.287 170.713 165.271 170.821 165.272 171.059ZM166.309 171.946C166.583 171.964 167.032 171.964 167.307 171.946C167.581 171.929 167.356 171.915 166.808 171.915C166.259 171.915 166.035 171.929 166.309 171.946M134.218 179.226C135.303 179.24 137.079 179.24 138.164 179.226C139.25 179.212 138.362 179.201 136.191 179.201C134.02 179.201 133.133 179.212 134.218 179.226ZM93.8867 188.497C95.4966 188.511 98.131 188.511 99.7409 188.497C101.351 188.484 100.034 188.473 96.8136 188.473C93.5938 188.473 92.2768 188.484 93.8867 188.497ZM115.922 188.497C116.676 188.511 117.886 188.511 118.611 188.497C119.335 188.483 118.719 188.471 117.239 188.471C115.761 188.471 115.168 188.483 115.922 188.497ZM124.931 188.497C126.204 188.511 128.312 188.511 129.615 188.497C130.918 188.484 129.877 188.473 127.301 188.473C124.725 188.473 123.658 188.484 124.931 188.497Z" fill="#7C7C7C"/>
<path fill-rule="evenodd" clip-rule="evenodd" d="M99.5587 65.3686C116.263 65.3806 143.623 65.3806 160.36 65.3686C177.095 65.3561 163.428 65.3467 129.988 65.3467C96.5475 65.3467 82.8546 65.3561 99.5587 65.3686ZM129.88 69.7867C130.154 69.8039 130.602 69.8039 130.877 69.7867C131.151 69.7695 130.927 69.7553 130.378 69.7553C129.83 69.7553 129.605 69.7695 129.88 69.7867ZM124.329 82.8691C124.46 82.8889 124.674 82.8889 124.806 82.8691C124.937 82.8489 124.83 82.8326 124.567 82.8326C124.305 82.8326 124.197 82.8489 124.329 82.8691ZM145.056 87.9193C145.056 88.086 145.074 88.1539 145.096 88.071C145.117 87.971 145.117 87.8676 145.096 87.7676C145.074 87.6838 145.056 87.7521 145.056 87.9193ZM108.63 91.6018C108.631 91.7921 108.649 91.8604 108.669 91.7521C108.69 91.6447 108.689 91.4887 108.668 91.4058C108.646 91.3229 108.629 91.411 108.63 91.6018ZM117.173 98.0355C118.043 98.0497 119.468 98.0497 120.338 98.0355C121.209 98.0214 120.497 98.0098 118.756 98.0098C117.015 98.0098 116.302 98.0214 117.173 98.0355ZM139.077 98.0351C139.453 98.0518 139.829 98.0517 140.204 98.0347C140.501 98.0179 140.235 98.0037 139.615 98.0046C138.995 98.0046 138.753 98.0188 139.077 98.0351ZM142.586 98.0347C142.932 98.0514 143.498 98.0514 143.843 98.0347C144.189 98.0188 143.907 98.0046 143.215 98.0046C142.523 98.0046 142.24 98.0188 142.586 98.0347ZM148.182 102.13C148.182 102.345 148.2 102.432 148.22 102.325C148.24 102.196 148.24 102.064 148.22 101.935C148.199 101.828 148.182 101.915 148.182 102.13ZM106.46 102.65C106.46 102.817 106.478 102.885 106.499 102.801C106.521 102.701 106.521 102.598 106.499 102.498C106.478 102.415 106.46 102.483 106.46 102.65ZM111.667 110.449C111.667 110.663 111.684 110.751 111.705 110.643C111.726 110.536 111.726 110.36 111.705 110.253C111.684 110.146 111.667 110.234 111.667 110.449ZM127.429 111.689C127.429 111.703 127.556 111.83 127.711 111.97L127.993 112.225L127.738 111.943C127.501 111.681 127.429 111.622 127.429 111.689ZM130.098 115.796C130.271 115.816 130.446 115.816 130.618 115.796C130.749 115.776 130.621 115.76 130.335 115.761C130.049 115.761 129.942 115.777 130.098 115.796ZM118.342 117.38C118.342 117.547 118.36 117.615 118.382 117.532C118.403 117.432 118.403 117.329 118.382 117.229C118.36 117.145 118.342 117.214 118.342 117.38ZM147.321 118.42C147.321 118.825 147.336 118.991 147.355 118.788C147.373 118.586 147.373 118.254 147.355 118.052C147.336 117.849 147.321 118.015 147.321 118.42ZM124.373 118.221C124.48 118.242 124.637 118.241 124.72 118.22C124.803 118.198 124.714 118.181 124.524 118.182C124.333 118.183 124.265 118.201 124.373 118.221ZM129.143 119.348C129.251 119.368 129.407 119.368 129.49 119.346C129.573 119.325 129.485 119.307 129.294 119.308C129.103 119.31 129.036 119.327 129.143 119.348M130.704 119.348C130.811 119.368 130.986 119.368 131.094 119.348C131.201 119.327 131.113 119.31 130.898 119.31C130.684 119.31 130.596 119.327 130.704 119.348ZM140.786 129.468C140.575 129.683 140.423 129.858 140.446 129.858C140.471 129.858 140.662 129.682 140.873 129.468C141.084 129.254 141.237 129.078 141.213 129.078C141.189 129.078 140.997 129.254 140.786 129.468ZM142.258 131.482L141.697 132.068L142.283 131.507C142.605 131.198 142.868 130.935 142.868 130.922C142.868 130.858 142.78 130.939 142.258 131.482ZM134.134 132.717C134.134 132.979 134.15 133.087 134.17 132.955C134.19 132.797 134.19 132.637 134.17 132.479C134.15 132.348 134.134 132.455 134.134 132.717ZM140.215 140.689C140.215 141.475 140.228 141.797 140.244 141.404C140.26 141.011 140.26 140.368 140.244 139.974C140.228 139.581 140.215 139.903 140.215 140.689ZM119.562 141.556C119.562 141.818 119.578 141.925 119.599 141.794C119.618 141.635 119.618 141.475 119.599 141.317C119.578 141.187 119.562 141.294 119.562 141.556ZM126.93 143.002C127.014 143.024 127.151 143.024 127.234 143.002C127.318 142.98 127.249 142.962 127.082 142.962C126.915 142.962 126.847 142.98 126.93 143.002ZM123.201 143.091C123.332 143.111 123.547 143.111 123.678 143.091C123.809 143.071 123.702 143.054 123.44 143.054C123.177 143.054 123.07 143.071 123.201 143.091M120.817 143.178C120.99 143.198 121.165 143.197 121.338 143.177C121.468 143.158 121.341 143.142 121.054 143.142C120.768 143.143 120.661 143.159 120.817 143.178ZM134.128 153.773C134.128 153.94 134.146 154.009 134.168 153.925C134.189 153.841 134.189 153.705 134.168 153.622C134.146 153.539 134.128 153.606 134.128 153.773ZM130.056 156.503C130.057 156.741 130.074 156.829 130.094 156.696C130.113 156.565 130.113 156.37 130.092 156.264C130.072 156.157 130.055 156.264 130.056 156.503ZM98.7419 164.323C100.305 164.336 102.861 164.336 104.423 164.323C105.985 164.31 104.707 164.299 101.582 164.299C98.4581 164.299 97.1798 164.31 98.7419 164.323ZM114.961 164.323C116.381 164.336 118.703 164.336 120.122 164.323C121.541 164.31 120.38 164.299 117.541 164.299C114.703 164.299 113.542 164.31 114.961 164.323ZM130.45 164.323C133.328 164.336 138.011 164.336 140.858 164.323C143.705 164.31 141.35 164.3 135.626 164.3C129.901 164.3 127.572 164.31 130.45 164.323ZM161.145 167.873C161.347 167.892 161.55 167.893 161.752 167.874C161.932 167.855 161.806 167.84 161.472 167.839C161.138 167.839 160.991 167.854 161.145 167.873M135.126 174.721C136.188 174.735 137.925 174.735 138.986 174.721C140.048 174.707 139.179 174.696 137.056 174.696C134.933 174.696 134.065 174.707 135.126 174.721ZM153.215 177.212C153.216 177.498 153.232 177.605 153.252 177.449C153.271 177.276 153.271 177.102 153.251 176.929C153.231 176.799 153.215 176.926 153.215 177.212ZM144.715 178.209C144.715 178.471 144.731 178.578 144.751 178.447C144.771 178.289 144.771 178.129 144.751 177.97C144.731 177.839 144.715 177.946 144.715 178.209ZM160.973 184.337C161.128 184.356 161.382 184.356 161.537 184.337C161.692 184.318 161.565 184.302 161.255 184.302C160.945 184.302 160.818 184.318 160.973 184.337M157.114 188.753C157.197 188.775 157.333 188.775 157.417 188.753C157.501 188.731 157.432 188.714 157.265 188.714C157.098 188.714 157.03 188.731 157.114 188.753ZM159.629 188.753C159.712 188.775 159.849 188.775 159.932 188.753C160.016 188.731 159.948 188.714 159.781 188.714C159.614 188.714 159.545 188.731 159.629 188.753ZM104.51 195.344C118.547 195.356 141.516 195.356 155.553 195.344C169.589 195.332 158.105 195.322 130.031 195.322C101.957 195.322 90.4731 195.332 104.51 195.344Z" fill="#6C6C6C"/>
<path fill-rule="evenodd" clip-rule="evenodd" d="M146.078 76.1774C146.24 76.3445 146.392 76.4807 146.416 76.4807C146.439 76.4807 146.327 76.3445 146.165 76.1774C146.003 76.0107 145.851 75.874 145.827 75.874C145.804 75.874 145.916 76.0107 146.078 76.1774ZM147.466 185.097C147.628 185.263 147.78 185.4 147.804 185.4C147.827 185.4 147.715 185.263 147.553 185.097C147.391 184.93 147.239 184.793 147.215 184.793C147.191 184.793 147.304 184.93 147.466 185.097Z" fill="#9C9C9C"/>
<path fill-rule="evenodd" clip-rule="evenodd" d="M65.0088 69.9824C65.0088 70.2445 65.0251 70.3519 65.0449 70.2204C65.0646 70.0621 65.0646 69.9019 65.0449 69.7435C65.0251 69.6129 65.0088 69.7203 65.0088 69.9824ZM120.992 74.3764C121.1 74.3971 121.257 74.3958 121.339 74.3743C121.422 74.3528 121.334 74.3356 121.143 74.3365C120.952 74.3378 120.884 74.3554 120.992 74.3764M121.773 77.7555C121.881 77.7762 122.037 77.7753 122.12 77.7538C122.203 77.7323 122.115 77.7151 121.924 77.716C121.733 77.7169 121.665 77.7345 121.773 77.7555ZM145.066 89.2189C145.066 89.5283 145.081 89.655 145.101 89.5003C145.12 89.3456 145.12 89.0921 145.101 88.9374C145.081 88.7823 145.066 88.9086 145.066 89.2189ZM153.994 93.0745C153.995 93.2653 154.012 93.3332 154.033 93.2253C154.054 93.1175 154.053 92.9615 154.031 92.8786C154.01 92.7961 153.992 92.8837 153.994 93.0745ZM149.915 93.2915C149.915 93.4578 149.934 93.5261 149.955 93.4427C149.977 93.343 149.977 93.2396 149.955 93.1398C149.934 93.056 149.915 93.1243 149.915 93.2915ZM137.253 98.0302C137.337 98.0516 137.473 98.0516 137.557 98.0302C137.64 98.0087 137.572 97.9902 137.405 97.9902C137.238 97.9902 137.17 98.0082 137.253 98.0302ZM148.094 103.516C148.094 103.683 148.111 103.751 148.134 103.668C148.155 103.568 148.155 103.464 148.134 103.364C148.111 103.281 148.094 103.349 148.094 103.516ZM115.312 119.286C115.312 119.501 115.329 119.589 115.349 119.481C115.37 119.374 115.37 119.199 115.349 119.092C115.328 118.984 115.312 119.072 115.312 119.286ZM128.407 120.559C128.49 120.581 128.626 120.581 128.71 120.559C128.793 120.537 128.725 120.52 128.558 120.52C128.391 120.52 128.323 120.537 128.407 120.559ZM131.269 122.379C131.352 122.401 131.489 122.401 131.572 122.379C131.656 122.357 131.587 122.339 131.42 122.339C131.254 122.339 131.185 122.357 131.269 122.379ZM132.223 122.379C132.306 122.401 132.443 122.401 132.526 122.379C132.61 122.357 132.542 122.339 132.374 122.339C132.208 122.339 132.14 122.357 132.223 122.379ZM138.214 123.359C138.214 123.669 138.229 123.795 138.248 123.641C138.267 123.454 138.267 123.265 138.248 123.078C138.229 122.923 138.214 123.049 138.214 123.359ZM136.908 136.939C137.039 136.958 137.235 136.958 137.341 136.937C137.448 136.916 137.34 136.9 137.101 136.901C136.863 136.902 136.776 136.919 136.908 136.939ZM124.201 137.111C124.309 137.132 124.465 137.131 124.548 137.109C124.631 137.088 124.543 137.071 124.352 137.072C124.161 137.072 124.093 137.09 124.201 137.111ZM140.288 138.436C140.288 138.603 140.305 138.671 140.327 138.588C140.349 138.488 140.349 138.384 140.327 138.284C140.306 138.201 140.288 138.269 140.288 138.436ZM135.692 142.829C135.776 142.85 135.912 142.85 135.995 142.829C136.079 142.806 136.011 142.789 135.844 142.789C135.677 142.789 135.609 142.806 135.692 142.829ZM125.242 143.091C125.415 143.111 125.59 143.11 125.763 143.09C125.893 143.071 125.765 143.055 125.479 143.055C125.193 143.056 125.086 143.072 125.242 143.091ZM130.057 148.704C130.058 148.942 130.075 149.03 130.095 148.898C130.115 148.766 130.115 148.571 130.094 148.464C130.073 148.358 130.057 148.466 130.057 148.704ZM130.065 154.163C130.065 154.687 130.08 154.891 130.097 154.615C130.114 154.339 130.114 153.91 130.097 153.662C130.079 153.413 130.065 153.639 130.065 154.163ZM134.23 155.809C134.23 156.429 134.244 156.671 134.26 156.348C134.277 155.972 134.277 155.596 134.26 155.221C134.243 154.925 134.229 155.189 134.23 155.809ZM114.096 188.492C114.179 188.514 114.316 188.514 114.399 188.492C114.483 188.471 114.414 188.453 114.248 188.453C114.081 188.453 114.012 188.471 114.096 188.492Z" fill="#BCBCBC"/>
<path fill-rule="evenodd" clip-rule="evenodd" d="M69.0976 69.4834L68.8425 69.7653L69.1243 69.5109C69.2791 69.3704 69.4064 69.2441 69.4064 69.2291C69.4064 69.162 69.335 69.2209 69.0976 69.4834ZM68.4727 71.0217C68.4727 71.1885 68.4899 71.2568 68.5122 71.1734C68.5337 71.0896 68.5337 70.9534 68.5122 70.8696C68.4903 70.7867 68.4727 70.855 68.4727 71.0217Z" fill="#F4839A"/>
<path fill-rule="evenodd" clip-rule="evenodd" d="M162.514 113.091C162.514 137.491 162.524 147.46 162.536 135.244C162.549 123.028 162.549 103.064 162.536 90.8793C162.524 78.6949 162.514 88.69 162.514 113.091ZM130.857 81.5064C131.092 81.7444 131.303 81.9395 131.327 81.9395C131.351 81.9395 131.178 81.7444 130.943 81.5064C130.709 81.2683 130.496 81.0732 130.473 81.0732C130.449 81.0732 130.622 81.2683 130.857 81.5064ZM117.669 83.6944L117.326 84.0626L117.695 83.7201C118.038 83.4013 118.103 83.3261 118.038 83.3261C118.023 83.3261 117.858 83.492 117.669 83.6944ZM143.428 108.13L143.173 108.411L143.455 108.157C143.61 108.017 143.736 107.89 143.736 107.875C143.736 107.808 143.665 107.867 143.428 108.13M136.711 115.414C136.711 115.429 136.838 115.556 136.993 115.695L137.275 115.95L137.02 115.668C136.783 115.406 136.711 115.347 136.711 115.414ZM148.589 168.568L148.29 168.893L148.616 168.594C148.918 168.317 148.981 168.243 148.915 168.243C148.9 168.243 148.754 168.389 148.589 168.568ZM154.925 181.874C154.925 181.889 155.052 182.016 155.207 182.156L155.489 182.411L155.235 182.129C154.997 181.867 154.925 181.808 154.925 181.874Z" fill="#CCCCCC"/>
</svg>
