<svg width="260" height="260" viewBox="0 0 260 260" fill="none" xmlns="http://www.w3.org/2000/svg">
<g clip-path="url(#clip0_748_36)">
<path fill-rule="evenodd" clip-rule="evenodd" d="M60.9666 131.656C58.6828 139.122 64.574 146.045 76.9592 146.316H95.8429L101.708 136.229H85.3027C81.6605 136.229 81.1913 134.6 81.1913 134.6H102.661L108.517 124.54H87.7086C87.8814 124.346 89.5086 122.929 92.0176 122.929H109.459L115.28 112.925H93.992C79.3505 112.925 63.7415 122.586 60.9666 131.656Z" fill="white"/>
<path fill-rule="evenodd" clip-rule="evenodd" d="M153.498 131.656C151.214 139.122 157.107 146.045 169.49 146.316H187.738L193.603 136.229H177.834C168.38 136.229 172.806 122.929 189.414 122.929H200.54L206.362 112.925H186.526C169.596 112.925 156.274 122.586 153.498 131.656Z" fill="white"/>
<path fill-rule="evenodd" clip-rule="evenodd" d="M161.589 112.925H140.672C127.831 112.925 113.46 120.221 108.109 129.411L105.091 134.597H124.282C124.282 134.897 122.542 136.228 119.46 136.228L104.138 136.235L98.2676 146.322L119.863 146.316C131.237 146.316 145.75 140.139 150.732 131.574L154.825 124.55L134.242 124.541C134.242 124.075 136.082 123.065 138.119 123.065L155.684 123.074L161.589 112.925Z" fill="white"/>
<path fill-rule="evenodd" clip-rule="evenodd" d="M246.441 120.898C243.544 112.983 230.145 110.504 216.507 115.367C210.776 117.407 205.918 120.422 202.422 123.818C203.818 123.968 205.223 124.151 206.647 124.419C207.793 124.638 208.87 124.9 210.005 125.178C213.657 126.078 217.787 127.095 225.97 126.848C225.985 126.848 225.182 128.205 225.182 128.205C217.149 128.459 212.975 127.468 209.42 126.596C208.253 126.307 207.158 126.036 205.958 125.809C199.004 124.5 192.188 124.937 185.619 126.475L184.494 128.409C191.381 126.518 198.296 126.253 205.604 127.633C206.753 127.851 207.828 128.112 208.962 128.397C212.49 129.259 216.473 130.238 224.112 130.078L223.323 131.432C215.742 131.613 211.829 130.659 208.375 129.804C207.212 129.52 206.116 129.249 204.913 129.023C197.614 127.644 190.508 128.158 183.615 129.916L182.494 131.874C189.698 129.738 196.916 129.406 204.562 130.847C205.712 131.062 206.783 131.328 207.921 131.606C211.312 132.442 215.131 133.376 222.222 133.306L221.431 134.653C214.261 134.752 210.45 133.832 207.064 133.009C205.882 132.723 204.765 132.457 203.543 132.227C196.063 130.84 188.805 131.333 181.744 133.135L180.601 135.096C185.841 133.57 191.237 132.976 196.651 133.286C196.216 135.123 196.387 136.68 197.051 138.5C199.949 146.415 213.35 148.894 226.986 144.031C240.621 139.17 249.332 128.815 246.441 120.898Z" fill="white"/>
<path fill-rule="evenodd" clip-rule="evenodd" d="M62.2538 124.54H47.5397C47.7533 123.962 49.671 122.928 53.2653 122.928H63.1908L69.0123 112.925H54.9883C41.7226 112.925 28.1795 120.413 22.1649 130.566L12.999 146.319H31.8784L38.4189 134.6H56.3975L62.2538 124.54Z" fill="white"/>
</g>
<defs>
<clipPath id="clip0_748_36">
<rect width="234.667" height="58.6667" fill="white" transform="translate(13 100.667)"/>
</clipPath>
</defs>
</svg>
