<svg width="260" height="260" viewBox="0 0 260 260" fill="none" xmlns="http://www.w3.org/2000/svg">
<g clip-path="url(#clip0_748_23)">
<path d="M249.668 108.904C248.03 109.017 246.389 109.111 244.755 109.264C244.558 109.282 244.315 109.586 244.225 109.808C241.777 115.809 239.346 121.817 236.913 127.822C235.978 130.133 235.031 132.442 234.114 134.761C233.962 135.144 233.772 135.291 233.344 135.281C232.179 135.251 231.011 135.251 229.846 135.281C229.395 135.293 229.203 135.134 229.039 134.729C225.691 126.447 222.318 118.173 218.978 109.884C218.754 109.329 218.455 109.156 217.886 109.133C216.516 109.077 215.148 108.96 213.753 108.866V106.862H228.992V108.864C227.034 108.966 225.066 109.071 222.971 109.182C226.082 116.888 229.166 124.53 232.25 132.173C232.302 132.177 232.353 132.179 232.406 132.183C235.461 124.561 238.517 116.939 241.611 109.218C239.549 109.093 237.587 108.976 235.599 108.858V106.873H249.459C249.529 107.303 249.596 107.736 249.666 108.171V108.906L249.668 108.904Z" fill="white"/>
<path d="M17.5711 132.859C19.8463 133 22.1257 133.143 24.4972 133.29C24.4624 133.952 24.4296 134.57 24.3928 135.227H9.96502C9.91587 134.606 9.86877 134.005 9.81348 133.306C10.7637 133.225 11.6873 133.145 12.611 133.072C13.2335 133.022 13.8561 132.966 14.4787 132.944C14.8371 132.929 14.9599 132.772 14.9272 132.446C14.919 132.366 14.9272 132.283 14.9272 132.201C14.9272 124.786 14.9272 117.371 14.9272 109.957V109.262C13.2233 109.125 11.5563 108.99 9.82781 108.85C9.87287 108.183 9.91383 107.543 9.95888 106.869C10.1555 106.856 10.3152 106.836 10.477 106.836C13.6841 106.836 16.8891 106.842 20.0962 106.826C20.4791 106.826 20.6901 106.945 20.8887 107.259C26.0925 115.499 31.3045 123.735 36.5165 131.969C36.6005 132.1 36.6988 132.223 36.8708 132.462C36.8954 132.164 36.922 131.995 36.922 131.826C36.9241 124.534 36.9179 117.243 36.9364 109.951C36.9364 109.425 36.8053 109.264 36.2503 109.238C34.1737 109.145 32.0991 108.99 30.0021 108.858V106.879H44.4728C44.5096 107.507 44.5486 108.149 44.5895 108.856C42.9123 108.99 41.2596 109.123 39.5414 109.262V135.2C39.3222 135.229 39.1645 135.267 39.0089 135.267C37.5303 135.271 36.0517 135.289 34.5751 135.253C34.3232 135.247 33.9792 135.065 33.844 134.858C29.3344 127.971 24.8351 121.08 20.3645 114.168C19.5187 112.86 18.7937 111.477 18.0114 110.13C17.9008 109.939 17.78 109.753 17.5772 109.423V132.859H17.5711Z" fill="white"/>
<path d="M152.268 135.233C152.237 134.582 152.211 133.994 152.178 133.304C153.13 133.225 154.07 133.145 155.012 133.07C155.614 133.022 156.214 132.968 156.817 132.944C157.138 132.931 157.269 132.803 157.24 132.493C157.228 132.352 157.24 132.207 157.24 132.064C157.24 124.734 157.24 117.402 157.24 110.072V109.262C155.561 109.127 153.915 108.994 152.237 108.86V106.881C152.469 106.86 152.647 106.834 152.825 106.834C158.008 106.834 163.192 106.782 168.371 106.875C170.079 106.905 171.822 107.156 173.472 107.583C176.892 108.469 178.488 110.663 178.453 114.072C178.426 116.759 176.286 119.236 173.296 120.037C173.079 120.095 172.862 120.158 172.633 120.321C173.003 120.401 173.376 120.482 173.747 120.564C175.604 120.983 177.226 121.792 178.412 123.304C181.242 126.914 179.532 132.607 175.125 134.24C173.296 134.919 171.381 135.214 169.442 135.231C163.907 135.273 158.369 135.261 152.833 135.267C152.669 135.267 152.506 135.247 152.268 135.233ZM161.342 121.75V132.807C161.472 132.821 161.572 132.843 161.67 132.843C163.896 132.831 166.124 132.881 168.344 132.778C169.514 132.724 170.708 132.521 171.828 132.183C174.3 131.436 175.393 129.696 175.354 126.854C175.324 124.587 174.083 123.016 171.736 122.296C171.32 122.169 170.892 122.03 170.464 122.006C168.494 121.899 166.524 121.817 164.552 121.756C163.497 121.724 162.44 121.75 161.34 121.75H161.342ZM161.342 119.364C161.472 119.389 161.57 119.427 161.668 119.425C163.997 119.393 166.327 119.405 168.652 119.298C170.048 119.234 171.42 118.907 172.565 118.046C174.263 116.771 174.531 115 174.191 113.091C173.851 111.193 172.516 110.202 170.712 109.759C167.664 109.011 164.554 109.319 161.463 109.272C161.431 109.272 161.396 109.313 161.342 109.347V119.364Z" fill="white"/>
<path d="M149.024 133.284V135.229H134.283C134.242 134.615 134.203 133.998 134.156 133.296C136.225 133.187 138.25 133.082 140.345 132.974C140.288 132.762 140.261 132.613 140.206 132.472C139.436 130.514 138.649 128.561 137.898 126.594C137.746 126.195 137.535 126.079 137.122 126.081C132.999 126.093 128.879 126.081 124.756 126.105C124.531 126.105 124.181 126.288 124.105 126.471C123.261 128.51 122.46 130.568 121.649 132.619C121.621 132.692 121.619 132.774 121.588 132.927C123.624 133.05 125.628 133.169 127.646 133.29V135.233H114.262C114.213 134.598 114.166 133.996 114.113 133.31C114.938 133.231 115.714 133.155 116.493 133.087C117.115 133.032 117.742 133.02 118.356 132.925C118.573 132.891 118.874 132.716 118.948 132.533C122.02 124.869 125.073 117.196 128.125 109.524C128.147 109.47 128.143 109.405 128.164 109.258C126.089 109.135 124.029 109.013 121.92 108.888C121.959 108.187 121.993 107.547 122.03 106.871H141.185C141.24 107.537 141.293 108.177 141.353 108.892C139.243 109.003 137.199 109.109 135.067 109.22C135.723 110.849 136.337 112.379 136.952 113.909C139.421 120.053 141.893 126.195 144.349 132.346C144.525 132.785 144.74 132.968 145.24 132.99C146.503 133.048 147.765 133.183 149.024 133.286V133.284ZM131.068 109.399C131.006 109.401 130.943 109.403 130.881 109.407C128.971 114.209 127.062 119.01 125.137 123.852H136.782C134.859 118.988 132.964 114.195 131.07 109.401L131.068 109.399Z" fill="white"/>
<path d="M193.319 109.361V119.137H203.252V121.762H193.329V132.819C193.569 132.829 193.79 132.849 194.011 132.847C198.009 132.833 202.004 132.803 206.002 132.817C206.614 132.817 206.721 132.615 206.688 132.076C206.549 129.753 206.448 127.427 206.336 125.102C206.325 124.881 206.336 124.659 206.336 124.351C207.208 124.301 208.046 124.255 208.965 124.202C209.305 127.898 209.639 131.528 209.981 135.233C209.698 135.249 209.479 135.271 209.26 135.271C201.163 135.271 193.063 135.269 184.965 135.283C184.423 135.283 184.15 135.174 184.214 134.584C184.257 134.186 184.222 133.777 184.222 133.3C185.097 133.225 185.961 133.149 186.825 133.08C187.468 133.03 188.111 132.974 188.754 132.948C189.084 132.934 189.235 132.839 189.233 132.483C189.223 124.802 189.221 117.124 189.215 109.443C189.215 109.405 189.19 109.369 189.153 109.254C187.538 109.123 185.891 108.99 184.228 108.856V106.889H209.938C209.604 110.1 209.268 113.313 208.924 116.612C208.07 116.568 207.249 116.526 206.311 116.478C206.438 114.126 206.563 111.797 206.694 109.361H193.319Z" fill="white"/>
<path d="M99.7958 132.17C102.849 124.555 105.903 116.939 108.999 109.218C106.916 109.093 104.936 108.972 102.898 108.85C102.935 108.181 102.968 107.555 103.005 106.883H116.908C116.939 107.501 116.97 108.139 117.005 108.854C115.854 108.946 114.746 109.059 113.632 109.119C111.84 109.216 111.842 109.202 111.184 110.822C107.959 118.779 104.729 126.735 101.518 134.697C101.344 135.128 101.143 135.293 100.668 135.279C99.5234 135.245 98.3786 135.249 97.2338 135.279C96.7894 135.291 96.5826 135.144 96.4167 134.735C93.0847 126.489 89.7281 118.253 86.4105 110.003C86.1545 109.367 85.8268 109.141 85.153 109.123C83.8055 109.085 82.458 108.954 81.0285 108.858C81.0715 108.197 81.1125 107.559 81.1555 106.879H96.345C96.3942 107.509 96.4413 108.149 96.4966 108.858C94.4568 108.964 92.4703 109.069 90.3528 109.182C93.4636 116.888 96.5478 124.532 99.632 132.177C99.6852 132.177 99.7385 132.173 99.7917 132.173L99.7958 132.17Z" fill="white"/>
<path d="M66.6335 136.426C67.0902 135.736 67.635 135.017 68.065 134.236C69.6092 131.434 71.7861 129.197 74.3297 127.262C75.2123 126.59 76.1093 125.895 76.8364 125.07C79.001 122.61 78.9928 119.524 76.8487 117.043C76.2629 116.365 75.5646 115.757 74.8355 115.225C71.9725 113.142 69.56 110.686 67.8807 107.565C67.5162 106.889 67.0063 106.287 66.5987 105.703C71.9131 106.44 79.0297 111.902 79.2427 120.665C79.4618 129.718 72.2899 135.593 66.6315 136.428L66.6335 136.426Z" fill="white"/>
<path d="M59.3695 136.445C53.6168 135.48 46.8853 129.883 46.7358 121.323C46.5904 112.926 52.9697 106.804 59.3531 105.667C58.7879 106.552 58.151 107.499 57.5693 108.475C56.0313 111.056 53.9343 113.12 51.5443 114.937C50.6473 115.622 49.7401 116.343 49.0213 117.196C47.0122 119.58 47.0061 122.475 48.9905 124.877C49.6623 125.69 50.4978 126.401 51.3539 127.035C54.094 129.068 56.4205 131.438 58.0342 134.445C58.407 135.142 58.9128 135.77 59.3674 136.445H59.3695Z" fill="white"/>
<path d="M167.232 144.717C165.442 142.998 163.4 142.473 161.119 143.33C158.35 144.373 157.16 147.641 158.497 150.28C159.783 152.821 163.074 153.771 165.614 152.335C166.892 151.613 167.684 150.214 167.553 148.824H163.746V148.214H168.247C168.454 151.025 166.673 152.941 164.483 153.415C161.192 154.123 158.182 152.432 157.414 149.376C156.82 147.013 157.782 144.548 159.8 143.27C161.852 141.969 164.942 142.078 166.787 143.518C167.312 143.926 167.322 143.954 167.23 144.719L167.232 144.717Z" fill="white"/>
<path d="M179.179 147.993C179.167 144.82 181.653 142.374 184.899 142.364C188.149 142.354 190.674 144.788 190.685 147.939C190.695 151.107 188.215 153.543 184.955 153.568C181.706 153.592 179.194 151.166 179.179 147.993ZM184.942 152.96C187.832 152.949 189.984 150.787 189.97 147.91C189.956 145.088 187.768 142.948 184.905 142.954C182.032 142.96 179.831 145.168 179.869 148.007C179.906 150.844 182.085 152.97 184.944 152.96H184.942Z" fill="white"/>
<path d="M171.442 148.303V153.356C171.227 153.366 171.067 153.372 170.848 153.382V142.449C172.083 142.511 173.292 142.487 174.471 142.658C175.665 142.831 176.398 143.85 176.513 145.191C176.615 146.394 175.989 147.48 174.901 147.902C174.461 148.073 173.988 148.16 173.439 148.309C174.922 149.978 176.386 151.629 177.885 153.318C177.385 153.471 177.076 153.36 176.767 153.004C175.538 151.591 174.25 150.228 173.048 148.794C172.61 148.273 172.159 148.126 171.442 148.305V148.303ZM171.452 143.038C171.452 144.546 171.444 145.927 171.467 147.306C171.467 147.415 171.686 147.614 171.803 147.614C172.569 147.61 173.347 147.631 174.098 147.512C175.182 147.341 175.823 146.471 175.817 145.354C175.81 144.156 175.206 143.375 174.043 143.208C173.228 143.091 172.395 143.097 171.452 143.04V143.038Z" fill="white"/>
<path d="M193.073 142.533H193.677C193.677 142.753 193.677 142.97 193.677 143.189C193.677 145.15 193.671 147.111 193.683 149.072C193.685 149.477 193.722 149.889 193.802 150.286C194.156 152.08 195.407 153.016 197.33 152.951C199.077 152.893 200.328 151.83 200.439 150.054C200.572 147.896 200.523 145.728 200.552 143.564C200.556 143.24 200.552 142.916 200.552 142.545C200.773 142.531 200.945 142.521 201.115 142.511C201.15 142.61 201.187 142.664 201.187 142.72C201.187 145.07 201.232 147.419 201.164 149.767C201.098 152.064 199.593 153.477 197.283 153.561C194.953 153.646 193.236 152.305 193.105 150.016C192.964 147.538 193.073 145.046 193.073 142.531V142.533Z" fill="white"/>
<path d="M204.144 142.449C205.403 142.507 206.601 142.455 207.758 142.64C209.262 142.879 210.046 144.009 209.966 145.511C209.89 146.946 208.965 147.949 207.484 148.112C206.622 148.206 205.749 148.202 204.817 148.245V153.346H204.146V142.449H204.144ZM204.828 147.616C205.778 147.574 206.718 147.618 207.627 147.467C208.682 147.292 209.286 146.4 209.274 145.311C209.262 144.232 208.686 143.409 207.627 143.226C206.722 143.071 205.786 143.097 204.828 143.042V147.616Z" fill="white"/>
</g>
<defs>
<clipPath id="clip0_748_23">
<rect width="240" height="48" fill="white" transform="translate(9.66699 105.667)"/>
</clipPath>
</defs>
</svg>
