<svg width="260" height="260" viewBox="0 0 260 260" fill="none" xmlns="http://www.w3.org/2000/svg">
<path fill-rule="evenodd" clip-rule="evenodd" d="M131.744 86.9228C127.288 92.301 114.58 109.665 113.131 111.913C110.343 116.221 110.097 118.308 110.015 119.699C109.934 121.064 109.934 123.526 112.202 125.533C116.002 128.85 121.331 128.314 126.06 128.314H165.01C166.677 128.314 167.17 127.832 168.072 126.656C171.188 122 172.582 116.943 172.582 112.421C172.582 102.735 166.16 90.5351 149.895 85.0228L148.063 87.5914C160.964 93.5835 166.295 101.423 166.295 112.393C166.377 115.336 165.584 118.52 163.615 121.464H125.73C123.462 121.464 123.134 118.949 123.954 117.53C127.201 111.872 130.826 106.429 134.804 101.237C138.632 96.2336 142.403 91.5508 146.367 86.6548C147.433 85.2908 146.721 83.9791 144.59 83.5516C140.162 82.6418 135.543 82 129.939 82C98.8627 82 87.4906 99.4708 87.4906 112.421C87.4906 126.468 98.9436 142.762 130.022 142.762C147.269 142.762 158.559 137.329 165.091 130.347H158.503C152.789 135.511 142.976 139.178 130.022 139.178C103.699 139.178 93.9966 124.702 93.9966 112.233C94.187 101.103 104.601 85.7451 130.679 85.2372C131.663 85.2104 132.429 86.0934 131.744 86.9228ZM225.225 167.108C226.783 167.323 227.986 168.526 227.986 169.946C227.986 171.549 226.51 172.834 224.705 172.834H191.305V151.456H181.464V172.888H163.369C158.477 172.888 157.466 169.972 157.466 167.296V151.323H141.149C139.535 152.394 137.977 153.571 136.31 154.56L126.634 160.393L114.061 151.403H94.4893V156.782H101.568V153.837L118.214 165.531L106.843 172.512H94.4881V177.89H108.783C110.313 176.875 111.763 175.804 113.348 174.868L123.297 168.955L135.924 177.784H150.303L131.304 163.791L141.064 157.559C143.142 156.219 145.329 155.097 147.46 153.867V167.94C147.46 173.88 149.018 178 161.236 178L230.254 177.84C235.583 177.918 239 174.309 239 169.948C239 165.611 235.063 162.054 230.254 162.054H205.326C205.655 159.085 208.276 156.598 210.928 156.598H236.157L236.077 151.434H209.316C200.842 151.434 194.065 158.31 193.873 166.311C193.847 166.872 194.228 167.219 194.857 167.219L225.225 167.108ZM94.4893 167.029V161.544H99.3542V167.029H94.4893ZM94.4893 151.403H76.0115C71.0098 151.403 67.1552 152.688 64.3134 154.881C59.2022 158.841 57.5623 163.014 57.6171 164.888H64.2861C61.3609 167.029 59.3926 169.595 58.3549 172.567H36.4866C32.5512 172.567 30.008 169.839 30.008 167.189V151.216H20.333V167.805C20.333 173.77 26.1286 177.89 35.4203 177.89H94.4893V172.512H71.0372C71.1467 169.784 74.1253 167.029 76.8315 167.029H94.4893V161.544H70.7634C70.4362 159.938 73.497 156.782 75.8473 156.782H94.4893V151.403Z" fill="white"/>
</svg>
