<svg width="260" height="260" viewBox="0 0 260 260" fill="none" xmlns="http://www.w3.org/2000/svg">
<g clip-path="url(#clip0_748_147)">
<path d="M8.42035 114.911C8.42035 114.911 6.74026 122.371 11.2026 124.619C15.6649 126.866 22.8287 125.447 24.0388 123.699C25.2488 121.95 25.5269 120.744 25.5269 120.744V114.912" fill="#73C167"/>
<path d="M25.1624 114.911C25.1624 114.911 23.4828 122.371 27.9446 124.619C32.4065 126.866 39.5717 125.447 40.7808 123.699C41.9899 121.95 42.267 120.744 42.267 120.744V114.912" fill="#6D2968"/>
<path d="M42.2766 114.91C42.2766 114.91 40.597 122.37 45.0589 124.618C49.5208 126.865 56.686 125.446 57.8951 123.698C59.1042 121.949 59.3832 120.743 59.3832 120.743V114.911" fill="#F58021"/>
<path d="M60.3744 114.97C60.3625 114.848 60.3266 114.731 60.2686 114.624C60.2105 114.516 60.1316 114.422 60.0364 114.345C59.9411 114.268 59.8314 114.21 59.7136 114.176C59.5958 114.141 59.4722 114.13 59.35 114.143C59.2278 114.155 59.1093 114.192 59.0015 114.251C58.8937 114.309 58.7986 114.388 58.7218 114.483C58.6449 114.578 58.5879 114.687 58.5539 114.804C58.5199 114.921 58.5096 115.043 58.5237 115.164C58.5237 115.176 58.5265 115.189 58.5284 115.201C58.7618 117.017 58.7661 118.527 58.5394 119.689C58.3084 120.879 57.8407 121.909 57.1497 122.749L57.1022 122.811C56.0566 124.046 54.5661 124.795 52.7843 124.978C52.5015 125.008 51.0828 125.079 50.7881 125.079H50.4745C50.1251 125.079 48.9764 125.002 48.6461 124.962C45.6604 124.599 43.6163 122.676 43.0379 119.689C42.1667 115.205 44.9575 107.306 44.9865 107.225C45.0601 106.997 45.041 106.75 44.9333 106.535C44.8256 106.321 44.6377 106.157 44.4096 106.077C44.1814 105.997 43.9308 106.009 43.7111 106.109C43.4914 106.209 43.3198 106.39 43.2327 106.614C43.1101 106.957 40.2447 115.063 41.2114 120.037C41.2632 120.303 41.3269 120.563 41.3986 120.818C40.5431 123.181 38.5769 124.71 35.9506 124.979C35.6654 125.009 34.2486 125.08 33.9544 125.08H33.6407C33.2905 125.08 32.1427 125.003 31.8114 124.963C28.8272 124.6 26.7826 122.677 26.2032 119.69C25.3315 115.206 28.1233 107.307 28.1518 107.226C28.2254 106.998 28.2064 106.751 28.0987 106.536C27.991 106.322 27.8031 106.157 27.5749 106.078C27.3467 105.998 27.0962 106.01 26.8765 106.11C26.6567 106.21 26.4851 106.391 26.3981 106.615C26.2754 106.958 23.41 115.064 24.3772 120.038C24.429 120.304 24.4932 120.564 24.564 120.818C23.7085 123.182 21.7418 124.711 19.1164 124.98C18.8312 125.01 17.414 125.081 17.1202 125.081H16.8061C16.4563 125.081 15.308 125.004 14.9777 124.964C11.9916 124.601 9.94789 122.678 9.36948 119.691C8.48832 115.205 11.2787 107.306 11.3076 107.227C11.384 106.998 11.3667 106.748 11.2593 106.532C11.1519 106.316 10.9631 106.15 10.7334 106.07C10.5038 105.99 10.2515 106.002 10.0309 106.104C9.81023 106.206 9.63881 106.39 9.55341 106.615C9.43127 106.956 6.56584 115.062 7.53302 120.036C8.26447 123.804 10.9597 126.329 14.741 126.787C14.9943 126.819 15.5851 126.863 16.0917 126.891V134.329C16.0887 134.45 16.1098 134.571 16.1539 134.684C16.198 134.797 16.2642 134.9 16.3486 134.988C16.4331 135.075 16.5342 135.146 16.6462 135.195C16.7582 135.244 16.8788 135.27 17.0011 135.273C17.1235 135.276 17.2452 135.254 17.3593 135.211C17.4733 135.167 17.5776 135.101 17.6659 135.017C17.7543 134.933 17.8251 134.833 17.8742 134.722C17.9234 134.611 17.95 134.492 17.9524 134.371C17.9524 134.357 17.9524 134.343 17.9524 134.329V126.892C18.4857 126.866 19.0931 126.831 19.3017 126.809C22.0445 126.527 24.2213 125.175 25.5302 123.053C26.8111 125.123 28.926 126.466 31.5785 126.789C31.8319 126.82 32.4231 126.864 32.9293 126.893V134.329C32.9293 134.45 32.9533 134.57 33.0001 134.682C33.0468 134.793 33.1153 134.895 33.2017 134.98C33.2881 135.066 33.3906 135.133 33.5034 135.18C33.6163 135.226 33.7372 135.25 33.8594 135.25C33.9815 135.25 34.1025 135.226 34.2153 135.18C34.3282 135.133 34.4307 135.066 34.5171 134.98C34.6034 134.895 34.6719 134.793 34.7187 134.682C34.7654 134.57 34.7895 134.45 34.7895 134.329V126.892C35.3232 126.866 35.9301 126.831 36.1388 126.809C38.8811 126.527 41.0621 125.179 42.371 123.059C43.6519 125.128 45.7659 126.466 48.4161 126.789C48.6698 126.82 49.2606 126.864 49.7663 126.893V134.329C49.7663 134.573 49.8643 134.808 50.0387 134.98C50.2132 135.153 50.4497 135.25 50.6964 135.25C50.9431 135.25 51.1797 135.153 51.3541 134.98C51.5285 134.808 51.6265 134.573 51.6265 134.329V126.892C52.1603 126.866 52.7672 126.831 52.9763 126.809C55.2624 126.574 57.1906 125.59 58.5527 123.963L58.6078 123.891C59.4856 122.815 60.0774 121.519 60.3663 120.037C60.6296 118.684 60.6325 116.98 60.3744 114.97Z" fill="white"/>
<path d="M242.875 123.083H236.097V128.445H242.927C245.268 128.445 245.847 127.107 245.847 125.757C245.847 124.422 245.116 123.083 242.877 123.083L242.875 123.083ZM243.553 134.324H229.222V107.773H250.579V113.598H236.097V117.617H243.081C243.081 117.617 247.371 117.671 249.464 118.858C251.556 120.046 252.667 122.245 252.667 126.745C252.667 131.947 248.133 134.325 243.553 134.325V134.324Z" fill="white"/>
<path d="M91.0667 123.083H84.2888V128.445H91.1142C93.4578 128.445 94.0362 127.107 94.0362 125.757C94.0362 124.422 93.3043 123.083 91.0667 123.083V123.083ZM84.2888 117.617H91.2725C92.6812 117.617 93.3043 116.535 93.3043 115.61C93.3043 114.686 92.7302 113.598 91.2217 113.598H84.2888V117.617ZM91.7421 134.325H77.4121V107.773H91.6946C95.9611 107.773 99.7652 110.392 99.7652 114.937C99.7652 117.361 98.7799 119.057 97.2681 120.195C98.9872 121.121 100.861 123.03 100.861 126.745C100.859 131.947 96.3242 134.325 91.7421 134.325Z" fill="white"/>
<path d="M105.638 107.774H112.405V124.683L122.776 107.774H129.962V134.324H123.195V117.409L112.822 134.324H105.638V107.774Z" fill="white"/>
<path d="M142.171 134.325H135.303V107.773H142.171V117.001H152.751V107.773H159.62V134.325H152.751V123.029H142.171V134.325Z" fill="white"/>
<path d="M191.102 107.774V134.324H184.224V113.804H176.412L175.262 125.042C174.582 131.538 171.35 134.423 164.736 134.423V128.497C167.08 128.342 168.333 127.361 168.594 124.63L170.365 107.773L191.102 107.774Z" fill="white"/>
<path d="M210.096 113.492C206.289 113.492 203.221 116.792 203.221 121.121C203.221 125.354 206.289 128.6 210.096 128.6C213.904 128.6 216.968 125.248 216.968 121.121C216.968 116.898 213.897 113.492 210.096 113.492ZM223.852 134.327H217.278V131.485C215.2 133.649 212.329 134.887 209.056 134.887C202.074 134.887 196.287 128.907 196.287 121.075C196.287 113.182 202.074 107.205 209.056 107.205C212.331 107.205 215.202 108.439 217.278 110.611V107.77H223.852V134.327Z" fill="white"/>
<path d="M84.5415 150.295C84.2809 150.383 84.0144 150.452 83.744 150.502C83.4683 150.554 83.1903 150.591 82.9108 150.615C82.8139 150.622 82.7188 150.628 82.6256 150.633C82.5306 150.636 82.4427 150.638 82.3538 150.638C81.1621 150.638 80.1314 150.289 79.2617 149.591C78.3919 148.893 77.957 147.849 77.957 146.46C77.957 145.15 78.3778 144.109 79.2194 143.336C80.0609 142.562 81.2104 142.176 82.6679 142.176C82.9203 142.175 83.1725 142.189 83.4232 142.217C83.6526 142.245 83.8759 142.282 84.0933 142.33C84.166 142.354 84.2401 142.377 84.3171 142.395C84.3941 142.413 84.4678 142.436 84.5405 142.46L84.4678 143.88C84.2034 143.773 83.928 143.694 83.6465 143.645C83.3632 143.597 83.0762 143.573 82.7887 143.574C81.9271 143.574 81.2085 143.821 80.6328 144.313C80.0571 144.806 79.7691 145.515 79.7688 146.438C79.7688 147.385 80.0223 148.069 80.5292 148.492C81.0362 148.914 81.5957 149.161 82.2079 149.232C82.2887 149.239 82.3671 149.245 82.4455 149.249C82.5239 149.253 82.5967 149.255 82.6689 149.255C82.9693 149.258 83.2691 149.228 83.5629 149.166C83.7979 149.116 84.0282 149.047 84.2516 148.959C84.2837 148.951 84.3155 148.941 84.3466 148.93C84.3764 148.919 84.4047 148.905 84.4312 148.888L84.5415 150.295Z" fill="white"/>
<path d="M87.9116 142.27L89.5908 145.798L89.9529 146.674H89.9895L90.3517 145.786L91.9581 142.27H93.6496L90.2671 149.325C90.0177 149.846 89.7239 150.195 89.3855 150.373C89.039 150.552 88.6529 150.643 88.2619 150.639C88.0613 150.64 87.8611 150.622 87.664 150.586C87.5071 150.556 87.3518 150.518 87.1987 150.473C87.1583 150.457 87.1203 150.444 87.0842 150.432C87.049 150.421 87.0146 150.407 86.9815 150.39L87.1745 149.136C87.2391 149.167 87.3014 149.195 87.3617 149.218C87.419 149.241 87.4776 149.261 87.5371 149.278C87.5932 149.286 87.6517 149.294 87.7125 149.301C87.7744 149.309 87.8368 149.313 87.8993 149.313C88.0804 149.314 88.2603 149.284 88.4311 149.225C88.6003 149.165 88.7411 149.009 88.8536 148.757L89.0955 148.201L85.9934 142.27H87.9116Z" fill="white"/>
<path d="M102.238 142.27V150.556H100.523V143.631H97.1766V150.556H95.4614V142.27H102.238Z" fill="white"/>
<path d="M109.824 142.27V143.738H106.49V145.608H109.522V146.969H106.49V149.086H109.824V150.554H104.775V142.27H109.824Z" fill="white"/>
<path d="M114.62 142.27C115.538 142.27 116.225 142.426 116.679 142.738C117.134 143.05 117.45 143.391 117.628 143.762C117.719 143.951 117.784 144.153 117.821 144.36C117.85 144.526 117.866 144.694 117.869 144.863V144.993C117.837 145.608 117.581 146.17 117.102 146.679C116.622 147.188 115.899 147.443 114.933 147.443H113.834V150.556H112.119V142.27H114.62ZM114.62 146.141C115.095 146.141 115.453 146.008 115.695 145.744C115.932 145.492 116.062 145.159 116.057 144.815C116.058 144.5 115.944 144.196 115.737 143.957C115.523 143.701 115.151 143.573 114.62 143.573H113.834V146.141H114.62Z" fill="white"/>
<path d="M124.211 150.556L122.157 144.637L121.771 143.454H121.734L121.758 144.732V150.556H120.042V142.27H122.942L124.633 147.088L125.008 148.555H125.044L125.418 147.088L127.109 142.27H130.009V150.556H128.293V144.732L128.317 143.454H128.281L127.894 144.637L125.84 150.556H124.211Z" fill="white"/>
<path d="M137.209 142.27L140.567 150.556H138.635L137.922 148.697H134.431L133.718 150.556H131.882L135.252 142.27H137.209ZM137.414 147.324L136.17 143.938H136.146L134.974 147.324H137.414Z" fill="white"/>
<path d="M144.94 142.27C145.859 142.27 146.545 142.426 147 142.738C147.454 143.05 147.77 143.391 147.95 143.762C148.041 143.951 148.106 144.153 148.143 144.36C148.173 144.526 148.188 144.694 148.191 144.863V144.993C148.159 145.608 147.903 146.17 147.423 146.679C146.944 147.188 146.221 147.443 145.255 147.443H144.156V150.556H142.441V142.27H144.94ZM144.94 146.141C145.415 146.141 145.774 146.008 146.015 145.744C146.252 145.492 146.382 145.159 146.378 144.815C146.378 144.5 146.265 144.196 146.058 143.957C145.844 143.701 145.472 143.573 144.94 143.573H144.155V146.141H144.94Z" fill="white"/>
<path d="M152.079 142.27V145.81H152.115L155.172 142.27H157.213L153.686 146.024L157.431 150.557H155.256L152.115 146.438H152.079V150.557H150.364V142.27H152.079Z" fill="white"/>
<path d="M164.256 142.27V143.738H160.922V145.608H163.953V146.969H160.922V149.086H164.256V150.554H159.206V142.27H164.256Z" fill="white"/>
<path d="M172.482 142.27V143.738H170.042V150.558H168.326V143.738H165.887V142.27H172.482Z" fill="white"/>
<path d="M181.155 142.27V145.61H184.586V142.27H186.301V150.556H184.586V146.969H181.155V150.556H179.44V142.27H181.155Z" fill="white"/>
<path d="M193.5 142.27L196.859 150.556H194.926L194.213 148.697H190.722L190.009 150.556H188.173L191.544 142.27H193.5ZM193.706 147.324L192.461 143.938H192.437L191.266 147.324H193.706Z" fill="white"/>
<path d="M205.508 142.27V150.556H203.793V143.631H200.446V150.556H198.731V142.27H205.508Z" fill="white"/>
<path d="M209.76 142.27V146.531L209.724 148.544H209.76L210.364 147.336L213.323 142.27H215.377V150.556H213.662V146.283L213.699 144.284H213.663L213.082 145.537L210.098 150.556H208.044V142.27H209.76Z" fill="white"/>
<path d="M223.845 142.27V143.738H221.405V150.558H219.688V143.738H217.247V142.27H223.845Z" fill="white"/>
<path d="M227.435 142.27V145.81H227.471L230.524 142.27H232.568L229.039 146.024L232.784 150.557H230.61L227.469 146.438H227.435V150.557H225.72V142.27H227.435Z" fill="white"/>
<path d="M241.355 143.259C242.147 143.98 242.543 145.031 242.543 146.413C242.543 147.794 242.147 148.844 241.355 149.561C240.561 150.279 239.576 150.638 238.401 150.638C237.225 150.638 236.241 150.279 235.447 149.561C234.655 148.844 234.259 147.794 234.259 146.413C234.259 145.032 234.655 143.98 235.447 143.259C236.24 142.538 237.224 142.177 238.401 142.177C239.578 142.177 240.562 142.538 241.355 143.259ZM238.002 143.39C237.853 143.411 237.707 143.449 237.567 143.503C237.189 143.645 236.845 143.931 236.534 144.36C236.224 144.79 236.069 145.475 236.07 146.414C236.07 147.355 236.225 148.039 236.534 148.467C236.844 148.896 237.189 149.182 237.567 149.326C237.707 149.38 237.853 149.417 238.002 149.438C238.266 149.478 238.535 149.478 238.8 149.438C238.948 149.417 239.094 149.38 239.234 149.326C239.613 149.184 239.957 148.898 240.267 148.467C240.577 148.037 240.732 147.353 240.732 146.414C240.732 145.475 240.577 144.791 240.267 144.36C239.957 143.93 239.613 143.644 239.234 143.503C239.094 143.449 238.948 143.411 238.8 143.39C238.535 143.351 238.266 143.351 238.002 143.39Z" fill="white"/>
<path d="M247.557 142.27C247.7 142.27 247.89 142.281 248.119 142.3C248.358 142.321 248.594 142.363 248.825 142.425C249.221 142.54 249.584 142.742 249.889 143.016C250.211 143.3 250.372 143.734 250.372 144.318C250.372 144.776 250.281 145.137 250.1 145.4C249.945 145.638 249.742 145.842 249.502 145.997C249.418 146.05 249.329 146.096 249.237 146.134C249.148 146.169 249.067 146.198 248.995 146.222V146.246C249.472 146.311 249.914 146.53 250.251 146.871C250.598 147.213 250.771 147.664 250.771 148.224C250.77 148.357 250.76 148.489 250.74 148.621C250.717 148.768 250.679 148.913 250.626 149.052C250.472 149.431 250.162 149.776 249.695 150.087C249.228 150.398 248.479 150.554 247.449 150.555H244.779V142.27H247.557ZM246.493 145.632H247.327C247.697 145.632 247.973 145.571 248.154 145.448C248.313 145.35 248.444 145.214 248.535 145.052C248.58 144.975 248.61 144.891 248.625 144.804C248.636 144.737 248.642 144.67 248.643 144.602C248.642 144.537 248.636 144.472 248.625 144.407C248.613 144.331 248.591 144.258 248.559 144.188C248.494 144.03 248.366 143.888 248.172 143.762C247.979 143.635 247.673 143.574 247.254 143.574H246.494L246.493 145.632ZM246.493 149.253H247.448C247.947 149.253 248.323 149.145 248.577 148.928C248.7 148.826 248.798 148.698 248.863 148.554C248.929 148.409 248.961 148.252 248.957 148.093C248.957 147.762 248.875 147.517 248.709 147.359C248.555 147.209 248.366 147.096 248.16 147.03C248.025 146.985 247.885 146.957 247.743 146.947C247.61 146.939 247.511 146.935 247.447 146.935H246.493V149.253Z" fill="white"/>
</g>
<defs>
<clipPath id="clip0_748_147">
<rect width="245.333" height="48" fill="white" transform="translate(7.33398 106)"/>
</clipPath>
</defs>
</svg>
