<svg width="260" height="260" viewBox="0 0 260 260" fill="none" xmlns="http://www.w3.org/2000/svg">
<path fill-rule="evenodd" clip-rule="evenodd" d="M196.063 111.973C197.109 100.576 187.078 92.0266 178.215 87.1643C174.912 85.4086 171.448 83.9846 167.936 82.6824C152.218 77.2788 133.742 75.3914 116.185 77.5275C100.01 79.7514 84.2921 83.6042 71.96 94.8357C66.064 100.327 62.5566 108.579 65.4365 116.499C69.1969 126.136 79.2328 132.549 88.1741 136.28C114.633 147.009 150.622 146.634 176.249 134.353C185.025 129.911 194.847 122.537 196.063 111.973ZM140.685 130.713C142.792 126.855 144.985 122.841 144.065 118.094C143.398 116.333 141.515 115.036 139.638 114.787C135.104 114.2 130.811 115.445 126.773 116.616L126.722 116.631C126.242 116.792 125.762 116.953 125.282 117.113C114.887 120.594 104.452 124.087 95.6219 131.257C95.2035 131.632 94.9068 132.178 95.116 132.764C95.3899 133.179 95.8076 133.478 96.2884 133.602C106.738 136.732 117.569 138.396 128.473 138.548C133.45 139.045 137.585 135.695 140.095 131.798C140.289 131.437 140.486 131.076 140.685 130.713ZM190.42 113.022C192.011 105.984 187.326 100.156 182.145 95.8843C181.766 95.6295 181.397 95.3458 181.027 95.0613C179.932 94.2188 178.828 93.3698 177.417 93.2459C177.062 93.374 176.746 93.5905 176.498 93.875C174.493 98.3179 172.319 102.844 169.979 107.243C164.92 117.006 159.15 126.643 151.546 135.236L151.42 135.821C151.488 136.234 151.868 136.252 152.188 136.267C152.257 136.27 152.323 136.273 152.383 136.28C157.618 135.788 162.452 134.172 167.237 132.573L167.556 132.466C176.541 128.95 187.827 123.415 190.42 113.022ZM109.034 85.4477L109.204 84.8186C108.948 84.3432 108.335 84.3492 107.798 84.3544C107.723 84.3551 107.65 84.3558 107.579 84.3553C102.107 85.2523 96.7423 86.7133 91.5696 88.7152C82.9542 92.3583 72.6313 97.7278 70.0822 107.784C68.4915 115.494 74.008 121.99 80.1084 126.014C80.4312 126.158 80.7603 126.383 81.0946 126.612C82.0148 127.241 82.9751 127.898 83.9564 126.975C90.8107 112.519 98.0397 97.9765 109.034 85.4477ZM164.299 87.0791C164.114 87.0027 163.928 86.9258 163.752 86.8327C153.264 83.8968 142.226 82.1411 130.516 82.2192C125.083 82.3021 121.157 87.3741 118.938 91.6901C117.265 95.1235 115.343 99.2299 116.764 103.17C117.119 103.79 117.594 104.332 118.161 104.764C118.729 105.196 119.377 105.51 120.067 105.687C124.568 106.676 128.734 105.486 132.809 104.323C133.918 104.007 135.02 103.692 136.121 103.424C146.239 100.113 156.144 96.3427 164.798 89.554C164.869 89.4667 164.952 89.3791 165.035 89.2896C165.392 88.9099 165.78 88.4966 165.508 87.9203C165.239 87.4677 164.773 87.2751 164.299 87.0791Z" fill="white"/>
<path fill-rule="evenodd" clip-rule="evenodd" d="M178.058 177.135V163.333C178.058 160.822 177.241 157.822 172.527 157.827H155.082V183.334H172.527C175.597 183.334 178.058 181.529 178.058 177.135ZM170.129 162.504C171.617 162.504 172.464 163.47 172.464 164.865V175.999C172.464 177.033 172.298 178.335 170.129 178.447H160.618V162.504H170.129Z" fill="white"/>
<path d="M42.333 157.822H47.8642V167.874H60.24V157.822H65.7711V183.329H60.24V172.916H47.8642V183.329H42.333V157.822ZM75.2524 157.822L82.1846 168.244L89.0341 157.822H95.7523L84.9478 174.126V183.329H79.4166V174.126L68.5343 157.822H75.2524ZM126.799 157.822H144.623C147.162 157.822 149.624 158.178 149.551 163.333V183.334H144.02V165.167C144.02 162.968 143.757 162.504 142.04 162.504H132.33V183.334H126.799V157.822ZM212.802 157.827H218.333V183.334H212.802V157.827ZM98.5154 183.329H116.34C119.886 183.329 121.341 182.3 121.268 177.174V157.822H115.736V176.028C115.736 178.213 115.474 178.476 113.752 178.476H104.042V157.822H98.5106L98.5154 183.329Z" fill="white"/>
<path fill-rule="evenodd" clip-rule="evenodd" d="M207.271 183.333H201.739V175.999H189.12V183.333H183.589V163.333C183.589 159.797 185.015 157.822 189.12 157.822H207.271V183.333ZM191.353 162.509H201.74L201.744 171.019H189.125V165.172C189.125 163.046 189.607 162.612 191.353 162.509Z" fill="white"/>
</svg>
