<svg width="260" height="260" viewBox="0 0 260 260" fill="none" xmlns="http://www.w3.org/2000/svg">
<g clip-path="url(#clip0_748_129)">
<path d="M127.527 111.736H115.146V94.0547H118.82V108.226H125.402V94.0547H129.078V108.226H131.056L130.58 113.843H127.527V111.736ZM133.631 111.736H146.348V108.276H137.283V104.564H145.154V101.102H137.283V97.5164H146.227V94.0547H133.631V111.736ZM149.614 111.736H153.288V104.638H160.063V111.736H163.734V94.0547H160.063V101.052H153.288V94.0547H149.614V111.736ZM171.135 111.736H174.81V97.6424H179.392V94.0547H166.553V97.6424H171.135V111.736ZM182.203 111.736H185.878V106.433H188.667C192.412 106.433 195.419 104.31 195.419 100.219C195.419 96.5569 193.009 94.0564 189.025 94.0564H182.203V111.736ZM185.878 102.973V97.5668H188.714C190.552 97.5668 191.699 98.5011 191.699 100.244C191.699 101.81 190.625 102.974 188.788 102.974L185.878 102.973ZM119.034 165.231H122.707V151.136H127.79V147.55H113.953V151.136H119.033L119.034 165.231ZM144.987 147.551H141.574L134.228 159.145V147.551H130.604V165.231H134.061L141.363 153.638V165.231H144.987V147.551ZM152.67 151.062H159.415V147.551H148.995V165.231H152.67V151.062ZM162.016 165.231H165.687V159.928H168.477C172.225 159.928 175.229 157.805 175.229 153.715C175.229 150.05 172.819 147.551 168.838 147.551H162.016V165.231ZM165.687 156.466V151.06H168.527C170.362 151.06 171.505 151.996 171.505 153.737C171.505 155.305 170.435 156.466 168.598 156.466H165.687ZM208.629 131.201H211.02L214.975 138.464H219.1L214.001 129.408L218.931 120.792H214.808L211.042 127.596H208.629M133.742 138.465H137.343V127L141.993 134.477H142.089L146.79 126.924V138.465H150.438V120.785H146.479L142.088 128.262L137.7 120.785H133.741L133.742 138.465ZM161.756 130.132L157.223 120.785H153.123L159.801 134.02C159.134 135.106 158.37 135.435 157.702 135.435C157.056 135.435 156.388 135.284 155.721 134.854L154.289 137.709C155.341 138.339 156.462 138.743 157.893 138.743C160.23 138.743 161.9 137.529 163.354 134.449L169.771 120.784H165.789L161.756 130.132ZM171.706 138.465H175.378V133.163H178.17C181.915 133.163 184.919 131.041 184.919 126.949C184.919 123.287 182.509 120.787 178.529 120.787H171.706V138.465ZM175.379 129.702V124.297H178.219C180.057 124.297 181.2 125.232 181.2 126.974C181.2 128.541 180.127 129.704 178.29 129.704L175.379 129.702ZM187.15 129.626C187.15 134.755 190.799 138.769 195.713 138.769C198.935 138.769 200.842 137.707 202.559 135.763L200.222 133.111C198.909 134.375 197.742 135.182 195.831 135.182C192.968 135.182 190.99 132.654 190.99 129.624C190.99 126.544 193.016 124.067 195.831 124.067C197.742 124.067 198.835 124.801 200.126 126.035L202.321 123.36C200.769 121.743 199.005 120.481 195.857 120.481C190.728 120.481 187.15 124.6 187.15 129.626ZM235.797 120.787H232.383L225.534 132.125V120.787H221.908V138.469H225.369L232.167 126.874V138.469H235.795L235.797 120.787ZM253.69 120.784H250.279L243.429 132.123V120.784H239.804V138.467H243.262L250.063 126.872V138.467H253.69V120.784ZM243.05 115.606C243.378 118.029 244.858 119.444 247.053 119.444C249.251 119.444 250.729 118.029 251.063 115.606L248.938 115.203C248.63 116.238 248.057 116.893 247.053 116.893C246.054 116.893 245.481 116.236 245.172 115.203L243.05 115.606ZM126.699 136.195H118.334L117.459 138.469H113.716L120.872 120.659H124.258L131.414 138.469H127.575L126.699 136.195ZM125.382 132.774L122.514 125.331L119.65 132.774H125.382ZM208.668 120.784H204.996V138.464H208.668V120.784ZM207.38 131.27H211.299V127.52H207.38V131.27Z" fill="white"/>
<path d="M26.0748 145.224C26.892 141.698 25.2278 139.437 24.1559 136.799C23.5074 135.207 23.3553 134.322 23.0012 133.266C22.5182 131.812 21.3867 130.453 20.6886 129.988C20.3147 129.739 19.6762 129.416 19.0873 130.012C18.452 130.658 18.4984 132.872 19.8879 135.389C20.4537 136.412 21.3768 136.96 21.6183 139.474C21.8664 142.051 20.2287 143.107 20.2287 143.107C20.2287 143.107 20.6092 141.856 19.8879 141.264C15.2494 137.461 14.634 131.489 14.7829 128.602C14.8855 126.61 15.9773 123.757 16.1725 121.355C16.4371 118.067 15.3288 117.848 15.1733 118.104C14.7994 118.74 13.6348 122.192 12.8474 124.612C12.1427 126.799 11.352 129.638 11.3288 131.779C11.2957 133.918 11.7622 135.843 11.8284 136.543C10.9185 135.308 10.6406 133.562 10.5315 131.479C10.366 128.367 11.2924 125.591 11.7324 123.296C12.2486 120.591 11.8912 119.376 11.2329 119.995C10.8755 120.332 10.2601 122.028 9.24775 125.009C8.86727 126.136 8.40407 127.522 8.07983 129.147C7.79199 130.591 7.74237 133.239 7.85486 134.807C7.10714 133.999 6.8987 131.775 7.00787 130.53C7.10382 129.389 7.66627 126.953 8.00706 125.904C8.47356 124.453 8.04013 123.343 7.64312 123.589C7.43138 123.72 6.92848 124.11 5.74072 127.367C5.03601 129.315 4.56289 131.765 4.6853 134.305C4.88381 138.266 6.75643 142.778 9.83336 147.626C12.7316 152.179 19.0509 156.852 21.3867 157.926C23.8482 159.056 25.8103 157.549 26.3958 156.28C27.17 154.598 26.5745 152.771 26.194 151.513C25.9723 150.779 25.261 148.723 26.0715 145.227" fill="white"/>
<path d="M31.258 114.648C31.1222 114.793 29.9676 117.145 32.1909 119.998C34.4143 122.852 40.1446 122.367 40.3796 121.307C41.8121 112.552 31.3902 114.504 31.258 114.648ZM36.32 116.119C37.157 115.688 38.1562 115.984 38.5467 116.781C38.9369 117.576 38.5732 118.561 37.736 118.992C36.8957 119.423 35.8998 119.127 35.5128 118.333C35.1191 117.539 35.483 116.549 36.32 116.122" fill="white"/>
<path d="M23.6793 111.678C27.3419 110.668 35.1333 108.844 38.9514 111.866C40.4799 113.077 42.2003 113.707 43.12 112.7C44.0697 111.661 43.58 109.006 40.2053 108.316C38.1872 107.902 37.5817 107.428 37.2575 106.593C36.4435 104.487 39.3451 102.058 42.9645 100.658C42.9645 100.658 38.7429 100.379 31.666 105.288C30.3558 106.196 29.0656 106.533 28.3443 106.277C27.4211 105.944 27.6429 104.625 28.0696 103.767C29.3798 101.149 32.1292 97.6938 37.5949 95.1097C37.714 95.0559 37.6545 94.8742 37.5287 94.9112C33.9951 95.9206 23.8182 99.5646 20.9894 108.558C20.3443 110.608 21.7008 112.223 23.6793 111.678Z" fill="white"/>
<path d="M80.0531 111.678C76.3907 110.668 68.5991 108.844 64.781 111.866C63.2525 113.077 61.5321 113.707 60.6124 112.7C59.6627 111.661 60.1524 109.006 63.5271 108.316C65.5454 107.902 66.1542 107.428 66.4751 106.593C67.2889 104.487 64.3873 102.058 60.7679 100.658C60.7679 100.658 64.9895 100.379 72.0664 105.288C73.3766 106.196 74.6668 106.533 75.3881 106.277C76.3113 105.944 76.0895 104.625 75.6628 103.767C74.3526 101.149 71.6032 97.6938 66.1377 95.1097C66.0217 95.0559 66.0779 94.8742 66.2037 94.9112C69.7373 95.9206 79.9141 99.5646 82.743 108.558C83.3882 110.608 82.0318 112.223 80.0566 111.678" fill="white"/>
<path d="M16.4601 112.066C16.6123 112.15 16.7876 111.995 16.7314 111.827C15.6594 108.439 19.59 103.533 20.9762 101.945C21.0325 101.881 20.9497 101.793 20.8803 101.84C16.1888 105.239 12.2351 103.129 12.2351 103.129C16.5461 102.698 18.5511 101.07 19.1962 100.407C19.2591 100.343 19.1863 100.242 19.1069 100.276C15.2558 101.898 11.4014 99.9191 11.4014 99.9191C15.6793 99.7307 17.1119 98.9433 17.8034 98.3142C18.0945 98.0517 18.3195 97.7388 18.465 97.51C18.5643 97.3519 18.4849 97.1466 18.3096 97.0928C13.4229 95.5854 9.17805 90.296 7.19956 94.1015C4.52298 99.2563 10.3758 108.809 16.4601 112.066Z" fill="white"/>
<path d="M63.034 160.422C56.8339 160.321 52.5526 156.886 51.9406 156.368C51.8942 156.331 51.8347 156.331 51.7884 156.368C51.1762 156.886 46.8884 160.324 40.6849 160.422C40.6121 160.422 40.5461 160.466 40.5196 160.536C40.1954 161.408 39.5369 167.835 51.8612 167.835C64.1854 167.835 63.5435 161.455 63.2094 160.543C63.1829 160.469 63.1102 160.419 63.0307 160.419" fill="white"/>
<path d="M38.9134 98.6199C39.8001 98.4046 41.8316 97.9638 45.0937 97.5769C48.5413 97.1697 51.7936 97.2269 51.8596 97.2303H51.8729C51.9424 97.2303 55.1913 97.1697 58.6389 97.5769C61.901 97.9638 63.9324 98.4012 64.8191 98.6199C64.9581 98.6536 65.0474 98.4752 64.9416 98.3777C60.3163 94.1482 53.9771 93.3979 51.8664 93.3945C49.7522 93.3945 43.4165 94.1449 38.7877 98.3777C38.6819 98.4752 38.7712 98.6536 38.9102 98.6199" fill="white"/>
<path d="M97.9847 127.367C96.797 124.11 96.294 123.72 96.0823 123.589C95.6853 123.34 95.2518 124.453 95.7185 125.904C96.0592 126.957 96.6217 129.389 96.7175 130.53C96.8234 131.775 96.6182 133.999 95.8705 134.807C95.983 133.242 95.9335 130.591 95.6455 129.147C95.3213 127.522 94.8615 126.136 94.4778 125.009C93.4653 122.028 92.8499 120.332 92.4926 119.995C91.8342 119.376 91.4769 120.591 91.9929 123.296C92.4331 125.591 93.3594 128.367 93.1941 131.479C93.0848 133.562 92.8069 135.308 91.8971 136.543C91.9666 135.846 92.4296 133.918 92.3966 131.779C92.3701 129.638 91.5794 126.795 90.878 124.612C90.094 122.192 88.9293 118.74 88.5521 118.104C88.3966 117.848 87.2883 118.067 87.5531 121.355C87.7448 123.754 88.8368 126.61 88.9393 128.602C89.0915 131.489 88.4728 137.461 83.8375 141.264C83.1163 141.856 83.4967 143.108 83.4967 143.108C83.4967 143.108 81.8591 142.048 82.1038 139.474C82.3453 136.957 83.2718 136.412 83.8375 135.389C85.2272 132.872 85.2734 130.658 84.6382 130.012C84.0492 129.416 83.4108 129.739 83.0368 129.988C82.3388 130.453 81.2073 131.815 80.7241 133.266C80.3736 134.322 80.2179 135.207 79.5729 136.799C78.5009 139.433 76.8368 141.694 77.654 145.224C78.4645 148.72 77.7532 150.776 77.5315 151.509C77.151 152.771 76.5555 154.598 77.3297 156.277C77.9152 157.545 79.8806 159.053 82.3388 157.922C84.6745 156.849 90.9939 152.175 93.8921 147.623C96.969 142.774 98.8416 138.262 99.0401 134.302C99.1659 131.765 98.6861 129.312 97.9814 127.367" fill="white"/>
<path d="M63.3564 121.308C63.5914 122.368 69.3217 122.855 71.5451 119.999C73.7685 117.146 72.6138 114.794 72.478 114.649C72.3458 114.501 61.9207 112.553 63.3564 121.308ZM68.22 118.33C67.833 119.124 66.8338 119.42 65.9968 118.993C65.1596 118.566 64.7991 117.576 65.1861 116.782C65.5766 115.985 66.5758 115.689 67.4127 116.119C68.2497 116.55 68.6137 117.539 68.22 118.33Z" fill="white"/>
<path d="M86.9998 111.826C86.9468 111.994 87.119 112.149 87.271 112.065C93.3555 108.808 99.205 99.2554 96.5284 94.1006C94.5532 90.2951 90.3051 95.5844 85.4216 97.0885C85.2431 97.1423 85.1668 97.3476 85.2661 97.5057C85.4118 97.7345 85.6368 98.0474 85.9278 98.3099C86.6193 98.9391 88.0519 99.7264 92.3298 99.9148C92.3298 99.9148 88.4754 101.893 84.6243 100.271C84.5416 100.238 84.4721 100.339 84.5349 100.399C85.1833 101.062 87.185 102.694 91.4961 103.121C91.4961 103.121 87.539 105.234 82.8509 101.833C82.7814 101.782 82.6987 101.873 82.7549 101.937C84.1413 103.529 88.0685 108.431 86.9998 111.823" fill="white"/>
<path d="M61.3833 105.118C58.1477 102.006 54.8293 101.131 51.8714 101.131H51.8614C48.9038 101.131 45.5852 102.006 42.3495 105.118C42.2801 105.185 42.3396 105.31 42.4356 105.286C43.6398 104.967 47.7456 103.957 51.8682 103.94C55.9905 103.957 60.0996 104.967 61.3008 105.286C61.3933 105.31 61.4563 105.189 61.3868 105.118" fill="white"/>
<path d="M80.1348 115.79C80.0753 115.743 79.9959 115.803 80.0158 115.881C80.8163 118.872 80.0389 122.368 77.6567 123.25C73.5641 124.764 68.0456 124.663 64.5452 127.254C61.4781 129.525 62.4211 135.124 62.8181 136.91C62.8413 137.011 62.9835 137.001 63.0001 136.9C63.2283 135.252 64.2738 132.738 65.3557 132.032C65.2332 133.606 65.4649 136.789 67.0431 139.659C67.4534 140.41 67.9563 141.281 68.5186 142.17C68.7635 142.536 69.6205 143.889 69.8818 144.276C69.0646 146.298 65.7594 146.799 64.383 146.126C65.4187 148.401 69.015 148.152 70.1068 147.678C69.6833 149.165 67.0464 150.231 65.0547 150.013C65.0547 150.013 65.9447 151.567 69.1275 150.978C68.0653 152.301 66.1267 152.725 64.135 152.257C64.4425 153.189 65.6534 153.859 66.2259 153.889C65.2929 154.757 63.311 155.104 61.8421 155.104C58.7982 155.104 55.7446 153.505 54.3449 151.436C52.6907 148.993 52.9885 145.177 54.6991 143.182C56.2208 141.409 57.4848 140.659 59.4964 140.41C60.6114 140.272 61.2499 139.831 61.2499 139.064C61.2499 138.175 60.3566 137.624 59.5922 137.624C58.408 137.624 57.0978 137.499 55.4996 138.455C54.4641 139.074 52.9057 139.908 51.867 139.959C50.828 139.908 49.2698 139.074 48.2342 138.455C46.6362 137.499 45.3227 137.624 44.1416 137.624C43.3773 137.624 42.4839 138.175 42.4839 139.064C42.4839 139.831 43.1226 140.272 44.2375 140.41C46.249 140.659 47.5129 141.409 49.0349 143.182C50.7453 145.174 51.043 148.99 49.3888 151.436C47.9861 153.505 44.9323 155.104 41.8917 155.104C40.4227 155.104 38.441 154.757 37.5081 153.889C38.0771 153.859 39.2913 153.189 39.599 152.257C37.6073 152.725 35.6717 152.301 34.6064 150.978C37.7891 151.57 38.6793 150.013 38.6793 150.013C36.6874 150.231 34.0505 149.165 33.627 147.678C34.7189 148.152 38.3153 148.401 39.3508 146.126C37.9745 146.799 34.6692 146.295 33.852 144.276C34.1135 143.889 34.9704 142.536 35.2152 142.17C35.7776 141.285 36.2806 140.41 36.6908 139.659C38.269 136.789 38.5038 133.603 38.3781 132.032C39.46 132.738 40.5055 135.252 40.7337 136.9C40.7502 137.005 40.8927 137.015 40.9157 136.91C41.3094 135.124 42.2556 129.525 39.1888 127.254C35.6884 124.663 30.1696 124.767 26.0771 123.25C23.6949 122.365 22.9207 118.872 23.7181 115.881C23.7379 115.807 23.6585 115.746 23.599 115.79C22.5535 116.567 19.8438 120.174 21.0878 123.892C22.2954 127.499 25.9613 128.852 29.1672 130.464C32.7438 132.26 34.4012 135.82 32.5585 140.497C31.7115 142.651 30.4939 145.353 30.4939 148.091C30.4939 153.983 36.3731 157.432 40.4227 157.654C48.1117 158.068 51.814 152.671 51.8635 152.597C51.9132 152.671 55.6156 158.068 63.3078 157.654C67.3574 157.435 73.2366 153.986 73.2366 148.091C73.2366 145.353 72.0192 142.651 71.1722 140.497C69.3293 135.82 70.9867 132.26 74.5633 130.464C77.7692 128.852 81.4351 127.503 82.6427 123.892C83.89 120.174 81.1771 116.567 80.1316 115.79" fill="white"/>
</g>
<defs>
<clipPath id="clip0_748_129">
<rect width="250.667" height="74.6667" fill="white" transform="translate(4.66699 93)"/>
</clipPath>
</defs>
</svg>
