<svg width="260" height="260" viewBox="0 0 260 260" fill="none" xmlns="http://www.w3.org/2000/svg">
<g clip-path="url(#clip0_748_102)">
<path d="M130.334 196.333C148.141 196.333 164.882 189.398 177.474 176.807C190.065 164.215 197 147.474 197 129.667C197 111.86 190.065 95.1183 177.474 82.5265C164.882 69.9346 148.141 63 130.334 63C93.5733 63 63.667 92.9063 63.667 129.667C63.667 147.474 70.6016 164.215 83.1935 176.807C95.7853 189.398 112.527 196.333 130.334 196.333Z" fill="black"/>
<path d="M65.9746 129.667C65.9746 112.476 72.6693 96.3136 84.8255 84.1575C96.9816 72.0011 113.144 65.3066 130.335 65.3066C147.525 65.3066 163.688 72.0011 175.844 84.1575C188 96.3136 194.694 112.476 194.694 129.667C194.694 165.155 165.823 194.027 130.335 194.027C113.144 194.027 96.9816 187.332 84.8255 175.176C72.6693 163.019 65.9746 146.857 65.9746 129.667Z" fill="white"/>
<path d="M130.333 67.9609C96.2538 67.9609 68.626 95.5887 68.626 129.668C68.626 163.748 96.2538 191.376 130.333 191.376C164.413 191.376 192.041 163.748 192.041 129.668C192.041 95.5887 164.413 67.9609 130.333 67.9609Z" fill="black"/>
<path d="M130.334 169.083C108.565 169.083 90.917 151.436 90.917 129.667C90.917 107.898 108.565 90.25 130.334 90.25C152.103 90.25 169.75 107.898 169.75 129.667C169.75 151.436 152.103 169.083 130.334 169.083Z" fill="white"/>
<path d="M93.4541 129.666H130.335V92.7852C109.966 92.7852 93.4541 109.298 93.4541 129.666ZM130.335 129.666V166.547C150.703 166.547 167.216 150.035 167.216 129.666H130.335Z" fill="#00ACEC"/>
<path d="M101.367 92.0585C100.06 90.7885 98.0407 90.4058 96.1446 91.5813C96.5068 90.6428 96.3589 89.6849 96.1666 89.1564C95.3497 87.6669 95.0646 87.4805 94.3914 86.9156C92.212 85.0869 89.9185 86.6481 88.2781 88.603L80.3525 98.0481L92.8114 108.503L101.17 98.5421C103.079 96.2663 103.375 94.0099 101.367 92.0585ZM132.398 87.5704L136.677 76.2295V87.5704H139.929V71.3281H135.043L130.599 82.9573H130.645L126.201 71.3281H121.315V87.5704H124.567V76.2295L128.846 87.5704H132.398ZM176.118 94.3276L169.996 102.995L179.487 98.4894L182 101.593L167.061 108.835L164.112 105.163L169.988 96.5712L169.953 96.5281L160.327 100.489L157.349 96.841L167.539 83.7341L170.052 86.8375L163.671 95.1846L173.422 90.9982L176.118 94.3276Z" fill="white"/>
<path d="M90.0114 90.9409C90.5629 90.2835 91.8093 90.3105 92.6109 90.9829C93.4922 91.7225 93.4943 92.7709 92.9024 93.476L88.1958 99.085L85.251 96.6139L90.0114 90.9409ZM98.3855 97.5578L93.4232 103.472L90.3115 100.86L95.3139 94.8986C95.8788 94.2254 97.1383 94.0294 97.9878 94.7424C98.9493 95.5489 99.0445 96.7725 98.3855 97.5578Z" fill="black"/>
</g>
<defs>
<clipPath id="clip0_748_102">
<rect width="133.333" height="133.333" fill="white" transform="translate(63.667 63)"/>
</clipPath>
</defs>
</svg>
