<svg width="260" height="260" viewBox="0 0 260 260" fill="none" xmlns="http://www.w3.org/2000/svg">
<path d="M31.1865 119.34V130.068L60.0999 126.885V115.273L31.1865 119.34ZM40.4133 130.721V167.483H50.9988V129.638L40.4133 130.721ZM64.0048 114.724V167.483H75.1589V113.155L64.0048 114.724ZM77.237 112.862V124.999L93.3435 123.225V110.597L77.237 112.862ZM77.237 134.032V146.389L87.8099 145.812V133.121L77.237 134.032ZM77.237 155.297V167.483H93.3435V154.811L77.237 155.297ZM134.997 104.719V167.483H149.619V102.661L134.997 104.719ZM152.35 102.277V116.714L173.659 114.369V99.2786L152.35 102.277ZM152.35 127.572V142.276L166.317 141.513V126.375L152.35 127.572ZM152.35 153.024V167.483H173.659V152.38L152.35 153.024ZM97.6052 109.996V167.483H110.311V108.208L97.6052 109.996ZM112.683 154.227V167.482H131.126V153.669L112.683 154.227ZM221.433 98.5689C216.811 94.1986 210.036 92.406 202.624 93.4717V109.484C205.625 109.317 208.057 110.432 209.141 112.677C210.852 116.216 209.087 121.525 204.923 126.445C198.496 134.036 181.405 149.575 181.405 149.575L205.939 148.767C220.93 134.108 226.314 125.209 227.28 114.104C227.787 108.228 225.657 102.567 221.433 98.5689ZM228.144 167.483V150.728L178.381 152.228M178.381 152.228L178.386 167.482H228.144M199.764 93.8312C185.307 96.9129 178.208 107.559 179.027 124.929L194.441 123.56C193.739 113.747 196.738 111.419 199.771 110.139L199.764 93.8312Z" fill="white"/>
</svg>
