<svg width="260" height="260" viewBox="0 0 260 260" fill="none" xmlns="http://www.w3.org/2000/svg">
<path d="M90.011 165.072C89.091 164.008 87.9314 163.202 86.8868 162.274C84.2083 159.891 81.5609 157.476 79.0477 154.922C78.9255 154.796 78.7842 154.685 78.7842 154.489C80.5523 153.894 82.3204 153.296 84.0885 152.7C88.54 156.933 93.1447 160.988 97.9939 164.774C107.781 172.414 118.076 179.293 129.118 185.062C129.631 185.329 130.002 185.317 130.508 185.057C139.296 180.515 147.58 175.193 155.546 169.377C162.25 164.483 168.652 159.234 174.641 153.504C175.01 153.149 175.465 152.873 175.329 152.204C174.931 150.254 174.639 148.283 174.215 146.341C170.997 131.611 166.261 117.375 159.864 103.682C159.253 102.373 158.496 101.128 158.036 99.75C159.087 98.2612 160.137 96.7724 161.189 95.2836C161.603 95.2906 161.615 95.6711 161.742 95.9098C163.884 99.9296 165.803 104.056 167.576 108.246C167.712 108.567 167.875 108.877 168.026 109.193C168.057 109.312 168.077 109.437 168.125 109.55C170.003 114.14 171.735 118.781 173.29 123.486C173.479 124.058 173.704 124.065 174.21 123.902C182.559 121.225 190.914 118.561 199.273 115.914C200.751 115.446 202.193 114.851 203.731 114.57C203.717 114.86 203.458 114.974 203.286 115.142C196.24 121.931 189.184 128.709 182.147 135.51C181.644 135.997 181.448 135.881 181.107 135.373C178.863 132.02 176.589 128.685 174.32 125.346C174.176 125.136 174.093 124.85 173.721 124.788C176.179 132.334 178.247 139.925 179.78 147.652C180.197 149.748 180.53 151.859 180.928 153.96C181.026 154.482 180.791 154.794 180.453 155.13C173.592 161.954 166.131 168.085 158.306 173.799C158.067 173.974 157.83 174.149 157.564 174.345C157.976 174.503 158.268 174.302 158.563 174.194C162.145 172.891 165.724 171.582 169.303 170.273C170.357 169.888 170.369 169.883 170.559 170.98C171.345 175.562 172.111 180.149 172.907 184.729C173.518 188.233 174.167 191.731 174.792 195.233C175.075 196.819 175.348 198.409 175.619 199.997C175.638 200.116 175.659 200.3 175.595 200.35C175.441 200.468 175.468 200.194 175.343 200.187C175.204 199.953 175.082 199.707 174.921 199.489C169.03 191.502 163.129 183.521 157.262 175.517C156.84 174.94 156.615 175.009 156.246 175.456C156.138 175.467 156.011 175.456 156.014 175.619L156.028 175.609C155.673 175.545 155.484 175.829 155.252 175.992C147.365 181.512 139.197 186.574 130.548 190.864C130.05 191.112 129.664 191.119 129.154 190.868C120.364 186.52 112.074 181.368 104.077 175.741C103.833 175.569 103.564 175.43 103.308 175.276C103.262 175.252 103.214 175.229 103.169 175.205C103.195 175.248 103.219 175.292 103.246 175.335C104.448 176.937 105.838 178.388 107.136 179.91C108.682 181.723 110.246 183.521 111.83 185.303C112.196 185.714 112.11 185.865 111.655 186.102C104.424 189.833 97.2033 193.581 89.9799 197.325C88.3028 198.194 86.6281 199.069 84.9438 199.927C84.721 200.04 84.5126 200.312 84.1987 200.116C84.3161 199.927 84.4191 199.726 84.5509 199.546C90.4686 191.514 96.3839 183.481 102.318 175.46C102.673 174.98 102.706 174.749 102.167 174.364C98.1904 171.525 94.3283 168.538 90.574 165.417C90.4039 165.275 90.2602 165.081 90.0038 165.079L90.011 165.072Z" fill="#B68A1E"/>
<path d="M145.808 93.3409C140.692 93.0928 135.582 92.7359 130.458 92.8139C129.847 92.8234 129.712 92.6367 129.715 92.0601C129.732 81.8297 129.727 71.5994 129.724 61.369C129.995 61.2367 129.969 61.5037 130.024 61.6101C135.252 72.0673 140.474 82.5292 145.695 92.9912C145.75 93.0999 145.772 93.2228 145.81 93.3386L145.808 93.3409Z" fill="#B68A1E"/>
<path d="M55.71 114.43C58.7215 115.383 61.7355 116.326 64.747 117.287C71.5679 119.464 78.3793 121.666 85.2098 123.81C85.9093 124.03 85.9261 124.335 85.7632 124.866C85.0421 127.203 84.2898 129.531 83.6118 131.88C82.9361 134.225 82.3396 136.59 81.7047 138.946C81.6663 139.088 81.5993 139.22 81.5465 139.36C80.6122 138.485 79.6682 137.623 78.7458 136.737C71.2373 129.512 63.7312 122.283 56.2275 115.052C56.0334 114.865 55.777 114.723 55.71 114.43Z" fill="#B68A1E"/>
<path d="M108.071 139.828C109.238 144.464 110.79 148.907 114.705 152.171C115.009 151.715 114.987 151.339 114.803 150.89C114.036 149.04 114.288 147.39 115.9 146.055C116.087 145.901 116.159 145.693 116.255 145.49C117.252 143.415 118.598 142.645 120.903 142.848C121.123 142.867 121.296 142.786 121.485 142.73C121.921 142.6 122.359 142.484 122.819 142.47C124.132 142.425 124.089 142.423 124.125 141.08C124.192 138.398 124.221 135.709 124.451 133.036C124.554 131.826 124.391 130.597 124.693 129.401C124.803 128.969 124.602 128.775 124.152 128.73C123.15 128.628 122.141 128.636 121.138 128.543C118.327 128.286 115.517 128.021 112.692 127.927C112.304 127.915 112.105 127.747 112.108 127.324C112.122 125.45 112.127 123.576 112.105 121.704C112.101 121.246 112.297 121.175 112.695 121.177C114.669 121.191 116.645 121.184 118.622 121.184C118.897 121.184 119.173 121.184 119.458 121.184C119.149 120.031 118.965 118.913 118.231 117.928C117.601 117.082 117.508 116.021 117.958 114.997C118.102 114.669 118.004 114.366 117.942 114.047C117.613 112.353 118.186 110.997 119.633 110.058C119.858 109.912 120 109.723 120.131 109.51C120.412 109.059 120.711 108.577 121.197 108.366C122.132 107.96 122.611 107.161 123.193 106.417C125.232 103.81 128.011 102.867 131.202 103.456C134.533 104.07 136.703 106.143 137.518 109.404C138.347 112.715 137.048 116.155 134.058 118.044C133.749 118.24 133.689 118.436 133.67 118.755C133.629 119.457 133.788 120.14 133.823 120.832C133.85 121.347 134.233 121.177 134.492 121.18C137.733 121.189 140.975 121.187 144.217 121.187C145.002 121.187 145.788 121.213 146.572 121.177C147.046 121.156 147.175 121.324 147.171 121.778C147.149 123.602 147.151 125.424 147.171 127.248C147.175 127.728 146.974 127.91 146.505 127.938C144.272 128.078 142.034 128.184 139.808 128.404C138.205 128.562 136.588 128.546 134.995 128.82C134.664 128.877 134.557 128.973 134.583 129.281C134.602 129.529 134.631 129.784 134.595 130.03C134.468 130.909 134.652 131.651 135.465 132.154C135.548 132.206 135.632 132.287 135.668 132.374C136.171 133.565 137.158 134.319 138.15 135.073C138.249 135.149 138.359 135.243 138.4 135.352C138.85 136.533 139.887 137.167 140.807 137.921C141.423 138.424 141.876 139.055 141.929 139.889C141.95 140.222 142.202 140.409 142.403 140.631C143.687 142.03 143.869 143.361 143.023 145.058C142.971 145.164 142.944 145.299 142.956 145.414C143.129 147.021 142.063 147.917 140.946 148.754C140.644 148.98 140.484 149.269 140.287 149.552C139.478 150.708 138.464 151.54 136.967 151.62C136.916 151.623 136.861 151.608 136.816 151.62C136.502 151.71 136.109 151.233 135.922 151.589C135.759 151.904 136.064 152.294 136.234 152.625C136.955 154.014 138.282 154.496 140.223 154.099C143.747 153.378 146.131 151.19 147.937 148.267C149.413 145.878 150.319 143.264 150.999 140.565C151.059 140.324 151.121 140.083 151.212 139.731C151.953 140.409 152.489 141.151 152.935 141.95C154.212 144.235 154.854 146.667 154.995 149.297C155.149 152.147 154.856 154.896 153.91 157.583C153.62 158.41 153.239 159.197 152.822 159.969C152.58 160.418 152.384 160.565 151.95 160.147C151.464 159.676 150.908 159.275 150.379 158.849C150.264 158.757 150.132 158.629 150.002 158.622C149.648 158.603 148.761 160.173 148.912 160.518C149.384 161.602 149.363 162.732 148.956 163.793C148.412 165.213 147.044 165.506 145.726 165.849C144.619 166.137 143.642 165.906 142.707 165.329C142.537 165.225 142.403 165.105 142.166 165.23C139.403 166.69 136.497 167.893 133.996 169.81C132.59 170.887 131.305 172.086 130.184 173.449C129.923 173.766 129.739 173.941 129.386 173.508C127.046 170.627 124.072 168.55 120.747 166.917C118.416 165.771 116.042 164.701 113.955 163.127C112.434 161.98 111.106 160.645 110.031 159.088C109.654 158.542 109.405 158.554 108.948 158.958C108.44 159.405 107.838 159.75 107.323 160.189C106.918 160.537 106.717 160.459 106.475 160.021C105.471 158.204 104.894 156.257 104.487 154.239C104.132 152.483 104.067 150.706 104.233 148.957C104.542 145.686 105.464 142.593 107.726 140.04C107.776 139.984 107.826 139.927 107.886 139.882C107.922 139.856 107.977 139.858 108.076 139.835L108.071 139.828ZM107.565 157.857C108.042 156.97 108.433 156.219 108.852 155.486C108.979 155.262 109.063 154.898 109.355 154.905C109.609 154.912 109.657 155.269 109.772 155.479C111.351 158.369 113.471 160.766 116.296 162.533C117.922 163.552 119.669 164.344 121.413 165.133C124.547 166.549 127.458 168.267 129.667 170.956C129.686 170.98 129.755 170.965 129.851 170.97C129.851 167.404 129.851 163.843 129.854 160.281C129.854 159.906 129.765 159.818 129.362 159.946C128.44 160.232 127.479 160.352 126.557 159.969C126.145 159.799 125.824 159.823 125.421 159.981C124.001 160.541 122.604 160.676 121.341 159.582C121.2 159.459 121.03 159.438 120.85 159.414C119.082 159.171 117.726 158.391 117.079 156.642C116.665 155.522 115.807 154.704 114.846 154.071C113.464 153.159 112.22 152.121 111.183 150.845C109.432 148.694 108.327 146.218 107.405 143.614C105.584 148.335 105.649 153.029 107.565 157.857ZM122.8 155.536C123.327 156.313 123.974 156.207 124.683 155.905C124.925 155.803 125.232 155.864 125.503 155.81C126.684 155.571 127.832 156.342 129.058 155.846C129.59 155.631 129.868 155.531 129.866 154.9C129.834 147.589 129.837 140.274 129.825 132.963C129.825 132.691 129.779 132.417 129.765 132.145C129.751 131.899 129.633 131.753 129.403 131.632C128.308 131.053 127.35 130.342 127.055 129.049C127.012 128.865 126.878 128.714 126.682 128.758C126.49 128.801 126.581 129.007 126.559 129.141C126.293 130.963 126.353 132.807 126.274 134.636C126.157 137.363 125.929 140.09 125.932 142.824C125.932 143.715 126.195 144.091 127.086 144.266C127.645 144.375 128.143 144.597 128.608 144.897C128.785 145.013 129.154 145.091 128.888 145.438C128.708 145.674 128.548 145.948 128.157 145.703C127.884 145.53 127.563 145.431 127.271 145.284C126.88 145.091 126.801 145.239 126.82 145.62C126.852 146.218 126.837 146.818 126.84 147.416C126.84 148.014 126.605 148.418 125.946 148.463C125.74 148.477 125.599 148.531 125.625 148.763C125.699 149.389 125.512 149.992 125.481 150.609C125.373 152.688 124.717 154.461 122.8 155.541V155.536ZM129.863 115.924C130.534 116.337 131.121 116.668 131.67 117.051C132.007 117.287 132.283 117.273 132.635 117.089C135.345 115.659 136.67 113.192 136.085 110.141C135.644 107.837 134.207 106.225 131.955 105.481C129.652 104.717 127.482 105.063 125.608 106.688C125.256 106.993 124.928 107.326 124.626 107.83C126.066 107.882 127.4 107.731 128.67 108.288C129.068 108.463 129.621 108.34 130.098 108.288C130.75 108.217 131.291 108.442 131.799 108.794C133.033 109.647 133.534 111.15 133.011 112.637C132.57 113.896 131.509 114.768 129.832 114.882C128.445 114.976 127.072 113.917 126.595 112.424C126.432 111.909 126.21 111.675 125.639 111.739C125.194 111.788 124.731 111.809 124.281 111.694C123.543 111.505 123.397 111.637 123.538 112.396C123.878 114.229 124.772 115.751 126.416 116.687C127.264 117.169 127.685 117.585 127.484 118.632C127.285 119.667 127.489 120.757 127.321 121.827C127.204 122.576 127.053 123.429 127.865 123.999C127.939 124.051 127.997 124.162 128.016 124.254C128.212 125.188 129.058 125.44 129.863 126.015V115.924ZM119.228 151.651C118.981 152.164 119.331 152.549 119.772 152.936C120.069 153.196 120.325 153.52 120.539 153.853C120.742 154.172 120.977 154.208 121.305 154.111C122.28 153.818 122.86 153.144 123.212 152.235C123.773 150.788 123.72 149.262 123.787 147.759C123.809 147.281 123.493 146.802 122.91 146.891C122.165 147.007 121.439 147.102 120.673 147.104C119.784 147.109 119.956 148.279 119.326 148.659C119.305 148.671 119.293 148.699 119.271 148.711C118.761 148.992 118.826 149.389 118.993 149.848C119.195 150.389 119.288 150.954 119.223 151.651H119.228ZM145.625 123.004C141.596 123.004 137.745 123.117 133.91 122.954C132.122 122.879 131.289 123.992 130.017 124.956C130.333 124.989 130.45 125.02 130.563 125.01C132.829 124.819 135.103 124.958 137.376 124.838C139.487 124.724 141.61 124.616 143.73 124.644C144.142 124.649 144.463 124.55 144.705 124.212C144.966 123.85 145.247 123.5 145.625 123.006V123.004ZM135.103 137.632C134.808 137.956 134.875 138.218 134.902 138.445C135.227 141.208 135.165 143.992 135.347 146.761C135.41 147.726 135.398 147.766 136.37 147.718C136.658 147.704 136.823 147.617 136.976 147.378C137.369 146.768 138.004 146.305 138.371 145.74C138.84 145.02 138.9 144.034 139.113 143.157C139.133 143.082 138.975 142.961 138.893 142.867C138.457 142.337 138.102 141.763 137.992 141.083C137.93 140.697 137.717 140.492 137.384 140.303C136.334 139.71 135.417 138.984 135.105 137.63L135.103 137.632ZM142.178 155.555C143.114 155.796 143.912 155.902 144.59 156.33C144.825 156.479 144.969 156.283 145.125 156.181C148.431 153.976 150.712 151.032 151.723 147.191C152.108 145.729 152.14 145.117 151.943 144.339C150.374 149.451 147.362 153.296 142.175 155.555H142.178ZM114.041 126.258C114.343 125.852 114.542 125.653 114.654 125.415C114.964 124.753 115.45 124.578 116.171 124.639C117.906 124.788 119.655 124.68 121.387 124.923C121.708 124.968 122.175 125.112 122.369 124.814C122.544 124.545 122.062 124.361 121.957 124.084C121.885 123.897 121.751 123.73 121.715 123.538C121.65 123.198 121.471 123.106 121.138 123.106C118.936 123.117 116.732 123.117 114.53 123.106C114.185 123.106 114.024 123.191 114.034 123.564C114.056 124.384 114.041 125.204 114.041 126.256V126.258ZM115.536 150.46C116.53 149.692 117.635 149.212 118.454 148.349C118.85 147.934 119.451 147.385 119.281 146.932C119.104 146.459 118.294 146.669 117.755 146.662C116.408 146.641 115.495 147.324 115.316 148.501C115.22 149.136 115.227 149.782 115.536 150.462V150.46ZM141.507 156.458C142.027 157.28 142.23 158.131 142.585 158.925C142.87 159.565 143.28 160.073 143.826 160.496C144.564 161.068 144.657 161.059 144.825 160.18C145.273 157.847 144.447 156.318 141.509 156.458H141.507ZM125.721 147.537C125.939 146.676 125.702 145.84 125.551 145.036C125.299 143.699 123.402 143.044 122 143.578C123.059 145.048 123.557 146.998 125.718 147.537H125.721ZM120.146 156.547C120.22 155.359 119.892 154.399 119.163 153.565C118.859 153.215 118.646 153.116 118.481 153.671C118.339 154.146 118.131 154.603 117.982 155.078C117.52 156.55 118.378 158.001 119.897 158.339C120.27 158.421 120.448 158.386 120.352 157.913C120.256 157.436 120.043 156.963 120.148 156.547H120.146ZM117.029 145.632C118.909 145.507 120.543 146.766 122.383 145.974C121.76 144.857 121.14 143.675 119.626 143.718C118.469 143.751 117.671 144.49 117.031 145.632H117.029ZM122.228 115.075C121.957 115.744 121.914 116.34 122.455 116.961C122.915 117.491 123.172 118.169 123.193 118.89C123.203 119.176 123.335 119.346 123.56 119.495C124.132 119.873 124.635 120.322 125 120.908C125.074 121.028 125.151 121.203 125.337 121.13C125.515 121.059 125.452 120.872 125.455 120.735C125.467 120.062 125.445 119.386 125.479 118.715C125.496 118.344 125.359 118.122 125.048 117.925C124.049 117.297 123.279 116.444 122.652 115.461C122.551 115.305 122.522 115.066 122.23 115.078L122.228 115.075ZM116.938 155.044C117.326 154.111 117.716 153.251 118.042 152.367C118.308 151.646 118.215 150.892 118.092 150.153C118.059 149.954 118.037 149.706 117.661 149.893C115.289 151.07 114.942 153.227 116.938 155.044ZM125.948 108.815C126.262 109.531 126.578 110.2 126.849 110.888C127.211 111.809 127.954 112.339 128.763 112.821C129.144 113.048 129.303 112.97 129.291 112.518C129.274 111.871 129.298 111.223 129.281 110.578C129.269 110.162 129.092 109.801 128.754 109.548C127.942 108.943 127.046 108.626 125.951 108.818L125.948 108.815ZM147.966 163.807C148.069 163.727 148.119 163.706 148.139 163.67C149.042 162.08 148.047 159.509 146.301 158.892C146.136 158.833 145.98 158.795 145.97 159.008C145.934 159.721 145.494 160.39 145.815 161.149C146.282 162.252 147.386 162.81 147.966 163.807ZM125.112 159.201C123.775 157.429 123.265 156.911 122.381 156.491C121.998 156.309 121.533 155.987 121.185 156.186C120.848 156.377 121.169 156.859 121.221 157.209C121.509 159.185 122.884 160.317 125.115 159.201H125.112ZM131.924 159.263C132.024 159.263 132.125 159.272 132.225 159.263C132.676 159.216 133.292 159.234 133.481 158.899C133.677 158.551 133.126 158.209 132.884 157.89C131.912 156.602 130.546 156.143 129.173 156.552C128.826 156.656 128.749 156.739 129.015 157.027C129.437 157.488 129.803 157.998 130.239 158.443C130.692 158.904 131.19 159.334 131.921 159.263H131.924ZM129.427 159.036C127.97 156.798 126.224 156.039 124.566 156.968C125.021 157.349 125.333 157.833 125.69 158.28C126.713 159.558 127.908 159.797 129.427 159.036ZM137.911 158.875C136.224 156.521 134.789 155.893 133.131 156.744C135.316 159.492 135.632 159.634 137.911 158.875ZM147.192 164.585C146.126 162.741 145.084 162.552 142.12 163.613C143.071 165.265 144.609 165.565 147.192 164.585ZM137.365 156.581C137.76 157.07 138.153 157.523 138.507 157.998C139.25 158.991 140.28 159.211 141.447 159.119C141.744 159.095 141.754 158.96 141.701 158.724C141.243 156.677 139.353 155.716 137.362 156.578L137.365 156.581ZM121.298 110.845C120.012 110.829 119.324 111.441 118.974 112.868C118.895 113.19 118.773 113.615 119.075 113.849C119.324 114.043 119.542 113.66 119.791 113.575C119.983 113.509 120.172 113.438 120.357 113.36C121.289 112.96 122.177 112.5 122.834 111.694C123.076 111.398 123.179 111.212 122.68 111.096C122.187 110.98 121.698 110.869 121.3 110.845H121.298ZM139.938 149.233C139.228 149.262 138.651 148.999 138.052 148.841C137.24 148.626 136.425 148.496 135.596 148.676C135.421 148.713 135.117 148.704 135.251 149.084C135.556 149.942 136.528 150.824 137.3 150.885C138.344 150.97 139.372 150.351 139.94 149.233H139.938ZM141.802 141.104C141.437 141.898 141.033 142.581 140.577 143.238C140.16 143.838 139.921 144.502 139.894 145.239C139.885 145.514 139.93 145.648 140.268 145.592C141.246 145.424 142.233 145.124 142.547 144.141C142.877 143.106 142.702 142.03 141.799 141.104H141.802ZM132.697 133.96C132.76 133.721 132.836 133.532 132.853 133.338C132.985 131.897 133.196 130.427 131.746 129.418C131.586 129.307 131.432 129.096 131.231 129.155C130.97 129.233 131.119 129.493 131.104 129.673C131.085 129.921 131.035 130.157 130.977 130.401C130.553 132.206 130.759 132.948 132.697 133.962V133.96ZM125.802 123.262C125.685 123.999 125.579 124.68 125.472 125.36C125.335 126.216 125.577 126.939 126.272 127.485C126.562 127.714 126.866 128.135 127.209 128.005C127.479 127.901 127.489 127.411 127.458 127.055C127.453 126.988 127.508 126.918 127.525 126.847C127.899 125.327 127.314 124.065 125.802 123.259V123.262ZM137.999 139.769C138.989 137.337 138.093 135.446 136.569 134.971C136.507 135.487 136.464 136.002 136.377 136.51C136.083 138.242 136.358 138.828 137.997 139.766L137.999 139.769ZM123.102 120.286C122.927 121.009 122.745 121.666 122.613 122.333C122.35 123.661 123.272 124.516 124.171 125.036C124.394 125.166 124.506 125.126 124.568 124.833C124.727 124.101 124.765 123.359 124.705 122.628C124.619 121.607 124.065 120.849 123.102 120.286ZM130.048 131.06C130.132 129.614 130.625 128.17 129.449 126.934C129.192 126.667 128.931 126.261 128.548 126.324C128.133 126.393 128.5 126.896 128.299 127.144C128.282 127.163 128.268 127.187 128.263 127.211C127.769 129.191 128.232 130.231 130.05 131.063L130.048 131.06ZM121.681 117.12C119.935 119.776 120.019 121.251 121.892 122.056C122.379 120.416 123.095 118.762 121.681 117.12ZM121.411 113.769C120.912 114.059 120.412 114.324 119.937 114.631C118.763 115.399 118.55 117.058 119.47 118.11C119.587 118.245 119.669 118.415 119.858 118.157C120.8 116.876 121.931 115.666 121.411 113.766V113.769ZM123.555 108.596C122.762 108.513 122.139 108.912 121.593 109.46C121.392 109.661 121.147 109.881 121.727 109.954C122.503 110.051 123.2 110.401 123.905 110.727C124.374 110.945 124.863 111.157 125.407 111.145C125.675 111.138 125.932 111.105 125.912 110.758C125.853 109.668 124.698 108.596 123.557 108.596H123.555ZM133.924 131.991C133.608 132.61 133.67 133.237 133.555 133.825C133.311 135.082 133.883 136.068 135.009 136.659C135.321 136.822 135.414 136.789 135.505 136.437C135.977 134.626 135.417 133.187 133.922 131.991H133.924ZM138.989 140.322C138.977 140.756 139.078 141.116 139.228 141.458C139.408 141.867 139.605 142.434 140.036 142.453C140.448 142.47 140.505 141.848 140.716 141.503C141.689 139.903 140.853 138.797 139.748 137.994C139.612 137.895 139.389 137.675 139.324 138.044C139.19 138.819 139.092 139.601 138.986 140.324L138.989 140.322ZM139.906 148.468C140.822 148.444 141.737 147.737 141.981 146.877C142.065 146.587 142.156 146.234 141.964 146.019C141.818 145.854 141.516 146.1 141.279 146.133C141.107 146.156 140.937 146.211 140.764 146.23C139.693 146.345 138.8 146.776 138.153 147.643C138.043 147.789 137.75 148.019 138.193 148.12C138.768 148.253 139.351 148.354 139.909 148.468H139.906ZM150.357 154.865C150.036 155.163 149.911 155.522 149.72 155.841C149.614 156.018 149.607 156.158 149.792 156.29C150.467 156.777 151.141 157.268 151.814 157.76C151.471 156.694 151.028 155.732 150.357 154.867V154.865ZM134.039 149.236C133.845 149.588 133.689 149.869 133.538 150.15C133.16 150.862 133.21 150.949 134.01 150.999C134.185 151.01 134.363 151.001 134.535 150.984C134.856 150.954 134.997 150.828 134.794 150.505C134.545 150.108 134.315 149.701 134.039 149.233V149.236Z" fill="#B68A1E"/>
<path d="M77.0183 209.798C76.9392 208.888 77.2243 208.07 77.3585 207.238C77.6676 205.289 78.0245 203.346 78.3671 201.401C78.6331 199.889 78.911 198.379 79.1745 196.866C79.5195 194.869 79.8406 192.87 80.1951 190.875C80.5737 188.741 80.9906 186.617 81.3667 184.483C81.7021 182.583 81.992 180.673 82.3226 178.771C82.6533 176.876 83.0222 174.99 83.3505 173.095C83.6308 171.483 83.7697 169.84 84.1818 168.262C84.4717 167.149 83.9829 166.612 83.2402 165.979C80.2263 163.396 77.3872 160.629 74.5913 157.821C74.3086 157.538 74.0307 157.237 73.7049 157.011C73.1299 156.613 73.1227 156.044 73.2113 155.486C73.5923 153.085 73.9804 150.684 74.4236 148.293C74.8405 146.05 75.3196 143.819 75.806 141.591C75.8707 141.29 75.8755 141.12 75.6407 140.898C72.7753 138.19 69.9171 135.477 67.0708 132.75C65.4728 131.218 63.9155 129.649 62.3223 128.116C58.4339 124.37 54.5359 120.636 50.6402 116.897C48.5607 114.903 46.4787 112.908 44.332 110.85C46.0187 110.595 47.6718 110.342 49.3225 110.094C51.2656 109.803 53.211 109.51 55.1564 109.231C57.0251 108.964 58.8987 108.721 60.7674 108.451C62.6841 108.175 64.5983 107.868 66.515 107.593C68.1154 107.364 69.7206 107.173 71.321 106.941C72.8951 106.712 74.4571 106.372 76.0384 106.227C78.4007 106.01 80.7198 105.528 83.0725 105.259C84.6178 105.081 86.1679 104.824 87.7085 104.561C88.0127 104.509 88.0415 104.344 88.1349 104.141C89.7713 100.596 91.4268 97.0582 93.2452 93.5984C93.595 92.9344 94.0239 92.301 94.273 91.6015C94.5581 90.8028 95.102 90.5617 95.8758 90.453C97.6703 90.1978 99.4504 89.8197 101.25 89.5975C102.584 89.4321 103.921 89.2619 105.258 89.1202C106.741 88.9618 108.21 88.6641 109.712 88.6499C110.162 88.6451 110.392 88.3497 110.581 87.9645C111.959 85.15 113.344 82.3377 114.748 79.5373C118.104 72.84 121.475 66.1474 124.834 59.4524C126.483 56.1675 128.116 52.8756 129.803 49.4985C130.68 51.252 131.511 52.9228 132.347 54.5913C134.417 58.7292 136.487 62.8649 138.555 67.0028C142.067 74.0263 145.584 81.0474 149.082 88.078C149.296 88.5081 149.533 88.6192 150.029 88.6806C151.605 88.872 153.191 89.0304 154.768 89.21C156.421 89.399 158.064 89.6519 159.715 89.8551C161.335 90.056 162.937 90.3632 164.552 90.6113C164.797 90.6492 164.885 90.8051 164.979 90.9824C167.24 95.2456 169.394 99.5585 171.354 103.966C171.574 104.462 171.886 104.644 172.413 104.71C174.009 104.911 175.595 105.173 177.185 105.4C178.779 105.625 180.377 105.823 181.967 106.05C183.508 106.27 185.044 106.516 186.584 106.74C188.153 106.967 189.728 107.173 191.297 107.4C193.597 107.733 195.894 108.09 198.197 108.418C199.742 108.638 201.295 108.815 202.84 109.033C204.407 109.255 205.971 109.51 207.538 109.734C209.103 109.959 210.677 110.141 212.239 110.391C213.195 110.543 214.175 110.58 214.999 110.84C214.06 111.824 213.135 112.844 212.152 113.811C210.526 115.413 208.885 117.004 207.21 118.559C204.709 120.882 202.296 123.297 199.802 125.629C196.242 128.959 192.785 132.395 189.282 135.782C187.693 137.316 186.139 138.887 184.485 140.352C183.757 140.995 183.668 141.598 183.882 142.474C184.562 145.265 185.082 148.089 185.516 150.928C185.774 152.639 186.091 154.34 186.395 156.044C186.443 156.306 186.342 156.465 186.167 156.628C183.712 158.929 181.443 161.416 178.908 163.642C177.744 164.663 176.637 165.75 175.444 166.742C174.809 167.272 175.331 167.865 175.4 168.38C175.664 170.332 176.052 172.27 176.397 174.21C176.733 176.103 177.08 177.993 177.411 179.889C177.741 181.786 178.048 183.689 178.376 185.589C178.704 187.484 179.052 189.379 179.382 191.275C179.706 193.125 180.015 194.978 180.338 196.828C180.791 199.421 181.258 202.011 181.706 204.606C182.003 206.328 182.274 208.056 182.566 209.835C182.035 209.76 181.649 209.415 181.208 209.188C178.517 207.801 175.822 206.416 173.134 205.022C170.547 203.679 167.966 202.318 165.379 200.978C161.989 199.22 158.589 197.478 155.199 195.72C151.627 193.87 148.057 192.017 144.497 190.14C143.84 189.793 143.332 189.72 142.618 190.147C138.639 192.532 134.487 194.604 130.316 196.637C129.88 196.85 129.552 196.816 129.139 196.608C124.863 194.47 120.584 192.341 116.468 189.906C116.154 189.72 115.91 189.689 115.572 189.866C112.814 191.317 110.047 192.754 107.28 194.186C103.073 196.36 98.8562 198.513 94.654 200.694C90.1833 203.015 85.7343 205.376 81.2565 207.68C79.8693 208.394 78.5348 209.219 77.0231 209.805L77.0183 209.798ZM203.726 114.584C203.841 114.593 203.904 114.558 203.868 114.433C202.715 114.076 201.51 114.005 200.329 113.854C198.757 113.65 197.198 113.364 195.616 113.194C193.729 112.993 191.86 112.606 189.977 112.339C187.725 112.017 185.463 111.757 183.211 111.434C180.568 111.053 177.935 110.625 175.293 110.235C172.873 109.879 170.448 109.543 168.026 109.198C167.875 108.884 167.712 108.572 167.576 108.25C165.803 104.06 163.884 99.9342 161.742 95.9144C161.615 95.6757 161.605 95.2952 161.188 95.2881C161.054 95.2267 160.925 95.1345 160.784 95.1109C159.102 94.8509 157.425 94.5366 155.731 94.3688C153.081 94.1042 150.441 93.7308 147.777 93.5701C147.132 93.5323 146.44 93.5914 145.807 93.3408C145.769 93.2251 145.747 93.0998 145.692 92.9935C140.472 82.5315 135.249 72.0719 130.021 61.6124C129.968 61.506 129.995 61.239 129.722 61.3713C129.475 61.5013 129.441 61.7707 129.334 61.9834C126.37 67.8725 123.406 73.7616 120.457 79.6579C118.272 84.0274 116.104 88.4041 113.928 92.776C113.801 93.0313 113.734 93.2841 113.32 93.3219C111.585 93.4826 109.863 93.771 108.126 93.8891C105.188 94.0876 102.299 94.6264 99.3809 94.9549C98.5663 95.0471 97.953 95.274 97.5984 96.1554C97.1217 97.3394 96.3957 98.4241 95.8447 99.5845C94.4216 102.586 93.0152 105.594 91.7526 108.664C91.6113 109.011 91.4675 109.174 91.0195 109.222C89.6587 109.363 88.3146 109.633 86.961 109.834C84.9197 110.134 82.8761 110.413 80.8324 110.703C79.2847 110.923 77.737 111.145 76.1893 111.375C74.7111 111.592 73.2377 111.828 71.7594 112.036C70.1087 112.268 68.4412 112.41 66.8025 112.71C64.1814 113.192 61.5245 113.4 58.9011 113.856C57.8349 114.04 56.752 114.125 55.7074 114.433C55.7745 114.726 56.0332 114.867 56.2249 115.054C63.7286 122.285 71.2324 129.512 78.7433 136.739C79.6657 137.625 80.6096 138.488 81.544 139.362C81.0912 141.378 80.6096 143.387 80.1928 145.41C79.7136 147.742 79.2512 150.082 78.8679 152.431C78.76 153.095 78.4103 153.792 78.7816 154.491C78.7816 154.687 78.923 154.801 79.0452 154.924C81.5584 157.478 84.2058 159.891 86.8843 162.276C87.9289 163.204 89.0885 164.01 90.0085 165.074C89.824 166.026 89.6227 166.976 89.4598 167.933C89.134 169.855 88.8393 171.781 88.5087 173.7C88.1277 175.904 87.7133 178.102 87.3299 180.305C86.9586 182.441 86.6184 184.58 86.2422 186.716C85.9092 188.604 85.5402 190.488 85.2 192.376C84.8478 194.34 84.4717 196.301 84.1938 198.277C84.1051 198.913 83.7553 199.537 83.9877 200.208C84.0285 200.307 84.1075 200.345 84.1986 200.29C84.2273 200.274 84.2129 200.184 84.2177 200.13L84.2034 200.111C84.5172 200.307 84.7257 200.035 84.9485 199.922C86.6327 199.064 88.3074 198.189 89.9845 197.32C97.2079 193.576 104.429 189.828 111.66 186.097C112.115 185.863 112.201 185.712 111.834 185.298C110.251 183.516 108.689 181.718 107.141 179.905C105.842 178.381 104.453 176.932 103.25 175.33C103.272 175.309 103.291 175.29 103.312 175.269C103.569 175.422 103.837 175.562 104.082 175.734C112.079 181.359 120.368 186.513 129.159 190.861C129.667 191.114 130.055 191.105 130.553 190.856C139.202 186.57 147.369 181.505 155.256 175.985C155.489 175.822 155.678 175.538 156.033 175.602C156.013 175.878 155.795 176.034 155.64 176.223C153.107 179.298 150.575 182.373 148.028 185.435C147.738 185.785 147.633 185.955 148.15 186.22C151.373 187.867 154.574 189.554 157.786 191.22C161.112 192.946 164.444 194.659 167.767 196.386C170.182 197.641 172.588 198.917 175.005 200.172C175.084 200.212 175.235 200.442 175.35 200.179C175.472 200.184 175.448 200.458 175.602 200.342C175.664 200.293 175.645 200.108 175.626 199.99C175.355 198.402 175.084 196.812 174.799 195.226C174.174 191.724 173.522 188.226 172.914 184.722C172.116 180.142 171.352 175.555 170.566 170.972C170.376 169.876 170.364 169.881 169.31 170.266C165.731 171.575 162.152 172.887 158.57 174.186C158.273 174.295 157.98 174.496 157.571 174.338C157.837 174.141 158.074 173.967 158.313 173.792C166.138 168.077 173.599 161.947 180.46 155.122C180.798 154.787 181.033 154.472 180.935 153.953C180.537 151.854 180.202 149.741 179.787 147.645C178.254 139.917 176.184 132.327 173.728 124.781C174.1 124.842 174.183 125.128 174.327 125.339C176.596 128.678 178.867 132.012 181.115 135.366C181.455 135.876 181.651 135.992 182.154 135.503C189.188 128.702 196.244 121.924 203.293 115.134C203.465 114.969 203.724 114.856 203.738 114.562L203.734 114.577L203.726 114.584Z" fill="#101820"/>
<path d="M84.0884 152.7C84.5316 150.011 85.0539 147.338 85.6552 144.679C86.5872 140.56 87.6677 136.481 88.8273 132.417C89.9797 128.371 91.3477 124.393 92.7445 120.43C94.4096 115.716 96.2592 111.065 98.3483 106.511C99.2923 104.455 100.272 102.416 101.219 100.362C101.393 99.9838 101.652 99.7853 102.055 99.7546C104.391 99.5868 106.703 99.1898 109.036 98.9724C111.549 98.7384 114.067 98.5872 116.581 98.391C122.194 97.9491 127.819 97.8617 133.445 97.9846C135.155 98.0224 136.873 97.994 138.577 98.1169C140.302 98.2422 142.029 98.28 143.754 98.3981C146.145 98.5636 148.534 98.7668 150.918 99.0055C153.292 99.2442 155.642 99.6979 158.036 99.7499C158.498 101.128 159.253 102.373 159.864 103.682C166.26 117.375 170.999 131.608 174.215 146.341C174.639 148.283 174.931 150.254 175.329 152.204C175.465 152.87 175.01 153.149 174.641 153.504C168.651 159.234 162.25 164.483 155.546 169.377C147.58 175.193 139.295 180.513 130.507 185.057C130.002 185.319 129.631 185.329 129.118 185.062C118.076 179.296 107.781 172.414 97.9937 164.774C93.1446 160.988 88.5374 156.933 84.0884 152.7ZM108.071 139.828C107.975 139.849 107.917 139.849 107.881 139.875C107.821 139.917 107.771 139.976 107.721 140.033C105.459 142.585 104.537 145.679 104.228 148.95C104.062 150.698 104.129 152.476 104.482 154.231C104.889 156.252 105.466 158.199 106.47 160.014C106.712 160.451 106.913 160.529 107.318 160.182C107.833 159.742 108.435 159.397 108.943 158.951C109.4 158.547 109.649 158.535 110.026 159.081C111.099 160.638 112.429 161.971 113.95 163.119C116.037 164.693 118.411 165.766 120.742 166.91C124.068 168.543 127.041 170.62 129.381 173.501C129.734 173.936 129.918 173.759 130.179 173.442C131.301 172.078 132.587 170.88 133.991 169.803C136.492 167.886 139.398 166.683 142.161 165.223C142.4 165.097 142.535 165.218 142.702 165.322C143.637 165.899 144.614 166.13 145.721 165.842C147.036 165.499 148.407 165.204 148.951 163.786C149.358 162.725 149.377 161.598 148.907 160.51C148.757 160.165 149.643 158.599 149.998 158.615C150.127 158.622 150.259 158.75 150.374 158.842C150.903 159.267 151.459 159.669 151.945 160.139C152.379 160.558 152.575 160.414 152.817 159.962C153.234 159.189 153.615 158.402 153.905 157.575C154.851 154.888 155.144 152.142 154.99 149.29C154.849 146.66 154.207 144.228 152.93 141.943C152.484 141.144 151.948 140.402 151.207 139.724C151.119 140.076 151.056 140.317 150.994 140.558C150.314 143.257 149.406 145.87 147.932 148.26C146.126 151.183 143.744 153.371 140.218 154.092C138.277 154.489 136.95 154.007 136.229 152.617C136.059 152.286 135.752 151.897 135.917 151.582C136.104 151.225 136.497 151.7 136.811 151.613C136.859 151.599 136.912 151.613 136.962 151.613C138.457 151.533 139.473 150.701 140.282 149.545C140.479 149.264 140.639 148.973 140.941 148.746C142.06 147.91 143.124 147.014 142.951 145.407C142.939 145.291 142.966 145.154 143.018 145.05C143.864 143.354 143.682 142.023 142.398 140.624C142.194 140.404 141.945 140.215 141.924 139.882C141.871 139.048 141.416 138.417 140.802 137.913C139.882 137.16 138.845 136.526 138.395 135.345C138.354 135.236 138.244 135.141 138.145 135.066C137.156 134.312 136.169 133.558 135.663 132.367C135.627 132.279 135.541 132.199 135.46 132.147C134.65 131.644 134.463 130.902 134.59 130.023C134.626 129.779 134.6 129.524 134.578 129.273C134.554 128.966 134.659 128.869 134.99 128.813C136.583 128.539 138.2 128.555 139.803 128.397C142.029 128.177 144.267 128.071 146.5 127.931C146.967 127.903 147.168 127.721 147.166 127.241C147.149 125.417 147.147 123.595 147.166 121.77C147.17 121.319 147.041 121.151 146.567 121.17C145.783 121.203 144.997 121.179 144.212 121.179C140.97 121.179 137.729 121.182 134.487 121.172C134.228 121.172 133.845 121.34 133.819 120.825C133.783 120.133 133.624 119.45 133.665 118.748C133.684 118.429 133.744 118.233 134.053 118.036C137.043 116.148 138.342 112.707 137.513 109.397C136.696 106.138 134.525 104.063 131.197 103.448C128.006 102.86 125.229 103.803 123.188 106.409C122.606 107.154 122.127 107.95 121.193 108.359C120.706 108.572 120.407 109.051 120.126 109.503C119.995 109.716 119.851 109.905 119.628 110.051C118.181 110.989 117.611 112.346 117.937 114.04C117.999 114.359 118.097 114.662 117.953 114.99C117.503 116.014 117.596 117.075 118.226 117.921C118.962 118.906 119.144 120.024 119.453 121.177C119.166 121.177 118.893 121.177 118.617 121.177C116.64 121.177 114.666 121.184 112.69 121.17C112.292 121.168 112.096 121.239 112.1 121.697C112.124 123.571 112.117 125.445 112.103 127.317C112.1 127.74 112.299 127.908 112.687 127.919C115.51 128.014 118.322 128.279 121.133 128.536C122.139 128.628 123.145 128.621 124.147 128.723C124.597 128.768 124.798 128.962 124.688 129.394C124.386 130.59 124.549 131.816 124.446 133.029C124.216 135.699 124.187 138.388 124.12 141.073C124.087 142.415 124.13 142.42 122.815 142.463C122.355 142.479 121.916 142.593 121.48 142.723C121.291 142.779 121.118 142.86 120.898 142.841C118.593 142.637 117.247 143.408 116.25 145.483C116.152 145.686 116.082 145.892 115.895 146.048C114.283 147.38 114.031 149.032 114.798 150.883C114.983 151.329 115.007 151.707 114.7 152.164C110.785 148.902 109.233 144.457 108.066 139.821L108.071 139.828Z" fill="#101820"/>
<path d="M119.228 151.651C119.293 150.953 119.197 150.389 118.998 149.847C118.828 149.389 118.764 148.992 119.276 148.711C119.298 148.699 119.31 148.673 119.331 148.659C119.964 148.278 119.789 147.108 120.678 147.104C121.445 147.099 122.17 147.007 122.916 146.891C123.495 146.801 123.814 147.281 123.792 147.758C123.725 149.261 123.778 150.79 123.217 152.234C122.865 153.142 122.285 153.818 121.31 154.111C120.982 154.21 120.747 154.174 120.544 153.853C120.33 153.52 120.074 153.196 119.777 152.936C119.336 152.549 118.986 152.166 119.233 151.651H119.228Z" fill="#101820"/>
<path d="M135.106 137.63C135.417 138.984 136.337 139.709 137.384 140.302C137.717 140.491 137.93 140.697 137.993 141.082C138.105 141.765 138.457 142.34 138.893 142.867C138.972 142.963 139.131 143.082 139.114 143.157C138.901 144.034 138.843 145.019 138.371 145.74C138.002 146.305 137.37 146.768 136.977 147.378C136.823 147.614 136.658 147.704 136.371 147.718C135.395 147.763 135.41 147.725 135.348 146.761C135.165 143.991 135.23 141.208 134.902 138.445C134.876 138.22 134.808 137.956 135.103 137.632L135.106 137.63Z" fill="#101820"/>
<path d="M122.228 115.073C122.52 115.061 122.551 115.302 122.65 115.456C123.28 116.439 124.049 117.292 125.045 117.92C125.357 118.117 125.496 118.339 125.477 118.71C125.446 119.383 125.465 120.057 125.453 120.73C125.45 120.867 125.515 121.056 125.335 121.125C125.149 121.198 125.074 121.026 124.998 120.903C124.633 120.317 124.13 119.865 123.558 119.49C123.332 119.341 123.198 119.171 123.191 118.885C123.17 118.164 122.911 117.483 122.453 116.956C121.912 116.335 121.955 115.739 122.226 115.07L122.228 115.073Z" fill="#101820"/>
<path d="M161.189 95.288C160.137 96.7768 159.087 98.2656 158.036 99.7545C155.642 99.7025 153.29 99.2487 150.918 99.0101C148.534 98.7714 146.145 98.5658 143.754 98.4027C142.032 98.2845 140.302 98.2444 138.577 98.1215C136.871 97.9986 135.153 98.027 133.445 97.9891C127.822 97.8663 122.197 97.9513 116.581 98.3956C114.065 98.5941 111.549 98.7454 109.036 98.977C106.703 99.1944 104.393 99.589 102.055 99.7592C101.652 99.7875 101.394 99.9884 101.219 100.367C100.272 102.42 99.2924 104.46 98.3485 106.516C96.2593 111.067 94.4073 115.718 92.7446 120.435C91.3455 124.398 89.9799 128.375 88.8275 132.421C87.6703 136.484 86.5898 140.565 85.6554 144.684C85.054 147.342 84.5317 150.018 84.0885 152.705C82.3204 153.3 80.5523 153.898 78.7842 154.494C78.4152 153.794 78.7626 153.097 78.8704 152.433C79.2537 150.084 79.7161 147.744 80.1953 145.412C80.6122 143.389 81.0937 141.38 81.5466 139.364C81.5993 139.227 81.6663 139.093 81.7047 138.951C82.3396 136.595 82.9361 134.229 83.6118 131.885C84.2874 129.536 85.0421 127.208 85.7632 124.871C85.9285 124.337 85.9117 124.034 85.2098 123.814C78.3793 121.671 71.5655 119.471 64.747 117.292C61.7379 116.33 58.7239 115.387 55.71 114.435C56.7521 114.128 57.8375 114.042 58.9036 113.858C61.527 113.402 64.184 113.194 66.805 112.712C68.4438 112.412 70.1113 112.27 71.762 112.038C73.2402 111.83 74.716 111.594 76.1919 111.377C77.7396 111.15 79.2873 110.928 80.835 110.706C82.8786 110.415 84.9223 110.134 86.9635 109.836C88.3172 109.637 89.6636 109.366 91.022 109.224C91.4701 109.177 91.6138 109.014 91.7552 108.666C93.0154 105.594 94.4241 102.588 95.8472 99.5867C96.3959 98.4263 97.1242 97.344 97.601 96.1577C97.9556 95.2762 98.5689 95.0493 99.3835 94.9571C102.302 94.6287 105.191 94.0922 108.128 93.8913C109.865 93.7732 111.588 93.4849 113.322 93.3242C113.737 93.2864 113.804 93.0335 113.931 92.7783C116.109 88.4063 118.275 84.0273 120.46 79.6601C123.409 73.7639 126.372 67.8724 129.336 61.9856C129.444 61.7729 129.477 61.5059 129.724 61.3735C129.724 71.6039 129.731 81.8342 129.715 92.0646C129.715 92.6388 129.846 92.8279 130.457 92.8184C135.582 92.7405 140.695 93.0973 145.807 93.3454C146.44 93.5959 147.132 93.5369 147.777 93.5747C150.441 93.7354 153.079 94.1087 155.731 94.3734C157.422 94.5412 159.102 94.8579 160.784 95.1155C160.925 95.1367 161.054 95.2313 161.189 95.2927V95.288Z" fill="white"/>
<path d="M90.011 165.071C90.2674 165.071 90.4111 165.267 90.5812 165.409C94.3355 168.531 98.1975 171.518 102.175 174.356C102.714 174.742 102.68 174.973 102.326 175.453C96.3911 183.474 90.4758 191.506 84.5581 199.539C84.4263 199.718 84.3233 199.917 84.2059 200.108L84.2203 200.127C84.1436 200.153 84.067 200.179 83.9903 200.205C83.7603 199.534 84.1077 198.91 84.1963 198.274C84.4742 196.299 84.8504 194.337 85.2026 192.373C85.5404 190.485 85.9117 188.602 86.2448 186.714C86.6209 184.58 86.9611 182.439 87.3325 180.302C87.7158 178.1 88.1303 175.9 88.5112 173.697C88.8418 171.778 89.1341 169.85 89.4624 167.931C89.6253 166.974 89.8265 166.024 90.011 165.071Z" fill="white"/>
<path d="M203.732 114.569C202.193 114.851 200.751 115.446 199.273 115.914C190.914 118.563 182.56 121.227 174.21 123.902C173.705 124.065 173.479 124.058 173.29 123.486C171.735 118.781 170.003 114.139 168.125 109.55C168.079 109.436 168.06 109.314 168.027 109.193C170.449 109.538 172.873 109.871 175.293 110.23C177.933 110.62 180.569 111.048 183.211 111.429C185.463 111.752 187.725 112.012 189.977 112.334C191.86 112.603 193.729 112.988 195.617 113.189C197.196 113.357 198.755 113.645 200.33 113.849C201.511 114 202.718 114.071 203.868 114.428C203.787 114.446 203.698 114.461 203.727 114.579L203.732 114.565V114.569Z" fill="white"/>
<path d="M156.251 175.45C156.62 175.004 156.845 174.935 157.267 175.512C163.134 183.516 169.038 191.497 174.927 199.484C175.087 199.702 175.209 199.947 175.348 200.181C175.233 200.444 175.08 200.214 175.003 200.174C172.586 198.919 170.18 197.646 167.765 196.388C164.442 194.661 161.107 192.948 157.784 191.222C154.572 189.556 151.371 187.867 148.148 186.222C147.631 185.957 147.736 185.787 148.026 185.437C150.573 182.375 153.105 179.3 155.638 176.226C155.794 176.036 156.012 175.878 156.031 175.604L156.016 175.613C156.093 175.559 156.172 175.505 156.249 175.45H156.251Z" fill="white"/>
<path d="M107.566 157.856C105.651 153.028 105.584 148.335 107.405 143.613C108.328 146.217 109.432 148.694 111.183 150.845C112.221 152.118 113.464 153.156 114.847 154.07C115.807 154.704 116.665 155.521 117.08 156.642C117.726 158.39 119.082 159.17 120.851 159.414C121.03 159.437 121.2 159.461 121.342 159.581C122.604 160.676 124.003 160.541 125.422 159.981C125.824 159.822 126.145 159.799 126.557 159.969C127.48 160.352 128.441 160.231 129.363 159.945C129.765 159.82 129.854 159.907 129.854 160.281C129.849 163.842 129.852 167.404 129.852 170.97C129.756 170.963 129.689 170.979 129.667 170.956C127.458 168.266 124.547 166.548 121.414 165.133C119.667 164.343 117.923 163.552 116.296 162.533C113.471 160.765 111.351 158.367 109.772 155.479C109.657 155.269 109.607 154.909 109.355 154.905C109.063 154.897 108.979 155.261 108.852 155.486C108.433 156.221 108.042 156.97 107.566 157.856Z" fill="white"/>
<path d="M122.801 155.536C124.717 154.456 125.374 152.681 125.482 150.604C125.513 149.989 125.7 149.384 125.625 148.758C125.597 148.524 125.74 148.47 125.946 148.458C126.605 148.415 126.843 148.009 126.84 147.411C126.84 146.813 126.852 146.213 126.821 145.615C126.802 145.234 126.881 145.085 127.271 145.279C127.564 145.423 127.885 145.525 128.158 145.698C128.548 145.943 128.709 145.669 128.889 145.433C129.154 145.083 128.786 145.005 128.608 144.892C128.143 144.592 127.643 144.369 127.087 144.261C126.196 144.088 125.932 143.71 125.932 142.819C125.932 140.085 126.157 137.36 126.275 134.631C126.354 132.801 126.294 130.958 126.56 129.136C126.579 129.001 126.488 128.796 126.682 128.753C126.878 128.708 127.013 128.86 127.056 129.044C127.35 130.337 128.306 131.048 129.404 131.627C129.634 131.75 129.751 131.894 129.765 132.14C129.782 132.414 129.825 132.686 129.825 132.957C129.837 140.269 129.837 147.583 129.866 154.895C129.868 155.526 129.591 155.628 129.059 155.84C127.832 156.337 126.684 155.566 125.503 155.805C125.235 155.859 124.926 155.798 124.684 155.9C123.975 156.202 123.328 156.308 122.801 155.531V155.536Z" fill="white"/>
<path d="M129.864 126.007C129.056 125.433 128.213 125.18 128.016 124.247C127.997 124.154 127.942 124.043 127.866 123.991C127.051 123.422 127.204 122.571 127.322 121.82C127.487 120.749 127.286 119.662 127.485 118.625C127.686 117.578 127.264 117.162 126.416 116.68C124.773 115.746 123.879 114.222 123.539 112.388C123.397 111.632 123.543 111.497 124.281 111.686C124.732 111.802 125.194 111.783 125.64 111.731C126.21 111.667 126.433 111.901 126.596 112.416C127.073 113.91 128.445 114.969 129.832 114.874C131.51 114.761 132.571 113.886 133.012 112.629C133.534 111.143 133.033 109.64 131.799 108.786C131.294 108.437 130.75 108.21 130.098 108.281C129.624 108.333 129.071 108.453 128.671 108.281C127.401 107.723 126.066 107.877 124.626 107.822C124.928 107.319 125.256 106.988 125.609 106.681C127.482 105.055 129.653 104.71 131.955 105.473C134.205 106.22 135.642 107.829 136.086 110.134C136.67 113.187 135.345 115.652 132.636 117.081C132.283 117.268 132.008 117.28 131.67 117.044C131.121 116.661 130.534 116.33 129.864 115.916V126.007Z" fill="white"/>
<path d="M145.628 123.004C145.247 123.5 144.969 123.847 144.708 124.209C144.464 124.547 144.145 124.646 143.733 124.641C141.613 124.613 139.492 124.722 137.379 124.835C135.106 124.958 132.832 124.816 130.566 125.008C130.451 125.017 130.333 124.986 130.019 124.953C131.294 123.989 132.128 122.876 133.913 122.952C137.748 123.115 141.598 123.001 145.628 123.001V123.004Z" fill="white"/>
<path d="M142.181 155.552C147.368 153.293 150.379 149.448 151.948 144.336C152.145 145.114 152.114 145.726 151.728 147.189C150.715 151.029 148.436 153.973 145.13 156.178C144.974 156.282 144.83 156.476 144.596 156.327C143.915 155.899 143.12 155.793 142.183 155.552H142.181Z" fill="white"/>
<path d="M114.044 126.255C114.044 125.204 114.058 124.384 114.037 123.564C114.027 123.19 114.188 123.103 114.533 123.105C116.735 123.115 118.939 123.115 121.14 123.105C121.473 123.105 121.653 123.197 121.718 123.538C121.754 123.727 121.888 123.897 121.96 124.084C122.065 124.358 122.547 124.542 122.372 124.814C122.18 125.112 121.711 124.967 121.39 124.923C119.657 124.679 117.908 124.785 116.174 124.639C115.453 124.577 114.964 124.755 114.657 125.414C114.547 125.653 114.346 125.851 114.044 126.258V126.255Z" fill="white"/>
<path d="M115.537 150.457C115.228 149.776 115.22 149.131 115.316 148.496C115.493 147.319 116.409 146.636 117.755 146.657C118.294 146.664 119.104 146.454 119.281 146.926C119.451 147.382 118.852 147.928 118.455 148.344C117.635 149.207 116.531 149.687 115.537 150.455V150.457Z" fill="white"/>
<path d="M141.51 156.455C144.447 156.318 145.276 157.844 144.826 160.177C144.655 161.056 144.564 161.065 143.827 160.494C143.283 160.071 142.871 159.562 142.585 158.922C142.231 158.128 142.027 157.277 141.507 156.455H141.51Z" fill="white"/>
<path d="M125.721 147.534C123.558 146.995 123.059 145.045 122.003 143.575C123.402 143.041 125.3 143.696 125.554 145.033C125.704 145.837 125.942 146.676 125.724 147.534H125.721Z" fill="white"/>
<path d="M120.146 156.545C120.041 156.961 120.254 157.433 120.35 157.911C120.446 158.383 120.268 158.419 119.895 158.336C118.378 157.998 117.518 156.545 117.98 155.075C118.129 154.6 118.337 154.144 118.479 153.669C118.644 153.116 118.857 153.215 119.161 153.562C119.89 154.396 120.22 155.356 120.144 156.545H120.146Z" fill="white"/>
<path d="M117.029 145.629C117.671 144.488 118.467 143.745 119.624 143.715C121.14 143.672 121.759 144.854 122.381 145.972C120.541 146.763 118.908 145.504 117.027 145.629H117.029Z" fill="white"/>
<path d="M116.936 155.042C114.94 153.224 115.29 151.067 117.659 149.89C118.035 149.703 118.057 149.951 118.091 150.15C118.213 150.889 118.306 151.643 118.04 152.364C117.712 153.248 117.324 154.108 116.936 155.042Z" fill="white"/>
<path d="M125.949 108.812C127.046 108.621 127.942 108.935 128.752 109.543C129.092 109.796 129.269 110.157 129.279 110.573C129.296 111.221 129.272 111.868 129.289 112.513C129.301 112.965 129.143 113.043 128.762 112.816C127.952 112.336 127.209 111.804 126.847 110.883C126.577 110.195 126.26 109.526 125.946 108.81L125.949 108.812Z" fill="white"/>
<path d="M147.967 163.804C147.387 162.807 146.282 162.252 145.815 161.146C145.494 160.387 145.935 159.718 145.971 159.005C145.98 158.792 146.136 158.83 146.301 158.889C148.048 159.506 149.04 162.077 148.139 163.667C148.117 163.705 148.067 163.724 147.967 163.804Z" fill="white"/>
<path d="M125.113 159.199C122.885 160.314 121.509 159.182 121.22 157.206C121.169 156.857 120.848 156.374 121.184 156.183C121.531 155.985 121.996 156.306 122.379 156.488C123.263 156.909 123.776 157.428 125.11 159.199H125.113Z" fill="white"/>
<path d="M131.926 159.26C131.193 159.331 130.695 158.901 130.242 158.44C129.806 157.996 129.44 157.483 129.018 157.024C128.752 156.736 128.829 156.651 129.176 156.549C130.549 156.141 131.914 156.599 132.887 157.887C133.127 158.206 133.68 158.549 133.484 158.896C133.292 159.232 132.679 159.213 132.228 159.26C132.128 159.269 132.027 159.26 131.926 159.26Z" fill="white"/>
<path d="M129.428 159.033C127.909 159.794 126.716 159.555 125.69 158.277C125.333 157.83 125.022 157.348 124.566 156.965C126.224 156.037 127.971 156.795 129.428 159.033Z" fill="white"/>
<path d="M137.911 158.87C135.633 159.631 135.319 159.487 133.132 156.738C134.787 155.888 136.222 156.516 137.911 158.87Z" fill="white"/>
<path d="M147.193 164.582C144.61 165.563 143.074 165.263 142.121 163.611C145.084 162.55 146.124 162.736 147.193 164.582Z" fill="white"/>
<path d="M137.367 156.578C139.358 155.718 141.249 156.679 141.706 158.724C141.759 158.96 141.747 159.095 141.452 159.118C140.288 159.21 139.255 158.991 138.513 157.998C138.156 157.521 137.765 157.069 137.37 156.58L137.367 156.578Z" fill="white"/>
<path d="M121.301 110.842C121.701 110.866 122.19 110.98 122.681 111.093C123.179 111.209 123.076 111.393 122.834 111.691C122.178 112.499 121.289 112.958 120.357 113.357C120.173 113.437 119.983 113.506 119.792 113.572C119.542 113.657 119.324 114.04 119.075 113.846C118.773 113.612 118.896 113.187 118.975 112.865C119.324 111.436 120.014 110.826 121.299 110.842H121.301Z" fill="white"/>
<path d="M139.943 149.231C139.377 150.351 138.35 150.967 137.303 150.882C136.531 150.821 135.559 149.939 135.254 149.082C135.12 148.699 135.424 148.711 135.599 148.673C136.431 148.493 137.245 148.623 138.055 148.838C138.656 148.997 139.231 149.261 139.94 149.231H139.943Z" fill="white"/>
<path d="M141.807 141.103C142.71 142.03 142.885 143.103 142.554 144.14C142.24 145.123 141.253 145.423 140.276 145.591C139.936 145.65 139.893 145.513 139.902 145.239C139.929 144.504 140.168 143.838 140.585 143.237C141.04 142.58 141.443 141.897 141.809 141.103H141.807Z" fill="white"/>
<path d="M132.7 133.959C130.762 132.946 130.556 132.204 130.98 130.398C131.038 130.155 131.086 129.918 131.107 129.67C131.121 129.491 130.973 129.231 131.234 129.153C131.435 129.094 131.589 129.302 131.749 129.415C133.201 130.424 132.988 131.894 132.856 133.336C132.839 133.529 132.763 133.718 132.7 133.957V133.959Z" fill="white"/>
<path d="M125.805 123.261C127.314 124.067 127.899 125.329 127.528 126.849C127.511 126.919 127.453 126.99 127.461 127.056C127.492 127.413 127.485 127.903 127.211 128.006C126.869 128.136 126.565 127.713 126.275 127.487C125.578 126.938 125.338 126.218 125.474 125.362C125.582 124.681 125.69 124.001 125.805 123.264V123.261Z" fill="white"/>
<path d="M138.002 139.766C136.364 138.828 136.086 138.242 136.383 136.509C136.469 136.001 136.512 135.486 136.574 134.971C138.098 135.446 138.994 137.334 138.005 139.768L138.002 139.766Z" fill="white"/>
<path d="M123.105 120.284C124.068 120.846 124.622 121.607 124.708 122.625C124.77 123.358 124.729 124.1 124.571 124.83C124.509 125.121 124.399 125.164 124.174 125.034C123.275 124.514 122.353 123.658 122.616 122.33C122.748 121.664 122.93 121.007 123.105 120.284Z" fill="white"/>
<path d="M130.051 131.057C128.234 130.226 127.77 129.186 128.263 127.205C128.268 127.182 128.285 127.16 128.299 127.139C128.503 126.891 128.134 126.388 128.548 126.319C128.932 126.255 129.193 126.662 129.449 126.929C130.626 128.165 130.132 129.609 130.048 131.055L130.051 131.057Z" fill="white"/>
<path d="M121.684 117.117C123.098 118.759 122.381 120.411 121.895 122.054C120.022 121.25 119.94 119.773 121.684 117.117Z" fill="white"/>
<path d="M121.414 113.768C121.933 115.668 120.803 116.878 119.861 118.159C119.672 118.417 119.593 118.246 119.473 118.112C118.551 117.058 118.764 115.399 119.94 114.633C120.415 114.323 120.915 114.059 121.414 113.771V113.768Z" fill="white"/>
<path d="M123.558 108.595C124.701 108.595 125.853 109.666 125.913 110.757C125.932 111.105 125.676 111.138 125.407 111.145C124.864 111.157 124.375 110.944 123.905 110.727C123.201 110.401 122.504 110.048 121.727 109.954C121.148 109.883 121.392 109.661 121.593 109.46C122.142 108.912 122.765 108.512 123.555 108.595H123.558Z" fill="white"/>
<path d="M133.927 131.991C135.422 133.187 135.983 134.626 135.511 136.436C135.42 136.788 135.326 136.821 135.015 136.658C133.886 136.067 133.314 135.082 133.56 133.825C133.675 133.236 133.611 132.61 133.929 131.991H133.927Z" fill="white"/>
<path d="M138.989 140.321C139.095 139.598 139.191 138.816 139.327 138.041C139.392 137.672 139.615 137.892 139.751 137.991C140.856 138.795 141.689 139.901 140.719 141.5C140.508 141.845 140.451 142.467 140.039 142.45C139.607 142.432 139.411 141.867 139.231 141.456C139.08 141.113 138.977 140.754 138.992 140.319L138.989 140.321Z" fill="white"/>
<path d="M139.909 148.467C139.351 148.356 138.769 148.254 138.194 148.12C137.751 148.016 138.045 147.789 138.153 147.642C138.8 146.775 139.696 146.345 140.765 146.229C140.937 146.21 141.107 146.156 141.28 146.132C141.517 146.099 141.819 145.853 141.965 146.019C142.157 146.234 142.063 146.586 141.982 146.877C141.737 147.737 140.822 148.444 139.907 148.467H139.909Z" fill="white"/>
<path d="M150.358 154.864C151.026 155.729 151.472 156.691 151.814 157.757C151.141 157.268 150.468 156.774 149.792 156.287C149.608 156.155 149.615 156.015 149.72 155.838C149.912 155.521 150.036 155.162 150.358 154.862V154.864Z" fill="white"/>
<path d="M134.042 149.238C134.317 149.706 134.547 150.112 134.797 150.509C135 150.833 134.859 150.958 134.538 150.989C134.363 151.005 134.188 151.012 134.013 151.003C133.211 150.953 133.163 150.866 133.541 150.155C133.692 149.871 133.848 149.592 134.042 149.24V149.238Z" fill="white"/>
</svg>
