<svg width="260" height="260" viewBox="0 0 260 260" fill="none" xmlns="http://www.w3.org/2000/svg">
<path fill-rule="evenodd" clip-rule="evenodd" d="M33.9241 148.247C30.5852 146.199 28.1242 139.131 28.1242 130.731C28.1242 130.423 28.1256 130.119 28.1335 129.816L28.1362 129.82C18.8474 128.391 12.1365 124.475 11.9639 119.843L11.9373 119.897C9.66491 122.664 8.36735 125.861 8.36735 129.268C8.36735 139.295 19.6071 147.51 33.8643 148.237L33.9241 148.247ZM4.07227 129.999C4.07227 118.782 18.3308 109.685 35.9189 109.685C53.5083 109.685 67.7668 118.782 67.7668 129.999C67.7668 141.218 53.5083 150.315 35.9189 150.315C18.3308 150.315 4.07227 141.218 4.07227 129.999ZM35.9202 112.616C39.3162 112.616 42.2048 117.661 43.2752 124.699L43.2779 124.687C49.8852 123.68 54.5097 121.358 54.5097 118.654C54.5097 115.027 46.1864 112.09 35.9202 112.09C25.6553 112.09 17.3321 115.027 17.3321 118.654C17.3321 121.358 21.9565 123.679 28.5625 124.687L28.5665 124.699C29.6369 117.661 32.5256 112.616 35.9202 112.616ZM37.9761 148.235C52.2333 147.508 63.4744 139.293 63.4744 129.267C63.4744 125.86 62.1755 122.662 59.9044 119.896L59.8765 119.842C59.7052 124.474 52.9943 128.389 43.7042 129.819L43.7082 129.815C43.7148 130.118 43.7175 130.422 43.7175 130.73C43.7175 139.13 41.2552 146.197 37.9177 148.246L37.9761 148.235ZM35.9202 125.22C37.3942 125.222 38.8676 125.16 40.3361 125.036L40.3348 125.037C39.6309 120.527 37.9203 117.342 35.9215 117.342C33.9227 117.342 32.2135 120.527 31.5082 125.037L31.5069 125.036C32.9746 125.16 34.4471 125.221 35.9202 125.22ZM35.9202 141.926C38.4768 141.926 40.5633 136.716 40.6735 130.184L40.6868 130.188C37.5162 130.474 34.3255 130.474 31.155 130.188L31.1682 130.184C31.2785 136.716 33.3636 141.926 35.9202 141.926ZM166.582 129.999C166.582 121.426 173.682 114.473 182.438 114.473C191.198 114.473 198.297 121.426 198.297 129.999C198.297 138.576 191.197 145.525 182.438 145.525C173.682 145.525 166.582 138.576 166.582 129.999ZM182.438 139.832C187.328 139.832 191.294 135.429 191.294 129.998C191.294 124.569 187.328 120.165 182.438 120.165C177.548 120.165 173.585 124.569 173.585 129.998C173.585 135.43 177.549 139.832 182.438 139.832ZM216.29 120.942V144.82H209.607V120.942H209.631H200.288V115.544H225.609V120.942H216.29ZM233.692 138.234L233.687 138.24L231.124 144.822H223.318L235.655 115.544H243.972L256.306 144.822H248.503L245.94 138.24L245.932 138.234H233.692ZM239.813 133.292H244.018L244.016 133.293L239.841 122.578H239.784L235.61 133.293L235.607 133.292H239.813ZM93.1309 120.942V144.82H86.4492V120.942H86.4731H77.1286V115.544H102.452V120.942H93.1309ZM104.161 129.999C104.161 121.426 111.261 114.473 120.02 114.473C128.777 114.473 135.877 121.426 135.877 129.999C135.877 138.576 128.777 145.525 120.02 145.525C111.261 145.525 104.161 138.576 104.161 129.999ZM120.02 139.832C124.908 139.832 128.874 135.429 128.874 129.998C128.874 124.569 124.908 120.165 120.02 120.165C115.13 120.165 111.165 124.569 111.165 129.998C111.165 135.43 115.13 139.832 120.02 139.832ZM151.228 144.82H154.616V133.704L166.272 115.544H158.47L151.228 127.85L143.988 115.544H136.185L147.841 133.704V144.82H151.228Z" fill="#CC2229"/>
</svg>
