<svg width="260" height="260" viewBox="0 0 260 260" fill="none" xmlns="http://www.w3.org/2000/svg">
<g clip-path="url(#clip0_748_16)">
<path d="M196.333 63.667H63V197H196.333V63.667Z" fill="#FF0032"/>
<path d="M151.826 73.9209V80.0571H165.244V104.684H172.744V80.0571H186.135V73.9209H151.826Z" fill="white"/>
<path d="M103.583 73.9209L93.7644 94.2661L83.9738 73.9209H73.2559V104.684H80.783V82.6753L90.3555 101.275H97.2007L106.773 82.6753V104.684H114.273V73.9209H103.583Z" fill="white"/>
<path d="M178.633 176.492C178.442 177.719 177.951 178.728 177.16 179.492C176.424 180.201 175.415 180.719 174.16 181.019C172.933 181.292 171.106 181.455 169.197 181.455C167.206 181.455 165.46 181.21 163.96 180.692C162.515 180.201 161.369 179.328 160.579 178.128C159.76 176.928 159.351 175.183 159.351 172.919V169.783C159.351 167.546 159.76 165.801 160.579 164.574C161.397 163.374 162.515 162.501 163.96 162.01C165.433 161.492 167.206 161.247 169.197 161.247C171.106 161.247 172.933 161.41 174.16 161.683C175.415 161.983 176.424 162.474 177.16 163.21C177.951 163.974 178.442 164.983 178.633 166.21H186.132C185.914 163.674 185.069 161.519 183.569 159.774C182.206 158.192 180.296 157.047 177.924 156.338C175.633 155.656 172.606 155.301 169.197 155.301C165.597 155.301 162.488 155.819 159.924 156.829C157.333 157.865 155.315 159.583 153.924 161.956C152.588 164.219 151.906 167.274 151.852 170.983V171.337L152.261 171.365L151.852 171.392V171.419V171.746C151.906 175.456 152.588 178.51 153.924 180.773C155.315 183.146 157.333 184.864 159.924 185.901C162.488 186.91 165.597 187.428 169.197 187.428C172.606 187.428 175.633 187.073 177.924 186.392C180.296 185.682 182.178 184.537 183.569 182.955C185.069 181.237 185.942 179.055 186.132 176.519H178.633V176.492Z" fill="white"/>
</g>
<defs>
<clipPath id="clip0_748_16">
<rect width="133.333" height="133.333" fill="white" transform="translate(63 63.667)"/>
</clipPath>
</defs>
</svg>
