<svg width="260" height="260" viewBox="0 0 260 260" fill="none" xmlns="http://www.w3.org/2000/svg">
<g clip-path="url(#clip0_748_46)">
<path fill-rule="evenodd" clip-rule="evenodd" d="M130.441 59.3199C133.233 58.2234 136.102 57.2975 139.04 56.668C140.838 60.5383 141.942 64.7417 142.246 68.9978C142.526 73.5829 141.795 78.3142 139.572 82.3755C138.634 84.1786 137.405 85.8194 136.041 87.318C143.788 83.7157 152.708 83.4111 160.978 85.1005C165.43 85.9899 169.788 87.3992 173.899 89.3404C169.261 88.5972 164.586 88.0733 159.887 87.9068C154.225 87.7566 148.451 87.9921 143.017 89.7344C136.24 91.8381 130.059 96.0699 125.985 101.918C124.301 104.338 122.913 106.99 122.077 109.825C126.569 109.419 131.033 108.603 135.367 107.344C141.296 105.622 146.686 101.967 150.387 97.0161C146.073 97.1177 141.69 97.7431 137.709 99.4772C134.422 101.025 131.366 103.002 128.383 105.057C131.796 98.0842 138.724 93.0808 146.332 91.7447C151.056 90.8999 155.897 91.0055 160.658 91.4888C159.647 95.5135 157.517 99.2457 154.574 102.166C153.45 103.226 152.274 104.274 150.873 104.952C157.707 104.18 164.862 104.838 171.136 107.791C170.641 110.455 168.863 112.705 166.785 114.353C165.56 115.324 164.208 116.128 162.804 116.802C163.823 114.76 164.667 112.631 165.215 110.414C160.106 109.021 154.794 108.424 149.506 108.513C144.73 108.7 139.982 109.423 135.286 110.317C139.937 110.739 144.567 111.47 149.112 112.546C152.858 113.419 156.608 114.483 160.004 116.348C164.135 118.561 167.909 121.469 171.034 124.965C168.323 128.377 164.586 130.822 160.67 132.637C152.639 136.284 143.618 137.084 134.905 136.52C128.862 136.061 122.828 135.118 117.049 133.271C109.42 130.854 102.245 127.061 95.882 122.212C94.4089 121.05 92.8912 119.917 91.5967 118.553C98.8201 123.434 107.143 126.452 115.592 128.421C126.675 131.09 138.504 131.207 149.461 127.881C153.045 126.752 156.567 125.339 159.753 123.333C159.249 122.898 158.669 122.577 158.093 122.257C153.844 119.856 149.222 118.187 144.518 116.94C139.495 115.596 134.28 115.174 129.102 114.987C122.414 114.808 115.714 115.089 109.055 115.73C112.248 113.773 114.988 111.165 117.483 108.392C122.787 102.279 126.858 95.148 129.82 87.6307C132.596 80.1783 133.387 72.0234 132.352 64.1528C129.012 66.0413 125.88 68.279 122.946 70.7482C118.713 74.452 115.073 78.8584 112.273 83.74C111.826 81.616 111.908 79.4108 112.435 77.3111C113.592 72.4742 116.53 68.145 120.377 65.0381C123.376 62.577 126.858 60.7657 130.441 59.3199Z" fill="#D5121E"/>
<path fill-rule="evenodd" clip-rule="evenodd" d="M78.1447 86.2781C75.9615 79.5568 75.2716 72.2426 76.8055 65.306C81.2248 67.3041 85.4615 69.7449 89.3086 72.7096C96.9013 78.4359 102.14 86.9848 104.449 96.1591C105.931 91.7811 105.845 86.9848 104.754 82.5256C103.593 78.2613 101.621 74.2407 99.0805 70.6343C101.678 72.267 103.995 74.3341 106.036 76.6206C108.921 79.902 111.174 83.9267 111.584 88.3372C112.042 92.3618 111.458 96.5774 109.461 100.139C108.276 102.206 106.722 104.111 104.742 105.463C102.489 99.5339 100.217 93.5721 97.1123 88.0245C93.9226 82.9114 89.5642 78.4644 84.3658 75.39C83.2092 80.7793 83.9194 86.465 85.8551 91.5861C87.4946 95.7895 89.9498 99.668 93.0299 102.958C96.6619 106.917 100.72 110.45 104.754 113.988C100.911 111.718 97.0677 109.439 93.18 107.246C88.2697 104.517 83.4 101.666 78.1934 99.5299C75.5313 98.4658 72.7718 97.5805 69.9189 97.2109C72.4837 101.78 76.1238 105.638 79.9628 109.155C82.422 111.376 85.0354 113.419 87.73 115.348C82.5275 114.061 77.4954 111.892 73.2101 108.647C68.0887 104.866 63.8805 99.7492 61.4902 93.8239C66.291 93.4056 71.2216 93.5274 75.8762 94.8757C79.2201 95.8951 82.3286 97.5643 85.2099 99.5299C82.1825 95.5174 79.699 91.0663 78.1407 86.2741L78.1447 86.2781Z" fill="#8E1A50"/>
<path fill-rule="evenodd" clip-rule="evenodd" d="M19.6662 100.98C22.2552 103.429 25.4652 105.078 28.7076 106.487C36.3166 109.663 44.4085 111.454 52.5125 112.811C57.224 113.643 62.0288 113.96 66.651 115.252C71.8575 116.649 76.8774 118.874 81.2317 122.074C84.6649 124.637 87.676 127.829 89.7416 131.602C84.7866 127.484 78.7035 125.08 72.657 123.053C68.9032 121.839 65.0683 120.88 61.1928 120.137C52.9914 118.618 44.8995 116.502 36.9984 113.826C38.7961 115.974 40.7399 118.001 42.8704 119.82C47.8457 124.129 53.7867 127.224 59.9957 129.34C67.2881 131.752 75.0147 133.141 82.7089 132.581C78.2409 133.486 73.6837 133.945 69.1305 134.132C62.7714 134.356 56.3312 133.937 50.1669 132.28C45.0334 130.96 40.2489 128.442 36.0934 125.169C32.1205 121.993 28.7279 118.115 25.9522 113.855C23.3509 109.838 21.1961 105.517 19.6621 100.98H19.6662Z" fill="#00A7E5"/>
<path fill-rule="evenodd" clip-rule="evenodd" d="M45.4385 134.805C50.3407 136.904 55.7339 137.453 61.0135 137.57C67.8717 137.68 74.6893 136.559 81.3203 134.886C77.7735 137.298 74.1374 139.674 70.0874 141.156C67.3157 142.143 64.2965 142.16 61.4234 141.656C57.0568 141.047 52.8648 139.422 49.103 137.144C47.8571 136.401 46.6356 135.621 45.4385 134.805Z" fill="#009A4E"/>
<path fill-rule="evenodd" clip-rule="evenodd" d="M184.577 149.8C185.19 149.674 185.802 149.54 186.415 149.414C186.529 151.099 189.438 151.099 189.552 149.414C190.096 149.507 190.64 149.601 191.183 149.694C190.972 150.714 190.197 151.546 189.179 151.782C187.945 152.005 186.549 152.042 185.47 151.315C184.946 150.982 184.711 150.381 184.581 149.8H184.577ZM89.4061 152.614C91.2525 152.346 93.1436 152.143 94.99 152.505C96.033 152.712 97.1043 153.345 97.4005 154.43C97.5669 155.132 97.6887 155.892 97.5345 156.611C97.1611 157.601 96.2156 158.158 95.3187 158.601C96.5037 158.869 97.7942 159.591 98.0296 160.895C98.5896 162.82 97.1449 164.863 95.27 165.293C93.3627 165.809 91.3377 165.622 89.4061 165.33C89.4142 161.09 89.4223 156.854 89.4061 152.614ZM91.4514 154.141C91.4392 155.469 91.4432 156.797 91.4514 158.125C92.0925 158.109 92.7418 158.154 93.383 158.085C94.2109 157.939 94.9657 157.443 95.4608 156.765C95.9234 156.018 95.7611 154.844 94.9251 154.434C93.8456 153.938 92.6079 154.052 91.4554 154.141H91.4514ZM91.358 159.689C91.358 161.086 91.3621 162.483 91.358 163.88C92.7297 163.994 94.3326 164.144 95.4608 163.186C96.2805 162.349 96.1628 160.72 95.0915 160.148C93.9471 159.535 92.6039 159.721 91.358 159.689ZM104.007 152.456C105.866 152.086 108.041 152.484 109.299 154.003C110.541 155.575 110.796 157.683 110.699 159.62C110.626 161.374 110.098 163.255 108.706 164.42C107.424 165.586 105.545 165.789 103.906 165.448C102.692 165.188 101.593 164.416 100.996 163.316C99.9612 161.5 99.9125 159.315 100.059 157.285C100.27 155.096 101.747 152.886 104.007 152.456ZM104.198 154.101C103.248 154.357 102.595 155.222 102.262 156.107C101.787 157.427 101.714 158.885 102.043 160.245C102.282 161.456 102.664 162.82 103.776 163.511C104.928 164.095 106.564 163.965 107.396 162.897C108.276 161.882 108.463 160.485 108.504 159.189C108.532 157.703 108.276 156.111 107.335 154.917C106.604 153.991 105.281 153.829 104.198 154.101ZM114.956 153.179C116.746 151.928 119.115 152.078 121.108 152.7C120.978 153.276 120.848 153.853 120.727 154.434C119.245 153.971 117.439 153.812 116.088 154.714C114.733 155.656 114.449 157.435 114.428 158.97C114.469 160.217 114.68 161.569 115.528 162.54C116.79 164.079 119.172 164.002 120.824 163.206C121.031 163.799 121.25 164.388 121.392 165.001C118.921 166.203 115.581 165.947 113.71 163.783C112.278 161.752 112.018 159.068 112.578 156.692C112.886 155.283 113.682 153.922 114.956 153.187V153.179ZM135.88 152.464C137.694 152.094 139.796 152.452 141.082 153.881C142.356 155.364 142.648 157.427 142.608 159.319C142.571 161.179 142.056 163.194 140.579 164.436C139.564 165.367 138.136 165.683 136.793 165.586C135.23 165.537 133.627 164.749 132.889 163.328C131.696 161.204 131.692 158.588 132.211 156.265C132.613 154.45 134.005 152.821 135.88 152.468V152.464ZM136.087 154.129C135.251 154.389 134.674 155.14 134.329 155.912C133.777 157.268 133.684 158.795 134.001 160.221C134.195 161.508 134.703 162.918 135.896 163.592C137.012 164.047 138.493 163.945 139.309 162.974C140.287 161.898 140.469 160.371 140.485 158.978C140.485 157.536 140.205 155.993 139.256 154.864C138.505 153.946 137.154 153.825 136.082 154.133L136.087 154.129ZM121.603 152.598C124.862 152.598 128.124 152.598 131.383 152.598C131.383 153.179 131.383 153.76 131.383 154.344C130.093 154.344 128.802 154.344 127.512 154.344C127.504 158.06 127.512 161.776 127.508 165.492C126.862 165.492 126.213 165.492 125.568 165.492C125.568 161.776 125.568 158.06 125.568 154.344C124.245 154.344 122.922 154.344 121.603 154.344C121.599 153.76 121.599 153.179 121.603 152.598ZM144.657 152.602C145.339 152.598 146.017 152.594 146.698 152.602C146.723 154.028 146.666 155.457 146.727 156.883C146.735 157.687 147.092 158.596 147.932 158.848C149.113 159.153 150.464 158.962 151.463 158.235C151.45 156.294 151.459 154.357 151.459 152.415C152.096 152.415 152.737 152.415 153.382 152.415C153.402 156.716 153.402 161.017 153.382 165.318C152.741 165.306 152.1 165.306 151.463 165.31C151.459 163.567 151.455 161.825 151.463 160.083C149.994 160.818 148.236 161.098 146.65 160.603C145.505 160.245 144.783 159.104 144.714 157.939C144.604 156.16 144.694 154.381 144.665 152.602H144.657ZM156.097 152.492C156.742 152.492 157.388 152.492 158.037 152.492V157.934H163.657V152.492C164.303 152.492 164.948 152.492 165.597 152.492C165.593 156.797 165.609 161.102 165.589 165.407C164.944 165.407 164.303 165.407 163.657 165.407C163.657 163.531 163.657 161.655 163.657 159.782C161.782 159.782 159.912 159.782 158.037 159.782C158.037 161.655 158.037 163.531 158.037 165.407C157.388 165.407 156.738 165.407 156.089 165.407C156.105 161.102 156.089 156.793 156.097 152.488V152.492ZM168.312 165.22C168.332 160.972 168.288 156.728 168.336 152.484C169.006 152.501 169.675 152.497 170.345 152.497C170.345 154.117 170.345 155.737 170.345 157.358C171.985 157.041 173.872 157.078 175.247 158.142C176.375 159.096 176.582 160.733 176.351 162.118C176.136 163.563 175.048 164.839 173.624 165.22C171.891 165.655 170.049 165.557 168.308 165.22H168.312ZM170.422 159.193C170.434 160.753 170.43 162.317 170.422 163.876C171.311 164.01 172.252 163.99 173.08 163.608C174.63 163.121 174.943 160.867 173.941 159.73C173.003 158.856 171.587 158.925 170.418 159.193H170.422ZM178.193 152.497C178.839 152.497 179.484 152.497 180.133 152.497C180.133 156.801 180.133 161.106 180.133 165.411H178.181C178.189 161.106 178.193 156.801 178.198 152.497H178.193ZM182.852 152.497C183.497 152.497 184.143 152.497 184.792 152.497C184.792 155.071 184.792 157.65 184.792 160.225C184.792 160.879 184.654 161.525 184.609 162.174C185.701 160.059 187.198 158.19 188.554 156.237C189.39 154.994 190.315 153.812 191.119 152.549C191.589 152.484 192.068 152.484 192.547 152.497V165.411C191.898 165.411 191.248 165.411 190.599 165.411C190.615 163.06 190.599 160.704 190.603 158.349C190.559 157.472 190.834 156.615 190.786 155.737C190.315 156.399 190.051 157.179 189.568 157.833C187.762 160.347 186.001 162.893 184.199 165.411C183.749 165.411 183.294 165.411 182.848 165.419C182.86 161.11 182.848 156.805 182.856 152.497H182.852ZM233.055 168.404C233.664 168.299 234.272 168.169 234.881 168.039C234.983 168.392 235.137 168.733 235.34 169.046C235.932 169.237 236.582 169.411 237.19 169.16C237.71 169.054 237.872 168.473 238.018 168.039C238.558 168.128 239.106 168.222 239.649 168.315C239.43 169.168 238.895 169.984 238.018 170.268C236.878 170.662 235.575 170.65 234.447 170.228C233.672 169.956 233.156 169.2 233.055 168.404ZM196.934 174.508C197.559 172.604 199.361 171.231 201.312 170.922C202.623 170.76 203.971 170.914 205.229 171.316C205.099 171.893 204.973 172.47 204.871 173.05C203.26 172.555 201.256 172.405 199.892 173.578C198.87 174.529 198.602 176.003 198.557 177.339C198.537 178.838 198.845 180.503 200.018 181.546C201.386 182.671 203.431 182.554 204.957 181.835C205.147 182.415 205.346 183 205.537 183.585C204.206 184.328 202.615 184.422 201.13 184.239C199.75 183.999 198.411 183.236 197.603 182.07C196.244 179.824 196.142 176.973 196.934 174.512V174.508ZM88.7405 171.698C90.3516 170.938 92.2305 170.744 93.9512 171.211C95.5866 171.657 96.9744 172.949 97.4289 174.602C98.0377 176.738 98.0133 179.126 97.153 181.189C96.5605 182.684 95.1483 183.707 93.6103 184.06C92.0114 184.422 90.2339 184.462 88.7324 183.727C88.9069 183.159 89.0652 182.586 89.2234 182.017C90.3719 182.497 91.6786 182.562 92.9001 182.371C94.7912 181.973 95.9234 180.044 95.9072 178.196C94.1662 178.204 92.4212 178.196 90.6803 178.2C90.6803 177.713 90.6803 177.225 90.6763 176.742C92.4212 176.734 94.1662 176.742 95.9153 176.742C95.7814 175.341 95.2376 173.814 93.9024 173.14C92.4496 172.417 90.6235 172.6 89.2194 173.355C89.0611 172.803 88.8947 172.25 88.7365 171.694L88.7405 171.698ZM100.168 171.113C100.817 171.121 101.467 171.113 102.116 171.129C102.104 173.107 102.104 175.089 102.116 177.071C102.388 176.908 102.753 176.852 102.932 176.559C104.23 174.756 105.488 172.92 106.791 171.113C107.53 171.125 108.264 171.121 108.999 171.117C107.737 172.839 106.47 174.561 105.2 176.279C104.9 176.718 104.466 177.03 104.044 177.339C104.47 177.688 104.945 178.001 105.273 178.452C106.71 180.344 108.13 182.253 109.587 184.133C108.743 184.146 107.903 184.142 107.059 184.142C105.651 182.204 104.279 180.243 102.867 178.306H102.112C102.104 180.214 102.112 182.127 102.108 184.036C101.463 184.036 100.813 184.036 100.168 184.036C100.168 179.727 100.168 175.418 100.168 171.109V171.113ZM114.404 171.207C116.092 170.756 118.056 170.898 119.489 171.982C120.787 172.989 121.319 174.667 121.518 176.238C121.692 178.204 121.579 180.34 120.459 182.034C118.734 184.803 114.132 185.011 112.164 182.42C110.756 180.401 110.662 177.761 111.068 175.414C111.36 173.57 112.541 171.747 114.408 171.207H114.404ZM115.029 172.868C114.096 173.152 113.495 174.029 113.187 174.91C112.618 176.563 112.675 178.395 113.199 180.052C113.523 180.958 114.023 181.928 114.948 182.338C116.088 182.801 117.586 182.598 118.377 181.587C119.274 180.531 119.432 179.077 119.452 177.741C119.464 176.234 119.152 174.614 118.125 173.456C117.334 172.652 116.06 172.559 115.025 172.864L115.029 172.868ZM123.819 171.121C124.464 171.121 125.113 171.121 125.763 171.121C125.763 172.937 125.763 174.748 125.763 176.567H131.383C131.383 174.752 131.383 172.937 131.383 171.121C132.024 171.121 132.67 171.121 133.311 171.121C133.331 175.426 133.315 179.731 133.319 184.036C132.67 184.036 132.024 184.036 131.379 184.036C131.379 182.16 131.379 180.287 131.379 178.411H125.763C125.759 180.287 125.763 182.16 125.763 184.036C125.113 184.036 124.468 184.036 123.823 184.036C123.819 179.731 123.831 175.422 123.819 171.117V171.121ZM139.382 171.19C141.054 170.764 142.997 170.906 144.402 171.994C145.798 173.127 146.345 174.975 146.459 176.705C146.573 178.598 146.366 180.645 145.233 182.229C143.428 184.783 139.134 184.929 137.146 182.529C135.75 180.665 135.644 178.192 135.819 175.958C136.013 173.887 137.28 171.759 139.382 171.186V171.19ZM140.173 172.778C139.045 172.969 138.294 173.972 137.957 175C137.572 176.202 137.462 177.51 137.763 178.744C138.026 179.979 138.323 181.404 139.439 182.164C140.64 182.878 142.429 182.667 143.265 181.485C144.085 180.421 144.239 179.024 144.255 177.725C144.272 176.263 143.967 174.715 143.022 173.558C142.336 172.746 141.163 172.591 140.173 172.778ZM175.673 171.129C176.351 171.117 177.025 171.117 177.706 171.121C177.727 172.648 177.666 174.175 177.739 175.702C177.759 176.482 178.149 177.323 178.932 177.587C180.121 177.891 181.46 177.692 182.463 176.961C182.438 175.012 182.475 173.067 182.454 171.117C183.104 171.121 183.749 171.121 184.398 171.121C184.39 175.426 184.406 179.735 184.39 184.04C183.745 184.036 183.104 184.036 182.463 184.04C182.446 182.233 182.471 180.425 182.442 178.618C180.945 179.37 179.123 179.654 177.52 179.081C176.363 178.671 175.755 177.432 175.702 176.267C175.641 174.553 175.702 172.839 175.673 171.121V171.129ZM207.461 171.117C208.106 171.117 208.755 171.117 209.404 171.117C209.404 173.099 209.396 175.085 209.408 177.067C210.2 176.868 210.52 176.092 210.967 175.499C212.006 174.037 213.02 172.567 214.071 171.117C214.81 171.117 215.552 171.113 216.291 171.125C214.972 172.888 213.682 174.671 212.379 176.441C212.103 176.811 211.701 177.063 211.332 177.327C212.367 178.021 213.02 179.102 213.775 180.068C214.798 181.429 215.836 182.777 216.851 184.146C216.011 184.137 215.171 184.146 214.331 184.137C212.931 182.184 211.567 180.206 210.11 178.297C209.932 178.297 209.579 178.306 209.4 178.31V184.036C208.751 184.036 208.106 184.036 207.461 184.036C207.452 179.731 207.465 175.422 207.452 171.113L207.461 171.117ZM148.715 171.227C149.263 171.227 149.811 171.227 150.363 171.219C151.548 173.172 152.713 175.142 153.893 177.099C154.275 177.7 154.482 178.391 154.762 179.045C155.074 178.5 155.233 177.883 155.529 177.331C156.702 175.341 157.842 173.326 159.003 171.328C159.546 171.324 160.094 171.324 160.642 171.328C160.626 175.625 160.679 179.926 160.622 184.223C159.981 184.211 159.344 184.215 158.71 184.215C158.739 180.795 158.613 177.363 158.852 173.948C157.923 176.592 156.32 178.915 155.05 181.396C154.847 181.396 154.64 181.396 154.441 181.404C153.407 179.759 152.396 178.102 151.377 176.445C150.919 175.706 150.692 174.858 150.278 174.094C150.229 174.882 150.57 175.666 150.562 176.47C150.582 179.028 150.578 181.583 150.566 184.142C149.949 184.142 149.336 184.142 148.719 184.146C148.723 179.841 148.728 175.532 148.711 171.227H148.715ZM163.369 171.227C164.014 171.227 164.66 171.227 165.305 171.227C165.305 173.672 165.297 176.117 165.309 178.561C165.329 179.353 165.179 180.141 165.118 180.929C165.78 179.666 166.53 178.46 167.395 177.323C168.852 175.296 170.248 173.225 171.737 171.219C172.175 171.219 172.614 171.219 173.06 171.227C173.052 175.532 173.068 179.837 173.052 184.142C172.407 184.142 171.765 184.142 171.124 184.142C171.12 181.867 171.128 179.593 171.12 177.319C171.08 176.348 171.319 175.398 171.303 174.427C170.321 176.393 168.953 178.115 167.711 179.914C166.709 181.319 165.723 182.74 164.712 184.137C164.266 184.137 163.816 184.137 163.373 184.137C163.373 179.833 163.373 175.528 163.373 171.219L163.369 171.227ZM187.117 171.227C189.568 171.227 192.023 171.227 194.479 171.227C194.479 171.808 194.479 172.388 194.479 172.969C192.697 172.969 190.916 172.969 189.138 172.969C189.15 174.204 189.15 175.434 189.138 176.673C190.753 176.669 192.368 176.669 193.988 176.673C193.988 177.254 193.988 177.834 193.971 178.419C192.36 178.403 190.749 178.419 189.138 178.411C189.15 179.731 189.138 181.055 189.146 182.375C190.952 182.367 192.758 182.383 194.564 182.367C194.576 182.96 194.576 183.557 194.564 184.154C192.08 184.133 189.597 184.146 187.113 184.146C187.125 179.841 187.113 175.532 187.121 171.227H187.117ZM218.803 171.227C219.448 171.227 220.093 171.227 220.739 171.227C220.739 173.672 220.731 176.117 220.743 178.565C220.767 179.357 220.609 180.141 220.552 180.933C221.209 179.812 221.814 178.655 222.626 177.631C224.139 175.495 225.641 173.347 227.167 171.219C227.609 171.223 228.051 171.227 228.494 171.227C228.486 175.532 228.506 179.837 228.486 184.142C227.84 184.142 227.199 184.142 226.558 184.142C226.554 181.729 226.562 179.321 226.554 176.908C226.534 176.08 226.826 175.268 226.676 174.443C225.925 176.186 224.707 177.648 223.652 179.203C222.496 180.823 221.355 182.452 220.203 184.077C219.757 184.215 219.266 184.117 218.803 184.142C218.803 179.837 218.803 175.532 218.803 171.223V171.227ZM231.306 171.227C231.951 171.227 232.601 171.227 233.246 171.227C233.246 173.745 233.242 176.267 233.25 178.781C233.258 179.504 233.104 180.214 233.055 180.933C234.061 179.016 235.372 177.29 236.618 175.524C237.633 174.09 238.643 172.648 239.666 171.219C240.108 171.223 240.554 171.223 241.001 171.227C241.001 175.532 241.001 179.841 241.001 184.146C240.351 184.142 239.706 184.142 239.061 184.146C239.114 180.905 238.923 177.652 239.248 174.427C238.302 176.324 236.991 177.993 235.786 179.727C234.755 181.181 233.729 182.643 232.698 184.097C232.239 184.182 231.769 184.129 231.306 184.142C231.318 179.837 231.306 175.532 231.314 171.223L231.306 171.227ZM94.4544 189.669C95.0996 189.665 95.7448 189.665 96.3901 189.669C96.3941 190.213 96.3941 190.761 96.382 191.305C97.6481 191.159 99.0603 191.102 100.148 191.89C101.459 192.747 102.039 194.351 102.088 195.866C102.149 197.446 101.921 199.233 100.7 200.366C99.6244 201.552 97.8875 201.739 96.382 201.519C96.3941 202.125 96.3941 202.73 96.386 203.335C95.7408 203.343 95.0955 203.343 94.4503 203.339C94.4503 202.693 94.4503 202.056 94.4503 201.414C93.0665 201.556 91.4716 201.629 90.3557 200.65C89.0124 199.562 88.6634 197.71 88.7608 196.069C88.7811 194.595 89.3087 193.06 90.4896 192.118C91.5609 191.171 93.0827 190.989 94.4503 191.196C94.4503 190.684 94.4503 190.172 94.4503 189.665L94.4544 189.669ZM92.3644 192.853C91.3702 193.393 90.9157 194.567 90.8183 195.643C90.7168 196.882 90.8305 198.295 91.7476 199.229C92.4578 199.984 93.59 199.887 94.5274 199.781C94.5558 197.414 94.5355 195.042 94.5355 192.674C93.8132 192.605 93.03 192.475 92.3644 192.853ZM96.382 192.759C96.3941 195.123 96.3982 197.491 96.382 199.854C97.226 199.846 98.1919 199.944 98.8777 199.335C99.9287 198.441 100.14 196.959 100.059 195.659C100.014 194.579 99.5919 193.401 98.6139 192.837C97.924 192.443 97.1165 192.625 96.386 192.759H96.382ZM107.323 189.937C109.055 189.429 111.076 189.64 112.521 190.786C113.694 191.716 114.165 193.226 114.4 194.652C114.607 196.272 114.55 197.958 114.01 199.509C113.463 201.061 112.192 202.413 110.553 202.787C108.682 203.209 106.405 202.872 105.18 201.255C103.788 199.448 103.691 197.028 103.816 194.839C103.975 192.735 105.221 190.574 107.323 189.937ZM106.527 192.634C105.529 194.181 105.444 196.175 105.882 197.925C106.146 199.058 106.523 200.325 107.582 200.967C108.609 201.499 109.924 201.377 110.861 200.703C111.47 200.041 111.937 199.249 112.087 198.352C112.444 196.447 112.383 194.319 111.316 192.638C110.318 190.989 107.538 191.005 106.527 192.634ZM116.843 190.03C118.929 189.693 121.181 189.531 123.174 190.371C125.905 191.5 125.966 195.915 123.486 197.353C122.086 198.222 120.386 198.291 118.791 198.165C118.799 199.7 118.791 201.231 118.795 202.766C118.146 202.766 117.5 202.766 116.855 202.766C116.847 198.522 116.855 194.274 116.843 190.03ZM118.702 191.59C118.689 193.198 118.657 194.806 118.718 196.414C119.887 196.447 121.177 196.557 122.2 195.874C123.389 194.883 123.405 192.516 121.867 191.846C120.901 191.301 119.744 191.399 118.698 191.59H118.702ZM125.361 189.864C127 193.036 128.62 196.215 130.231 199.399C129.999 199.976 129.821 200.663 129.253 201.004C128.709 201.223 128.12 201.012 127.597 200.837C127.41 201.381 127.224 201.926 127.029 202.474C128.267 203.059 130.064 203.063 130.9 201.816C131.858 200.212 132.45 198.433 133.152 196.715C134.049 194.424 134.954 192.138 135.839 189.848C135.161 189.848 134.479 189.848 133.802 189.864C133.132 191.777 132.442 193.685 131.752 195.594C131.481 196.345 131.432 197.15 131.253 197.925C130.99 197.154 130.925 196.317 130.523 195.594C129.565 193.685 128.644 191.76 127.686 189.852C126.911 189.852 126.132 189.839 125.357 189.872L125.361 189.864ZM137.093 189.843C137.742 189.957 138.765 189.494 139.045 190.331C140.112 192.146 141.204 193.945 142.287 195.753C142.653 196.354 142.868 197.024 143.135 197.669C144.296 194.961 145.96 192.508 147.396 189.945C147.94 189.945 148.484 189.945 149.028 189.965C148.995 194.23 149.024 198.49 149.02 202.758C148.37 202.766 147.721 202.77 147.072 202.75C147.1 200.252 147.052 197.751 147.096 195.257C147.271 194.404 147.323 193.531 147.364 192.662C146.922 193.45 146.731 194.36 146.256 195.135C145.315 196.743 144.377 198.356 143.44 199.968C143.286 199.992 142.973 200.033 142.819 200.057C141.804 198.368 140.749 196.711 139.719 195.034C139.288 194.339 139.077 193.543 138.712 192.816C138.659 193.706 138.96 194.563 138.943 195.452C138.927 197.889 138.952 200.325 138.943 202.762H137.093C137.093 198.457 137.093 194.152 137.085 189.843H137.093Z" fill="white"/>
</g>
<defs>
<clipPath id="clip0_748_46">
<rect width="221.333" height="146.667" fill="white" transform="translate(19.667 56.667)"/>
</clipPath>
</defs>
</svg>
