<svg width="412" height="200" viewBox="0 0 412 200" fill="none" xmlns="http://www.w3.org/2000/svg">
<path d="M20.7224 125.31C14.7188 125.31 9.77942 123.451 5.86403 119.713C1.94863 115.974 0.000976562 111.076 0.000976562 104.999C0.000976562 99.3008 1.8884 94.5027 5.66324 90.6043C9.43808 86.7058 14.2369 84.7666 20.0799 84.7666C25.9229 84.7666 30.5411 86.7258 34.1352 90.6443C37.7293 94.5627 39.5163 99.7007 39.5163 106.038V108.277H10.683C11.0042 110.836 12.1487 112.975 14.1366 114.675C16.1244 116.374 18.6945 117.234 21.8469 117.234C23.5536 117.234 25.4209 116.894 27.4288 116.194C29.4367 115.494 31.0229 114.575 32.2076 113.395L36.7053 119.953C32.7899 123.531 27.469 125.31 20.7224 125.31ZM29.6375 101.4C29.4769 99.2209 28.6135 97.2416 27.0272 95.4823C25.441 93.723 23.1319 92.8434 20.0799 92.8434C17.1886 92.8434 14.9397 93.703 13.3334 95.4424C11.7271 97.1817 10.7834 99.1609 10.5223 101.4H29.6375Z" fill="#D9D6AE"/>
<path d="M82.2436 124.351H71.9632V119.392C68.8108 123.331 64.8151 125.31 59.9962 125.31C55.1772 125.31 50.8402 123.511 47.6275 119.912C44.4149 116.314 42.8086 111.376 42.8086 105.078C42.8086 98.7807 44.4149 93.9626 47.6275 90.2841C50.8402 86.6055 54.9564 84.7663 59.9962 84.7663C65.036 84.7663 68.9112 86.7455 71.9632 90.6839V71.0117H82.2436V124.351ZM63.1285 116.274C64.8352 116.274 66.5218 115.854 68.1884 115.034C69.8549 114.215 71.0998 113.155 71.9632 111.875V98.2009C71.0998 96.9214 69.8549 95.8618 68.1884 95.0422C66.5218 94.2225 64.8352 93.8027 63.1285 93.8027C60.2371 93.8027 57.8879 94.8422 56.0607 96.9214C54.2335 99.0006 53.33 101.72 53.33 105.078C53.33 108.437 54.2335 111.076 56.0607 113.155C57.8879 115.234 60.2371 116.274 63.1285 116.274Z" fill="#D9D6AE"/>
<path d="M129.311 124.351H119.031V119.392C115.878 123.331 111.882 125.31 107.064 125.31C102.245 125.31 97.9075 123.511 94.6949 119.912C91.4823 116.314 89.876 111.376 89.876 105.078C89.876 98.7807 91.4823 93.9626 94.6949 90.2841C97.9075 86.6055 102.024 84.7663 107.064 84.7663C112.103 84.7663 115.979 86.7455 119.031 90.6839V71.0117H129.311V124.351ZM110.196 116.274C111.903 116.274 113.589 115.854 115.256 115.034C116.922 114.215 118.167 113.155 119.031 111.875V98.2009C118.167 96.9214 116.922 95.8618 115.256 95.0422C113.589 94.2225 111.903 93.8027 110.196 93.8027C107.304 93.8027 104.955 94.8422 103.128 96.9214C101.301 99.0006 100.397 101.72 100.397 105.078C100.397 108.437 101.301 111.076 103.128 113.155C104.955 115.234 107.304 116.274 110.196 116.274Z" fill="#D9D6AE"/>
<path d="M144.489 81.5684C142.822 81.5684 141.397 80.9686 140.192 79.7691C138.987 78.5696 138.385 77.1501 138.385 75.4908C138.385 73.8314 138.987 72.432 140.192 71.2525C141.397 70.0729 142.822 69.4932 144.489 69.4932C146.155 69.4932 147.641 70.0729 148.826 71.2525C150.01 72.432 150.593 73.8314 150.593 75.4908C150.593 77.1501 150.01 78.5696 148.826 79.7691C147.641 80.9686 146.195 81.5684 144.489 81.5684ZM149.629 124.351H139.429V85.7267H149.629V124.351Z" fill="#D9D6AE"/>
<path d="M173.723 125.31C170.35 125.31 167.117 124.771 164.045 123.711C160.973 122.652 158.403 121.172 156.375 119.313L160.792 112.196C162.298 113.575 164.326 114.815 166.896 115.874C169.466 116.934 171.896 117.474 174.205 117.474C176.354 117.474 177.96 117.094 179.064 116.354C180.169 115.614 180.711 114.595 180.711 113.315C180.711 112.356 180.128 111.576 178.984 110.956C177.839 110.336 176.414 109.897 174.727 109.637C173.041 109.377 171.193 108.977 169.185 108.437C167.177 107.897 165.33 107.258 163.644 106.518C161.957 105.778 160.531 104.579 159.387 102.959C158.242 101.34 157.66 99.3208 157.66 96.9218C157.66 93.5031 159.086 90.6243 161.917 88.2852C164.748 85.9461 168.643 84.7666 173.563 84.7666C179.566 84.7666 184.787 86.5259 189.224 90.0445L185.128 97.0017C183.903 95.7222 182.257 94.6627 180.189 93.803C178.12 92.9434 175.952 92.5235 173.643 92.5235C171.816 92.5235 170.35 92.8834 169.226 93.6031C168.101 94.3228 167.539 95.2424 167.539 96.362C167.539 97.2216 168.101 97.9214 169.226 98.4811C170.35 99.0409 171.776 99.4608 173.482 99.7207C175.189 99.9806 177.036 100.4 179.024 100.96C181.012 101.52 182.859 102.18 184.566 102.959C186.273 103.739 187.698 104.979 188.823 106.678C189.947 108.377 190.509 110.456 190.509 112.915C190.509 116.534 189.023 119.513 186.052 121.832C183.08 124.151 178.964 125.31 173.723 125.31Z" fill="#D9D6AE"/>
<path d="M230.989 119.433C227.234 123.351 222.254 125.31 216.05 125.31C209.845 125.31 204.866 123.351 201.151 119.433C197.437 115.514 195.569 110.696 195.569 104.999C195.569 99.3008 197.437 94.5027 201.151 90.6043C204.866 86.7058 209.845 84.7666 216.05 84.7666C222.254 84.7666 227.234 86.7058 230.989 90.6043C234.743 94.5027 236.611 99.3008 236.611 104.999C236.611 110.696 234.743 115.514 230.989 119.433ZM208.821 113.035C210.588 115.195 212.998 116.274 216.05 116.274C219.102 116.274 221.531 115.195 223.318 113.035C225.105 110.876 226.009 108.197 226.009 104.999C226.009 101.8 225.105 99.2009 223.318 97.0417C221.531 94.8826 219.102 93.803 216.05 93.803C212.998 93.803 210.588 94.8826 208.821 97.0417C207.054 99.2009 206.171 101.86 206.171 104.999C206.171 108.137 207.054 110.876 208.821 113.035Z" fill="#D9D6AE"/>
<path d="M280.543 124.351H270.343V101C270.343 96.2021 267.954 93.803 263.195 93.803C259.5 93.803 256.549 95.3224 254.36 98.3612V124.351H244.16V85.7262H254.36V90.7642C257.734 86.7658 262.251 84.7666 267.934 84.7666C272.11 84.7666 275.262 85.8662 277.371 88.0453C279.479 90.2244 280.543 93.2432 280.543 97.0817V124.351Z" fill="#D9D6AE"/>
<path d="M35.9824 184.326H25.7823V180.328C22.9914 183.627 18.8953 185.286 13.494 185.286C10.0204 185.286 6.88805 184.147 4.13724 181.887C1.38642 179.628 0.000976562 176.49 0.000976562 172.491C0.000976562 168.493 1.34627 165.214 4.05692 163.135C6.76758 161.056 9.8999 160.016 13.494 160.016C19.0157 160.016 23.1118 161.595 25.7823 164.734V159.536C25.7823 157.557 24.9993 155.998 23.4532 154.818C21.9071 153.639 19.839 153.059 17.2689 153.059C13.0322 153.059 9.25737 154.578 5.94434 157.617L2.08919 150.82C6.68726 146.761 12.3495 144.742 19.0358 144.742C24.0154 144.742 28.0914 145.882 31.2438 148.181C34.3962 150.48 35.9824 154.198 35.9824 159.376V184.326ZM17.5901 178.409C21.3851 178.409 24.1158 177.289 25.7823 175.05V170.252C24.1158 168.013 21.3851 166.893 17.5901 166.893C15.5019 166.893 13.7551 167.413 12.3696 168.453C10.9842 169.492 10.2814 170.912 10.2814 172.731C10.2814 174.55 10.9842 175.87 12.3696 176.889C13.7551 177.909 15.5019 178.409 17.5901 178.409Z" fill="#D9D6AE"/>
<path d="M62.0056 200C55.3193 200 49.7374 198.081 45.2999 194.243L49.8779 186.885C52.7693 190.084 56.8052 191.684 62.0056 191.684C64.897 191.684 67.4068 190.924 69.5151 189.404C71.6234 187.885 72.6876 185.386 72.6876 181.927V178.009C69.475 182.067 65.4793 184.087 60.7205 184.087C55.6807 184.087 51.5846 182.367 48.3921 178.929C45.1995 175.49 43.6133 170.652 43.6133 164.414C43.6133 158.177 45.1995 153.399 48.3921 149.94C51.5846 146.481 55.6807 144.742 60.7205 144.742C65.7604 144.742 69.5352 146.721 72.6876 150.66V145.702H82.968V181.687C82.968 185.206 82.3456 188.225 81.0806 190.724C79.8156 193.223 78.129 195.122 75.9805 196.402C73.8321 197.681 71.6234 198.601 69.3545 199.161C67.0856 199.72 64.6359 200 62.0056 200ZM63.9332 175.05C65.5997 175.05 67.2462 174.63 68.9128 173.771C70.5793 172.911 71.8242 171.871 72.6876 170.652V158.177C71.8242 156.897 70.5793 155.838 68.9529 155.018C67.3265 154.198 65.6399 153.779 63.9332 153.779C60.9816 153.779 58.6123 154.738 56.8252 156.657C55.0382 158.577 54.1346 161.156 54.1346 164.414C54.1346 167.673 55.0382 170.252 56.8252 172.171C58.6123 174.091 60.9816 175.05 63.9332 175.05Z" fill="#D9D6AE"/>
<path d="M111.318 185.286C105.315 185.286 100.375 183.427 96.4597 179.688C92.5443 175.95 90.5967 171.052 90.5967 164.974C90.5967 159.276 92.4841 154.478 96.2589 150.58C100.034 146.681 104.833 144.742 110.676 144.742C116.519 144.742 121.137 146.701 124.731 150.62C128.325 154.538 130.112 159.676 130.112 166.014V168.253H101.279C101.6 170.812 102.744 172.951 104.732 174.65C106.72 176.35 109.29 177.209 112.443 177.209C114.149 177.209 116.017 176.869 118.025 176.17C120.032 175.47 121.619 174.55 122.803 173.371L127.301 179.928C123.386 183.507 118.065 185.286 111.318 185.286ZM120.233 161.376C120.073 159.196 119.209 157.217 117.623 155.458C116.037 153.699 113.728 152.819 110.676 152.819C107.784 152.819 105.535 153.679 103.929 155.418C102.323 157.157 101.379 159.136 101.118 161.376H120.233Z" fill="#D9D6AE"/>
<path d="M173.885 184.326H163.685V160.976C163.685 156.178 161.295 153.779 156.537 153.779C152.842 153.779 149.891 155.298 147.702 158.337V184.326H137.502V145.702H147.702V150.74C151.075 146.741 155.593 144.742 161.275 144.742C165.452 144.742 168.604 145.842 170.713 148.021C172.821 150.2 173.885 153.219 173.885 157.057V184.326Z" fill="#D9D6AE"/>
<path d="M202.075 185.286C196.072 185.286 191.153 183.387 187.297 179.608C183.442 175.83 181.515 170.952 181.515 164.974C181.515 158.997 183.442 154.198 187.297 150.42C191.153 146.641 196.072 144.742 202.075 144.742C208.922 144.742 214.043 147.061 217.416 151.699L210.75 157.937C208.882 155.158 206.152 153.779 202.557 153.779C199.445 153.779 196.915 154.798 194.968 156.857C193.02 158.917 192.036 161.615 192.036 164.974C192.036 168.333 193.02 171.052 194.968 173.131C196.915 175.21 199.445 176.25 202.557 176.25C206.031 176.25 208.762 174.87 210.75 172.091L217.416 178.249C214.043 182.947 208.922 185.286 202.075 185.286Z" fill="#D9D6AE"/>
<path d="M222.716 199.443L224.242 190.326C225.206 190.746 226.27 190.966 227.455 190.966C230.186 190.966 231.973 190.026 232.836 188.167L234.282 184.889L218.54 145.704H229.463L239.583 172.573L249.703 145.704H260.706L242.474 190.646C241.129 194.065 239.262 196.444 236.852 197.803C234.443 199.163 231.411 199.903 227.776 200.003C225.909 200.003 224.222 199.823 222.716 199.443Z" fill="#D9D6AE"/>
<path d="M342.909 35.7068C343.11 34.8871 343.01 34.3673 342.849 34.1874C342.829 34.1474 342.749 34.0474 342.508 34.0474C341.925 34.0474 340.841 34.6872 340.419 36.4065C338.572 44.1234 328.754 45.0231 325.541 45.303L324.698 45.3829L324.035 44.2834C323.613 43.5836 323.172 42.8639 322.891 42.3441C322.087 40.7648 322.87 39.3653 323.332 38.5257C323.433 38.3457 323.533 38.1658 323.613 38.0059C324.135 36.8663 324.597 35.8467 324.417 35.047C324.196 34.0075 323.212 33.3677 322.469 32.4081L321.304 30.9287C320.983 30.5288 320.602 30.209 320.1 29.8091C319.638 29.4493 319.156 29.0694 318.694 28.7296C316.666 24.2313 301.908 24.5312 297.109 24.8511C292.31 25.171 296.306 26.4505 297.109 26.6304C297.752 26.7703 305.141 29.0094 310.281 29.8091C310.442 29.9891 309.879 32.4881 307.49 31.7484C303.735 29.9691 298.113 28.7296 294.077 29.9491C290.784 30.9287 299.197 36.1466 308.032 37.5261C308.775 38.1858 309.317 38.9255 309.679 39.7052C310.723 42.0842 309.598 44.1434 309.157 44.9431C309.116 45.263 308.976 45.6028 308.755 45.9427C308.634 46.1226 307.55 47.642 306.546 47.662C306.366 47.662 306.185 47.662 306.004 47.662H305.582C305.342 47.662 305.101 47.662 304.86 47.662C304.478 47.662 304.097 47.662 303.715 47.662C302.35 47.622 300.944 47.2422 299.82 46.9623C299.499 46.8823 299.157 46.8024 298.836 46.7224C297.993 46.5225 297.109 46.3026 296.226 46.0027C295.643 45.8028 295.061 45.5229 294.419 45.143L294.198 45.0231C293.676 44.7232 293.113 44.3833 292.591 43.8635C291.688 42.9639 290.885 41.9443 290.082 40.8847C289.72 40.4049 289.399 39.9051 289.078 39.4253L288.837 39.0654C288.475 38.5257 288.074 37.9059 287.893 37.0862L287.793 36.6464C287.672 36.1466 287.532 35.6268 287.471 35.0271C287.391 34.4073 287.21 33.7675 287.009 33.1078C286.829 32.528 286.648 31.8083 286.568 31.0286C286.548 30.7488 286.548 30.4689 286.568 30.209V29.9891C286.568 29.9891 286.528 29.6892 286.487 29.5492L286.427 29.2693C286.267 28.5496 286.206 27.61 287.07 26.7104C287.351 26.4305 287.652 26.1506 287.933 25.8907C288.094 25.7307 288.274 25.5908 288.435 25.4309C288.576 25.2909 288.696 25.151 288.837 25.011C289.058 24.7711 289.319 24.4912 289.62 24.2313C289.981 23.9115 290.343 23.5916 290.684 23.2517C290.684 23.2517 291.367 22.592 291.567 22.3921C291.788 22.1722 292.029 21.9522 292.25 21.7323C292.511 21.4724 292.792 21.2525 293.073 21.0126C293.274 20.8527 293.475 20.6927 293.676 20.5128C294.298 19.9331 294.961 19.4532 295.603 18.9734C295.884 18.7535 296.186 18.5336 296.467 18.3137L296.908 17.9738C297.189 17.7539 297.491 17.534 297.752 17.3141C298.013 17.0942 298.274 16.8943 298.555 16.7143C298.635 16.6544 298.715 16.5944 298.776 16.5344C298.916 16.4144 299.057 16.2945 299.217 16.1945C299.458 16.0146 299.719 15.7947 300.001 15.5548C300.141 15.4348 300.282 15.3149 300.422 15.1949C300.683 14.975 300.924 14.7751 301.205 14.5952C301.286 14.5352 301.366 14.4952 301.446 14.4552H301.466C301.747 14.0354 302.089 13.7155 302.37 13.4556L302.591 13.2557C302.812 13.0358 303.053 12.8359 303.293 12.616C303.514 12.436 303.715 12.2361 303.936 12.0362C304.398 11.5764 304.84 11.0566 305.301 10.5168C305.623 10.1369 305.924 9.7571 306.265 9.39724C306.386 9.27729 306.486 9.13734 306.607 8.9974C306.888 8.67753 307.189 8.31767 307.55 7.9978C307.791 7.79788 308.032 7.59796 308.273 7.41803C308.313 7.37804 308.414 7.2381 308.474 7.11815L308.554 6.99819C308.896 6.45841 309.277 5.95861 309.659 5.43881L309.799 5.23889C310.1 4.81906 310.462 4.31926 311.084 3.93941C311.205 3.85944 311.365 3.69951 311.526 3.53957C311.747 3.31966 311.968 3.11974 312.209 2.93981L312.55 2.6999C312.891 2.46 313.172 2.24009 313.413 2.00018L313.915 1.50038C313.915 1.50038 313.935 1.4404 313.955 1.40042C313.996 1.30046 314.036 1.2005 314.076 1.12053L314.176 0.920611C314.377 0.480786 314.437 0.300857 314.397 0.120929C314.397 0.0809448 314.397 0.0409607 314.357 0.000976562C314.277 0.000976562 314.176 0.000976562 314.096 0.000976562C313.996 0.000976562 313.875 0.000976562 313.775 0.000976562H313.654C313.393 0.0809448 313.132 0.200897 312.851 0.340841C312.67 0.440802 312.47 0.52077 312.289 0.600738C312.209 0.660714 312.068 1.00058 312.008 1.10054C311.446 2.34005 310.502 3.01978 309.679 3.59955C309.518 3.69951 309.377 3.81946 309.217 3.93941C309.096 4.03937 308.976 4.2193 308.815 4.49919C308.735 4.63913 308.655 4.75908 308.554 4.89903C308.173 5.4788 307.711 5.89863 307.309 6.27848L307.129 6.43842C307.008 6.55837 306.908 6.67832 306.787 6.81827C306.566 7.07816 306.325 7.35805 305.984 7.61795C305.864 7.71791 305.743 7.79788 305.643 7.87784C305.362 8.07777 305.141 8.2377 305.02 8.41763C304.699 8.89744 304.378 9.35726 303.976 9.81707L303.876 9.93703C303.695 10.1369 303.514 10.3369 303.314 10.5168C303.273 10.5568 303.233 10.5968 303.133 10.7167L302.972 10.9166C302.069 11.9962 301.045 12.8359 300.241 13.4356L299.88 13.7155C299.579 13.9354 299.298 14.1553 299.057 14.3753C298.715 14.6951 298.354 14.955 298.033 15.1749C297.852 15.2949 297.691 15.4148 297.511 15.5548C297.39 15.6548 297.29 15.7547 297.169 15.8547C296.848 16.1346 296.467 16.4544 296.025 16.7143L295.864 16.8143C295.423 17.0542 295.041 17.2741 294.74 17.554C294.479 17.7939 294.198 18.0338 293.917 18.2537C293.736 18.3937 293.555 18.5536 293.374 18.7135L293.254 18.8335C293.053 19.0134 292.812 19.2333 292.511 19.4133C292.391 19.4732 292.29 19.5332 292.17 19.5932C292.11 19.6332 292.029 19.6532 292.009 19.6732L291.668 20.033C291.387 20.3529 291.085 20.6528 290.764 20.9526C290.363 21.3325 289.921 21.6124 289.519 21.9123L289.218 22.1122C289.078 22.2121 288.977 22.3121 288.837 22.4121C288.576 22.652 288.254 22.9119 287.853 23.1318C287.712 23.2117 287.552 23.3517 287.371 23.4916C287.13 23.6916 286.869 23.9115 286.548 24.0914C286.367 24.1914 286.166 24.2913 285.985 24.3713C285.845 24.4313 285.644 24.5312 285.604 24.5712C285.002 25.2509 284.319 25.4708 283.777 25.6508L283.596 25.7108C283.596 25.7108 283.275 25.9307 283.114 26.0706C282.933 26.2106 282.753 26.3705 282.592 26.4904C282.391 26.6304 282.17 26.7703 281.97 26.8903C281.689 27.0702 281.407 27.2501 281.126 27.4501C280.745 27.7499 280.403 28.0898 279.982 28.5096C279.64 28.8495 279.279 29.1094 278.978 29.3293C278.837 29.4293 278.677 29.5492 278.536 29.6692C278.155 29.9691 277.773 30.2689 277.392 30.5688L277.231 30.6888C277.111 30.7887 276.97 30.9287 276.829 31.0886C276.609 31.3285 276.368 31.5884 276.066 31.8283L275.986 31.8883C275.585 32.1882 275.263 32.4481 274.982 32.748C274.882 32.8479 274.761 33.0878 274.661 33.3077C274.52 33.5676 274.4 33.8275 274.239 34.0274C274.239 34.0474 274.239 34.1474 274.259 34.3273C274.259 34.3473 274.259 34.3673 274.259 34.4073L274.761 34.8071C274.761 34.8071 274.922 34.7871 274.982 34.7672C275.143 34.7472 275.324 34.7272 275.484 34.7072C276.046 34.6672 276.629 34.6072 277.111 34.4873C278.416 34.1274 279.58 33.2677 280.805 32.3481C281.367 31.9283 281.909 31.5284 282.492 31.1486L284.279 29.9891L284.62 32.3081C284.7 32.8279 284.761 33.3077 284.881 33.8275C285.022 34.5073 285.182 35.187 285.343 35.8667C285.624 37.0662 285.945 38.2658 286.246 39.4453L286.307 39.6652C286.367 39.8851 286.447 40.105 286.528 40.3249C286.648 40.6648 286.789 41.0447 286.869 41.4445C287.03 42.1442 287.21 42.724 287.451 43.2438C287.692 43.7236 287.933 44.2234 288.234 44.5833C288.515 44.9231 288.716 45.243 288.877 45.6428C288.877 45.6828 288.937 45.7428 289.017 45.8228C289.078 45.9027 289.158 45.9827 289.218 46.0627L289.419 46.3425C289.68 46.6824 289.921 47.0223 290.182 47.2422C290.323 47.3621 290.483 47.5021 290.644 47.622C290.905 47.842 291.186 48.0419 291.427 48.2818C292.11 48.9015 292.832 49.4613 293.615 50.0411L294.057 50.361C294.218 50.4809 294.419 50.6009 294.66 50.7208C294.9 50.8408 295.141 50.9807 295.362 51.1206C295.583 51.2606 295.784 51.4005 296.005 51.5405C296.286 51.7404 296.587 51.9403 296.868 52.1203C297.41 52.4601 297.973 52.74 298.555 53.0599C299.037 53.3198 299.539 53.5797 300.001 53.8596C300.984 54.4393 301.968 55.0391 302.952 55.6389L303.836 56.1786C304.137 56.3586 304.418 56.5385 304.719 56.7184C304.96 56.7984 305.221 56.8784 305.462 56.9783C306.125 57.2382 306.667 57.5381 307.129 57.9179C307.169 57.9579 307.209 57.9779 307.249 58.0179C307.349 58.0579 307.43 58.0979 307.53 58.1578C308.213 58.5577 308.755 59.1575 309.096 59.9371C309.197 60.1571 309.277 60.397 309.357 60.6768C309.618 61.2966 309.719 62.2362 309.679 63.4957C309.659 64.1555 309.638 64.6553 309.699 65.215C309.759 65.7148 309.699 66.1147 309.638 66.4546C309.618 66.6145 309.578 66.7744 309.578 66.9344C309.578 67.4741 309.458 67.914 309.357 68.2738C309.317 68.4338 309.257 68.6137 309.237 68.7736C309.177 69.3134 309.136 69.8732 309.116 70.413C309.076 71.0927 309.036 71.7924 308.956 72.4922V72.7321C308.855 73.2319 308.795 73.7916 308.655 74.3114C308.614 74.4314 308.594 74.5713 308.554 74.7113C308.434 75.2111 308.273 75.7908 307.992 76.3106C307.631 76.9704 307.289 77.4702 306.968 77.87C306.586 78.3298 306.145 78.5098 305.844 78.6297C305.803 78.6297 305.763 78.6697 305.723 78.6897C305.321 79.2095 304.779 79.3494 304.438 79.4294L304.318 79.4694C304.056 79.5493 303.715 79.6693 303.253 79.6693C302.43 79.6693 301.627 79.2495 300.904 78.8296C300.743 78.7297 300.583 78.6297 300.422 78.5297C300.141 78.3498 299.9 78.2099 299.659 78.1099C299.137 77.89 298.575 77.6301 297.912 77.2503C297.35 76.9504 296.828 76.5905 296.346 76.2507C295.844 75.9108 295.382 75.5909 294.9 75.331C294.7 75.2311 294.479 75.1311 294.278 75.0511C293.977 74.9312 293.676 74.7912 293.374 74.6313C292.973 74.4114 292.591 74.2115 292.27 74.1715C292.19 74.1715 292.13 74.1715 292.049 74.1715C291.848 74.1715 291.668 74.2115 291.447 74.2914C291.387 74.3114 291.286 74.3714 291.186 74.4114C291.226 74.5513 291.306 74.7313 291.407 74.9112C291.447 74.9912 291.507 75.0711 291.567 75.1511C291.688 75.311 291.788 75.491 291.889 75.6709C291.949 75.7708 291.989 75.8708 292.049 75.9908C292.13 76.1707 292.23 76.3306 292.29 76.4506C292.391 76.5905 292.511 76.7305 292.611 76.8704C292.913 77.2303 293.234 77.6501 293.495 78.1499C293.696 78.5297 293.957 78.7896 294.439 79.2095C295.443 80.0891 296.346 80.8888 297.189 81.7685C297.511 82.1083 297.872 82.4682 298.274 82.7481L298.454 82.868C298.675 83.008 298.876 83.1479 299.077 83.3079C299.217 83.4278 299.338 83.5478 299.458 83.6877C299.519 83.7677 299.599 83.8276 299.679 83.8876L300.041 84.1475C300.382 84.4074 300.723 84.6673 301.045 84.8672C301.245 84.9872 301.506 85.0671 301.808 85.1671C302.008 85.2271 302.209 85.2871 302.47 85.387C302.611 85.447 302.771 85.507 302.832 85.507H302.932C302.932 85.507 303.113 85.507 303.213 85.507C303.354 85.507 303.514 85.507 303.655 85.547C303.896 85.5869 304.117 85.6669 304.358 85.7269C304.478 85.7669 304.659 85.8269 304.659 85.8269C305 85.7269 305.321 85.6269 305.663 85.507C305.783 85.467 305.924 85.427 306.044 85.387C306.305 85.347 306.586 85.2671 306.888 85.1471C307.108 85.0871 307.309 85.0272 307.41 84.9472C307.631 84.7873 307.892 84.6473 308.133 84.5074C308.313 84.4074 308.494 84.3074 308.574 84.2475L308.635 84.1675C308.635 84.1675 308.755 84.0276 308.835 83.9476C308.976 83.8476 309.116 83.7277 309.257 83.6077C309.337 83.5478 309.438 83.5078 309.518 83.4678C309.659 83.3878 309.699 83.3678 309.719 83.3478C310.181 82.888 310.662 82.4882 311.124 82.1083C311.566 81.7485 311.968 81.4086 312.329 81.0488C312.53 80.8488 312.731 80.469 312.891 80.1491C312.972 79.9692 313.052 79.7893 313.112 79.6293C313.132 79.5493 313.172 79.4694 313.213 79.4094C316.385 75.491 319.136 71.6125 323.633 72.872C326.987 73.8116 329.035 74.4714 330.32 75.431C330.48 75.7908 330.581 76.1507 330.681 76.4506C330.761 76.7305 330.842 77.0104 330.942 77.2103C331.263 77.85 331.504 78.5297 331.685 79.2894C331.866 80.0292 331.806 80.6889 331.745 81.2687V81.5486L331.705 81.9884C331.685 82.4682 331.665 82.968 331.524 83.5278C331.464 83.7877 331.444 84.0675 331.424 84.3474C331.384 84.6873 331.364 85.0672 331.263 85.447C331.223 85.6269 331.183 85.8269 331.163 86.0068C331.083 86.4266 331.002 86.9064 330.842 87.3662C330.641 87.946 330.36 88.5658 329.999 89.2455C329.878 89.4654 329.758 89.6653 329.637 89.8652C329.497 90.1051 329.356 90.345 329.235 90.6049C328.914 91.2647 328.452 91.9044 327.95 92.4442C327.83 92.5842 327.689 92.7641 327.549 92.964C327.368 93.2239 327.187 93.4638 326.987 93.7037C326.645 94.0836 326.384 94.4234 326.123 94.8633C326.063 94.9832 325.983 95.1032 325.922 95.2231C325.782 95.483 325.641 95.7229 325.621 95.8828C325.541 96.4826 325.581 96.6625 325.621 96.7225C325.621 96.7425 325.722 96.8625 326.163 97.0624C326.384 97.1623 326.585 97.2623 326.786 97.3822C326.987 97.4822 327.228 97.6222 327.328 97.6422C327.368 97.6422 327.408 97.6422 327.448 97.6422C327.629 97.6422 327.85 97.5822 328.171 97.4422C328.272 97.3823 328.533 97.1423 328.693 96.9824C328.854 96.8225 329.015 96.6825 329.155 96.5626C329.617 96.1827 330.079 95.8629 330.521 95.543C331.023 95.2031 331.484 94.8633 331.886 94.5034C332.067 94.3435 332.227 94.1036 332.428 93.8637C332.549 93.7037 332.669 93.5438 332.81 93.3838L333.191 92.924C333.432 92.6241 333.693 92.3443 333.934 92.0244C334.095 91.8245 334.235 91.5646 334.376 91.2847C334.476 91.0848 334.597 90.8848 334.717 90.7049C335.058 90.1451 335.46 89.5854 335.922 88.9856C336.203 88.6257 336.524 88.3259 336.805 88.046C336.926 87.926 337.026 87.826 337.147 87.7061C337.448 87.4062 337.729 87.0664 337.99 86.7265L338.291 86.3466C338.391 86.2267 338.492 86.1067 338.592 85.9868C338.833 85.7069 339.074 85.447 339.215 85.1871C339.416 84.8073 339.596 84.3474 339.777 83.8676L340.018 83.2479C340.179 82.868 340.259 82.6481 340.259 82.4282V81.9484C340.259 81.4486 340.239 80.9488 340.299 80.369C340.359 79.8292 340.399 79.5493 340.299 79.1495C340.239 78.8096 340.179 78.4498 340.138 78.1099C340.098 77.79 340.058 77.4702 339.998 77.1503C339.777 76.1907 339.375 75.2511 338.934 74.2514L338.552 73.3518C338.331 72.792 338.09 72.2522 337.849 71.7125C337.669 71.3126 337.408 70.8928 337.147 70.493L336.745 69.8532C336.082 68.8136 335.48 67.834 334.777 66.8744L334.536 66.5745C334.215 66.1547 333.854 65.6749 333.593 65.1351C333.492 64.9352 333.332 64.6953 333.151 64.4553C332.97 64.1954 332.749 63.8956 332.569 63.5557C332.207 62.896 331.786 62.2562 331.324 61.5965C331.083 61.2366 330.822 60.8768 330.601 60.5169C330.239 59.9371 329.336 58.5577 329.336 58.5577C328.995 58.0379 328.613 57.4381 328.372 56.6984L327.208 53.0199L328.472 52.6001C335.54 50.221 340.921 44.0035 342.869 35.9467L342.909 35.7068Z" fill="#D9D6AE"/>
<path d="M388.425 55.3188C390.614 55.3188 398.063 52.5999 398.063 44.4431C398.063 37.6458 392.16 33.2676 385.775 33.2676H370.374V69.993H375.675V55.4787H382.201L391.999 69.993H398.525L388.405 55.3388L388.425 55.3188ZM375.675 50.7806V37.7858H385.795C389.068 37.7858 392.642 40.3648 392.642 44.4431C392.642 48.2216 389.068 50.7806 385.795 50.7806H375.675Z" fill="#D9D6AE"/>
<path d="M383.426 80.5484C366.6 80.5484 353.488 67.7335 353.488 51.46C353.488 35.1864 366.439 22.6914 382.944 22.6914C399.449 22.6914 411.998 35.2664 411.998 51.0801C411.998 67.7535 399.61 80.5684 383.406 80.5684L383.426 80.5484ZM383.024 25.2704C368.025 25.2704 356.339 36.8258 356.339 51.5399C356.339 66.2541 368.347 77.8695 383.185 77.8695C398.023 77.8695 409.167 66.3141 409.167 51.8398C409.167 37.3656 397.883 25.2704 383.024 25.2704Z" fill="#D9D6AE"/>
</svg>
