<svg width="119" height="24" viewBox="0 0 119 24" fill="none" xmlns="http://www.w3.org/2000/svg">
<g id="Frame 36">
<path id="Vector" d="M8.78959 24C6.24299 24 4.14781 23.2006 2.48699 21.5931C0.826164 19.9857 0 17.8796 0 15.2665C0 12.8166 0.800607 10.7536 2.40181 9.07733C4.00301 7.40111 6.03858 6.56731 8.51703 6.56731C10.9955 6.56731 12.9544 7.40972 14.479 9.09454C16.0035 10.7794 16.7615 12.9885 16.7615 15.7134V16.6762H4.53107C4.66734 17.7765 5.15281 18.6963 5.996 19.4269C6.83919 20.1576 7.92936 20.5272 9.26654 20.5272C9.99048 20.5272 10.7826 20.3811 11.6343 20.0802C12.486 19.7794 13.1588 19.3839 13.6613 18.8768L15.5691 21.6963C13.9083 23.2349 11.6513 24 8.78959 24ZM12.5711 13.7192C12.503 12.7822 12.1368 11.9312 11.4639 11.1748C10.7911 10.4183 9.81162 10.0401 8.51703 10.0401C7.29058 10.0401 6.33669 10.4097 5.65532 11.1576C4.97396 11.9054 4.57366 12.7564 4.46294 13.7192H12.5711Z" fill="white"/>
<path id="Vector_2" d="M34.8866 23.5874H30.5259V21.4556C29.1887 23.149 27.4938 24 25.4498 24C23.4057 24 21.566 23.2263 20.2033 21.6791C18.8405 20.1318 18.1592 18.0086 18.1592 15.3009C18.1592 12.5931 18.8405 10.5215 20.2033 8.93979C21.566 7.35813 23.312 6.56731 25.4498 6.56731C27.5875 6.56731 29.2313 7.41831 30.5259 9.11172V0.653259H34.8866V23.5874ZM26.7784 20.1146C27.5024 20.1146 28.2178 19.9341 28.9247 19.5816C29.6316 19.2292 30.1597 18.7736 30.5259 18.2235V12.3438C30.1597 11.7937 29.6316 11.3381 28.9247 10.9856C28.2178 10.6332 27.5024 10.4527 26.7784 10.4527C25.552 10.4527 24.5555 10.8997 23.7804 11.7937C23.0054 12.6877 22.6221 13.8567 22.6221 15.3009C22.6221 16.745 23.0054 17.8796 23.7804 18.7736C24.5555 19.6676 25.552 20.1146 26.7784 20.1146Z" fill="white"/>
<path id="Vector_3" d="M54.8495 23.5874H50.4888V21.4556C49.1516 23.149 47.4567 24 45.4126 24C43.3686 24 41.5289 23.2263 40.1662 21.6791C38.8034 20.1318 38.1221 18.0086 38.1221 15.3009C38.1221 12.5931 38.8034 10.5215 40.1662 8.93979C41.5289 7.35813 43.2749 6.56731 45.4126 6.56731C47.5504 6.56731 49.1942 7.41831 50.4888 9.11172V0.653259H54.8495V23.5874ZM46.7413 20.1146C47.4653 20.1146 48.1807 19.9341 48.8876 19.5816C49.5945 19.2292 50.1226 18.7736 50.4888 18.2235V12.3438C50.1226 11.7937 49.5945 11.3381 48.8876 10.9856C48.1807 10.6332 47.4653 10.4527 46.7413 10.4527C45.5149 10.4527 44.5184 10.8997 43.7433 11.7937C42.9683 12.6877 42.585 13.8567 42.585 15.3009C42.585 16.745 42.9683 17.8796 43.7433 18.7736C44.5184 19.6676 45.5149 20.1146 46.7413 20.1146Z" fill="white"/>
<path id="Vector_4" d="M61.2884 5.19199C60.5815 5.19199 59.9768 4.93412 59.4657 4.41836C58.9547 3.9026 58.6992 3.29227 58.6992 2.5788C58.6992 1.86533 58.9547 1.26362 59.4657 0.756452C59.9768 0.249288 60.5815 0 61.2884 0C61.9953 0 62.6256 0.249288 63.1281 0.756452C63.6306 1.26362 63.8776 1.86533 63.8776 2.5788C63.8776 3.29227 63.6306 3.9026 63.1281 4.41836C62.6256 4.93412 62.0124 5.19199 61.2884 5.19199ZM63.4688 23.5874H59.1421V6.97995H63.4688V23.5874Z" fill="white"/>
<path id="Vector_5" d="M73.6908 24C72.2599 24 70.8886 23.7679 69.5855 23.3123C68.2824 22.8567 67.1923 22.2206 66.332 21.4212L68.2058 18.361C68.8446 18.9542 69.7048 19.4871 70.7949 19.9427C71.8851 20.3983 72.9157 20.6304 73.8952 20.6304C74.8065 20.6304 75.4879 20.467 75.9563 20.149C76.4247 19.8309 76.6547 19.3925 76.6547 18.8424C76.6547 18.4298 76.4077 18.0945 75.9222 17.8281C75.4367 17.5616 74.832 17.3725 74.1166 17.2607C73.4012 17.149 72.6176 16.9771 71.7659 16.745C70.9142 16.5129 70.1306 16.2378 69.4152 15.9197C68.6998 15.6017 68.0951 15.0859 67.6096 14.3897C67.1241 13.6934 66.8771 12.8252 66.8771 11.7937C66.8771 10.3238 67.4818 9.08592 68.6827 8.08019C69.8836 7.07446 71.5359 6.56731 73.6226 6.56731C76.1692 6.56731 78.3836 7.32375 80.2659 8.83664L78.5284 11.8281C78.0089 11.2779 77.3105 10.8223 76.4332 10.4527C75.556 10.0831 74.6361 9.90254 73.6567 9.90254C72.8816 9.90254 72.2599 10.0573 71.7829 10.3667C71.306 10.6762 71.0675 11.0716 71.0675 11.553C71.0675 11.9226 71.306 12.2235 71.7829 12.4642C72.2599 12.7048 72.8646 12.8854 73.5886 12.9971C74.3125 13.1089 75.0961 13.2894 75.9392 13.5301C76.7824 13.7707 77.566 14.0544 78.29 14.3897C79.0139 14.7249 79.6186 15.2579 80.0956 15.9885C80.5725 16.7192 80.811 17.6132 80.811 18.6705C80.811 20.2263 80.1807 21.5071 78.9202 22.5043C77.6597 23.5014 75.9137 24 73.6908 24Z" fill="white"/>
<path id="Vector_6" d="M97.9801 21.4728C96.3874 23.1576 94.2752 24 91.6434 24C89.0116 24 86.8994 23.1576 85.3238 21.4728C83.7481 19.788 82.9561 17.7163 82.9561 15.2665C82.9561 12.8166 83.7481 10.7536 85.3238 9.07733C86.8994 7.40111 89.0116 6.56731 91.6434 6.56731C94.2752 6.56731 96.3874 7.40111 97.9801 9.07733C99.5728 10.7536 100.365 12.8166 100.365 15.2665C100.365 17.7163 99.5728 19.788 97.9801 21.4728ZM88.5773 18.722C89.3268 19.6504 90.3488 20.1146 91.6434 20.1146C92.938 20.1146 93.9686 19.6504 94.7266 18.722C95.4846 17.7937 95.8679 16.6418 95.8679 15.2665C95.8679 13.8911 95.4846 12.7736 94.7266 11.8452C93.9686 10.9169 92.938 10.4527 91.6434 10.4527C90.3488 10.4527 89.3268 10.9169 88.5773 11.8452C87.8278 12.7736 87.453 13.9169 87.453 15.2665C87.453 16.616 87.8278 17.7937 88.5773 18.722Z" fill="white"/>
<path id="Vector_7" d="M118.999 23.5874H114.673V13.5473C114.673 11.4842 113.659 10.4527 111.641 10.4527C110.073 10.4527 108.821 11.106 107.893 12.4126V23.5874H103.566V6.97991H107.893V9.14611C109.324 7.42691 111.24 6.56731 113.651 6.56731C115.422 6.56731 116.759 7.04008 117.654 7.97704C118.548 8.91401 118.999 10.212 118.999 11.8625V23.5874Z" fill="white"/>
</g>
</svg>
