<svg width="404" height="92" viewBox="0 0 404 92" fill="none" xmlns="http://www.w3.org/2000/svg">
<path d="M47.0575 92C20.614 92 0 71.6274 0 45.7457C0 19.8641 20.3614 0 46.3104 0C72.2594 0 92 20.0018 92 45.1207C92 71.6168 72.5119 92 47.0575 92ZM46.4367 4.12114C22.8448 4.12114 4.47215 22.4915 4.47215 45.8729C4.47215 69.2543 23.3394 87.7411 46.6893 87.7411C70.0391 87.7411 87.5383 69.3708 87.5383 46.3708C87.5383 23.3708 69.7865 4.12114 46.4472 4.12114H46.4367Z" fill="#5F5F5F"/>
<path d="M46.3097 19.6839C61.3571 19.6839 70.2278 31.5177 70.2278 46.5614V48.5319H29.9153C30.5362 57.9714 37.1339 65.864 47.8565 65.864C53.5283 65.864 59.2947 63.5757 63.2196 59.5287L66.9342 64.6139C61.9885 69.5932 55.2856 72.2947 47.141 72.2947C32.3987 72.2947 21.7812 61.6052 21.7812 45.9364C21.7812 31.4011 32.0935 19.6733 46.3202 19.6733L46.3097 19.6839ZM29.9153 42.8323H62.5988C62.4936 35.3633 57.5479 26.1252 46.2045 26.1252C35.5871 26.1252 30.3257 35.1515 29.9153 42.8323Z" fill="#5F5F5F"/>
<path d="M151.058 92C124.614 92 104 71.6274 104 45.7457C104 19.8641 124.361 0 150.31 0C176.259 0 196 20.0018 196 45.1207C196 71.6168 176.512 92 151.058 92ZM150.437 4.12114C126.845 4.12114 108.472 22.4915 108.472 45.8729C108.472 69.2543 127.339 87.7411 150.689 87.7411C174.039 87.7411 191.538 69.3708 191.538 46.3708C191.538 23.3708 173.787 4.12114 150.447 4.12114H150.437Z" fill="#5F5F5F"/>
<path d="M171.935 39.1986C171.935 34.0498 169.673 30.755 164.475 30.755C160.276 30.755 155.836 33.7955 153.742 37.0056V66.8918H147.449V39.1986C147.449 34.0498 145.271 30.755 139.988 30.755C135.885 30.755 131.518 33.7955 129.339 37.0903V66.8918H123.047V26.1147H129.339V32.0263C131.013 29.4095 136.463 25.1083 142.419 25.1083C148.375 25.1083 152.142 28.4878 153.321 32.7043C155.583 28.9858 161.034 25.1083 166.905 25.1083C174.282 25.1083 178.228 29.2506 178.228 37.4293V66.8918H171.935V39.1986Z" fill="#5F5F5F" stroke="#5F5F5F" stroke-width="0.25" stroke-miterlimit="10"/>
<path d="M268.032 59.1898L267.895 59.3699C264.517 63.9466 260.203 66.1713 254.71 66.1713C243.998 66.1713 236.8 58.0456 236.8 45.947C236.8 33.8484 243.998 25.8393 254.71 25.8393C260.276 25.8393 264.591 28.064 267.884 32.6301L268.021 32.8208L273.756 27.5131L273.64 27.3648C268.8 21.0507 262.655 18.1055 254.279 18.1055C239.01 18.1055 227.93 29.8121 227.93 45.947C227.93 62.082 239.01 73.8945 254.279 73.8945C262.655 73.8945 268.81 70.9493 273.64 64.6352L273.756 64.4869L268.19 59.3381L268.021 59.1898H268.032Z" fill="#5F5F5F"/>
<path d="M255.058 92C228.614 92 208 71.6274 208 45.7457C208 19.8641 228.361 0 254.31 0C280.259 0 300 20.0018 300 45.1207C300 71.6168 280.512 92 255.058 92ZM254.437 4.12116C230.845 4.12116 212.472 22.4915 212.472 45.8729C212.472 69.2542 231.339 87.7411 254.689 87.7411C278.039 87.7411 295.538 69.3708 295.538 46.3708C295.538 23.3708 277.787 4.12116 254.447 4.12116H254.437Z" fill="#5F5F5F"/>
<path d="M346.136 32.0686C350.724 32.0686 354.281 33.9014 356.996 37.6729L357.101 37.8318L361.826 33.4564L361.731 33.3293C357.743 28.1275 352.671 25.7015 345.768 25.7015C333.183 25.7015 324.049 35.3528 324.049 48.6485C324.049 61.9442 333.183 71.6909 345.768 71.6909C352.671 71.6909 357.743 69.2648 361.731 64.063L361.826 63.9359L357.238 59.6876L357.101 59.5605L356.985 59.7088C354.197 63.4804 350.64 65.3132 346.115 65.3132C337.287 65.3132 331.352 58.6176 331.352 48.6379C331.352 38.6582 337.287 32.058 346.115 32.058L346.136 32.0686ZM388.059 63.3744L387.88 63.5757C387.091 64.4445 385.418 65.3238 383.439 65.3238C380.798 65.3238 379.23 63.3003 379.23 59.9101V33.0644H387.996V26.7821H379.23V14.8954H372.191V26.7821H365.035V33.0644H372.191V61.3509C372.191 68.0147 375.653 71.6909 381.924 71.6909C385.418 71.6909 388.09 70.7586 390.09 68.8516L390.174 68.7775L388.069 63.3744H388.059Z" fill="#5F5F5F"/>
<path d="M359.058 92C332.614 92 312 71.6274 312 45.7457C312 19.8641 332.361 0 358.31 0C384.259 0 404 20.0018 404 45.1207C404 71.6168 384.512 92 359.058 92ZM358.437 4.12113C334.845 4.12113 316.472 22.4915 316.472 45.8729C316.472 69.2542 335.339 87.7411 358.689 87.7411C382.039 87.7411 399.538 69.3708 399.538 46.3708C399.538 23.3708 381.787 4.12113 358.447 4.12113H358.437Z" fill="#5F5F5F"/>
</svg>
