<svg width="124" height="26" viewBox="0 0 124 26" fill="none" xmlns="http://www.w3.org/2000/svg">
<g id="Vector">
<path d="M5.64532 16.8257C5.64532 17.3697 5.9408 17.7722 6.53177 18.0332C7.12274 18.2943 7.90033 18.4249 8.86454 18.4249C10.202 18.4249 11.2906 18.1529 12.1304 17.609C13.0013 17.0651 13.4368 16.3688 13.4368 15.5203H14.3232C14.3232 17.4349 13.639 18.9797 12.2704 20.1545C10.9018 21.3294 9.09782 21.9169 6.85836 21.9169C4.86772 21.9169 3.21923 21.5144 1.91288 20.7093C0.637625 19.8826 0 18.8274 0 17.5437C0 16.3688 0.497659 15.4442 1.49298 14.7697C2.48829 14.0735 4.04348 13.5078 6.15853 13.0727L13.4368 11.6693V14.2149L8.11806 15.2592C6.46956 15.5856 5.64532 16.1078 5.64532 16.8257ZM19.0821 21.2315H13.4368L14.9764 17.4784L13.4368 16.9889V11.3104C13.4368 10.6141 13.0946 10.0593 12.4104 9.64595C11.7261 9.23257 10.8241 9.02588 9.70434 9.02588C8.55351 9.02588 7.60485 9.28696 6.85836 9.80912C6.11187 10.3095 5.67642 10.9622 5.552 11.7672L0 11.2451C0.34214 9.5698 1.38411 8.19911 3.12592 7.13302C4.86772 6.06693 7.09164 5.53389 9.79766 5.53389C12.5348 5.53389 14.7587 6.05605 16.4694 7.10039C18.2112 8.14472 19.0821 9.42838 19.0821 10.9514V21.2315Z" fill="white"/>
<path d="M41.5548 6.8449H58.1801V10.7751H52.5298V21.3829H47.2051V10.7751H41.5548V6.8449Z" fill="white"/>
<path d="M72.5919 6.8449H78.2551L71.1077 21.6628C70.3786 23.1806 69.4283 24.2829 68.2566 24.9697C67.0849 25.6566 65.796 26 64.3899 26C63.305 26 62.3329 25.8686 61.4737 25.6057C60.6231 25.3513 59.7942 24.9401 58.987 24.3719V20.7724C59.8116 21.2812 60.5797 21.6458 61.2914 21.8663C62.0031 22.0867 62.7842 22.197 63.6348 22.197C64.4073 22.197 65.0582 22.0359 65.5877 21.7136C66.1171 21.3914 66.5511 20.8402 66.8896 20.0601L66.9026 20.022H64.5722L58.245 6.8449H64.1165L68.3086 16.7659L72.5919 6.8449Z" fill="white"/>
<path d="M91.0617 16.6768L94.8763 6.8449H102.87V21.3829H97.8837V10.8642L93.4703 21.3829H88.6142L84.2137 10.9405V21.3829H79.2275V6.8449H87.2211L91.0617 16.6768Z" fill="white"/>
<path d="M110.512 16.5624L117.165 6.8449H124V21.3829H118.753V11.3857L111.905 21.3829H105.279V6.8449H110.512V16.5624Z" fill="white"/>
<path d="M29.349 2.64836C31.3793 2.67482 35.3217 2.34368 35.7267 0C35.7704 1.22929 35.7029 2.51273 35.5912 3.73313C35.4967 4.45658 35.2629 5.05743 34.8897 5.53569C34.4884 6.01358 33.8772 6.36795 33.0563 6.59881C32.2356 6.81109 31.078 6.9075 29.5836 6.88802L26.7923 6.85163L26.8501 2.61579L29.349 2.64836Z" fill="white"/>
<path d="M26.7512 16.5622L33.4039 6.84476H40.2389V21.3828H34.9922V11.3855L28.1443 21.3828H21.5176V6.84476H26.7512V16.5622Z" fill="white"/>
</g>
</svg>
