<svg width="81" height="80" viewBox="0 0 81 80" fill="none" xmlns="http://www.w3.org/2000/svg">
<g id="Frame 2">
<path id="Vector" d="M57.3938 12.2316C48.6203 13.6318 47.8501 7.99784 37.2795 10.5315C26.7201 13.0651 23.483 18.0656 17.6898 23.9552C11.8966 29.8558 12.8454 34.5674 8.41401 38.9346C3.98261 43.3017 0.5 50.3025 0.5 50.3025C0.5 51.5471 0.589293 60.8703 16.1048 59.1146C18.8507 58.8035 21.6078 58.3145 24.3648 57.6811C24.2755 62.6706 24.443 68.0934 25.1462 69.438C26.4298 71.8938 27.3675 67.4933 28.5507 61.8593C29.0418 59.5369 30.0241 57.4589 31.0064 55.8253C38.7306 53.3251 46.4325 49.6469 53.9782 45.0797C57.7176 45.502 68.9467 51.6027 71.6592 52.5361C74.5613 53.5362 71.1457 48.6357 67.3059 44.1685C65.6427 42.235 63.6335 40.8681 61.8811 39.9458C61.9815 39.8791 62.082 39.8014 62.1824 39.7347C63.8233 38.5901 65.3413 37.4455 66.7589 36.3121C69.2258 36.9566 72.8089 37.6456 75.3315 39.3346C78.044 41.1571 78.1779 39.8791 76.6487 36.8899C75.4097 34.4563 73.2442 32.8784 71.6257 31.9783C79.2718 24.4108 81.8056 17.5433 79.8857 13.5429C77.3296 8.20898 66.1674 10.8315 57.3938 12.2427V12.2316Z" fill="white"/>
</g>
</svg>
