<svg width="81" height="80" viewBox="0 0 81 80" fill="none" xmlns="http://www.w3.org/2000/svg">
<g id="Frame 11">
<path id="Vector" d="M80.312 35.8089C79.5601 33.1681 79.9361 30.3958 79.6823 27.6987C79.5507 26.6932 79.2969 25.7252 78.9492 24.776C78.7518 24.3062 78.5262 23.8551 78.2442 23.4322C78.1503 23.3194 78.0375 23.2066 77.9247 23.1033C77.8401 23.0469 77.7649 22.9999 77.6709 22.9529C77.5487 22.9059 77.4266 22.8777 77.295 22.8495C76.9284 22.8119 76.5618 22.8213 76.1953 22.8495C75.7723 22.9999 75.3494 23.1784 74.9264 23.3946C74.6632 23.5261 74.4094 23.6577 74.1557 23.7893C73.103 24.6069 71.9657 25.3211 70.8848 26.1199C70.4807 26.43 70.0859 26.7495 69.7193 27.0972C69.3434 27.4544 68.9674 27.8115 68.5821 28.1498C67.6986 28.9204 66.7681 29.5688 65.6966 30.0387C64.5029 30.565 63.2716 30.9127 61.984 31.1194C60.7903 31.3074 59.5966 31.4014 58.403 31.5329C58.403 31.5329 58.3936 31.5329 58.3842 31.5329C57.98 31.6457 57.5759 31.7491 57.1717 31.8524C56.4668 32.0216 55.7618 32.172 55.0475 32.2754C54.3332 32.3693 53.5907 32.4633 52.8669 32.3975C52.209 32.3411 51.4383 32.2096 50.9026 31.7961C50.5454 31.5235 50.2164 31.251 50.0097 30.8375C49.7841 30.3864 49.6995 30.0011 49.6807 29.503C49.6619 29.1835 49.7747 28.8828 49.9533 28.6291C49.9439 28.4505 49.9439 28.2814 49.9627 28.1028C50.0472 27.3792 50.3198 26.6932 50.7616 26.1105C51.0905 25.6688 51.4477 25.2553 51.8237 24.8606C52.6884 23.451 53.7504 22.1541 54.8877 20.9418C54.9441 20.8572 55.0005 20.7726 55.0569 20.6975C55.1133 20.5941 55.1697 20.5001 55.2355 20.3967C55.9968 19.1375 56.8239 17.9064 57.5759 16.6377C58.3372 15.3408 58.9857 13.9782 59.6906 12.6531C60.3298 11.4502 60.9877 10.2473 61.6644 9.0632C61.6644 8.63091 61.6456 8.20803 61.608 7.77573C61.5516 7.31525 61.467 6.86418 61.3542 6.4131C61.2603 6.33792 61.1663 6.26272 61.0629 6.19694C60.5835 5.88682 60.0196 5.80224 59.4744 5.72706C58.9293 5.65188 58.3842 5.60489 57.8484 5.75525C56.7863 6.06537 55.9216 7.10851 55.2919 7.9637C55.2731 7.98249 55.2637 8.00129 55.2449 8.02008C54.5682 9.50491 53.9102 11.0085 53.0737 12.4182C52.1902 13.903 51.0811 15.2374 50.0003 16.5813C49.8123 17.023 49.6243 17.4741 49.4457 17.9252C49.2765 18.3293 49.0885 18.6582 48.6938 18.8743C48.534 18.9683 48.3554 19.0247 48.1769 19.0623C47.9795 19.363 47.7915 19.6731 47.6223 19.9832C47.1994 20.7538 46.1467 20.97 45.4135 20.5377C44.6428 20.0772 44.4361 19.0905 44.859 18.3293C44.9342 18.1977 45.0094 18.0661 45.0846 17.9346C45.0376 17.6714 45.0564 17.4083 45.1034 17.1264C45.3948 15.5758 46.2125 14.1849 46.861 12.7659C47.2464 11.8449 47.4625 10.8863 47.7257 9.91839C48.0359 8.79068 48.4118 7.70055 48.8912 6.62922C48.8348 6.75139 48.7784 6.88295 48.722 7.00512C49.0979 6.04656 49.5209 5.08802 49.8687 4.11067C49.8687 4.04488 49.8499 3.98849 49.8405 3.9227C49.8405 3.9227 49.8405 3.90392 49.8311 3.90392C49.3705 2.96416 48.2426 2.50368 47.237 2.50368C46.0903 2.50368 45.2068 2.94536 44.4267 3.75355C44.2011 3.9791 43.9943 4.21405 43.7875 4.46778C43.374 7.27767 42.3213 9.95598 41.8513 12.7659C41.7573 13.4331 41.7009 14.1097 41.7009 14.7864C41.7009 15.6603 40.9114 16.3746 40.0467 16.3558C39.1538 16.337 38.4677 15.5852 38.4771 14.7018C38.4865 11.1683 39.9245 7.90729 40.5449 4.47716C40.5261 4.2986 40.5355 4.10126 40.4697 3.97909C40.3757 3.80053 40.2629 3.64077 40.1407 3.48101C39.5486 2.68221 38.7684 2.3627 37.8003 2.22173C36.8041 2.07137 35.7044 2.24053 34.8773 2.84198C34.2005 3.33066 33.6648 4.01669 33.2136 4.73091C33.1854 7.10851 33.082 9.4861 33.2982 11.8543C33.2982 11.8543 33.2982 11.8637 33.2982 11.8731C33.6554 13.6587 33.787 15.51 33.787 17.3237C33.787 18.1977 32.9975 18.9119 32.1328 18.8931C31.2398 18.8743 30.5631 18.1225 30.5631 17.2392C30.5631 16.2336 30.5161 15.2281 30.4127 14.2225C30.2906 13.2076 30.1026 12.202 29.8206 11.2247C29.7078 10.83 29.7736 10.4259 29.9616 10.0875C29.9052 8.53693 29.9428 6.98633 29.9616 5.42633C29.6138 4.7403 29.1815 4.09187 28.7021 3.49042C28.3732 3.06753 28.0066 2.49427 27.5085 2.25933C27.0291 2.02439 26.3618 2.18416 25.8448 2.21236C25.4783 2.23115 25.1117 2.25933 24.7451 2.28753C24.5008 2.30632 24.2282 2.29692 24.0214 2.45668C23.5703 2.80439 23.2037 3.1897 22.8465 3.64079C22.7901 4.24223 22.7714 4.84367 22.809 5.44511C22.8278 5.5109 22.8465 5.5767 22.8559 5.64248C23.2601 7.12731 23.7677 8.58392 24.1906 10.0594C24.482 11.0555 24.8015 12.0329 25.1117 13.0196C25.4501 14.0722 25.7696 15.1435 25.9858 16.2242C26.202 17.3143 26.3712 18.489 26.0798 19.5886C25.9388 20.1336 25.4595 20.5659 24.9237 20.6975C24.3316 20.8478 23.8334 20.6317 23.3823 20.2558C22.1604 19.2408 21.6153 17.5775 21.2487 16.0926C20.9198 14.7488 20.7224 13.3673 20.2524 12.0611C20.1302 11.7697 19.9799 11.4972 19.8107 11.2341C19.5945 10.9051 19.5475 10.5198 19.6321 10.1439C19.4629 9.56127 19.3313 8.96924 19.1339 8.39598C18.8144 7.66297 18.4102 6.97695 17.9966 6.29092C16.991 5.66128 15.8725 5.41693 14.6882 5.60489C14.1149 5.69886 13.3441 5.79285 12.8272 6.08417C12.3384 6.3661 11.9061 6.73261 11.4362 7.02394C10.4117 7.67237 10.4963 8.83768 10.1203 9.84322C10.0075 10.1533 9.86653 10.3789 9.91353 10.7266C9.95112 11.0273 9.99809 11.3186 10.0357 11.6194C10.1203 12.2114 10.2331 12.8035 10.4023 13.3861C10.7594 14.589 11.2576 15.8107 11.8403 16.9102C12.423 18.0191 13.175 19.0247 13.8705 20.0678C14.5754 21.1204 15.1676 22.2199 15.7597 23.3382C16.3612 24.4753 17.0192 25.5748 17.6771 26.6838C17.8651 26.9939 18.053 27.3134 18.241 27.6235C18.0155 27.7927 17.7899 27.9524 17.5643 28.1122C17.0943 28.4317 16.6056 28.7324 16.0981 28.9768C15.5059 29.2587 14.895 29.4842 14.3028 29.7662C13.7577 30.0293 13.2314 30.3394 12.6956 30.6214C11.5959 31.1852 10.4305 31.5987 9.32138 32.1344C8.16531 32.6889 7.2912 33.7508 6.15393 34.3334C5.88135 34.4744 5.46778 34.4086 5.16701 34.4368C4.86625 34.465 4.55608 34.512 4.25531 34.5684C3.65377 34.6811 3.05223 34.8221 2.4601 34.9725C1.55779 35.198 1.08786 35.6679 0.749499 36.5325C0.45813 37.2843 0.36412 38.0267 0.787075 38.7315C1.11604 39.2766 1.4826 39.7559 1.87736 40.2539C2.21573 40.6862 2.4413 41.1749 2.72327 41.6448C3.03343 42.1617 3.44701 42.5845 3.86057 43.0168C4.24593 43.4303 4.58428 43.872 4.93204 44.3325C5.59937 45.2159 6.46408 45.8831 7.40398 46.447C7.94912 46.7665 8.49426 47.0296 9.077 47.274C9.56575 47.4807 10.0357 47.7345 10.5621 47.8472C11.2012 47.9788 11.8215 48.1479 12.4606 48.3171C12.6768 48.3735 12.5922 48.4393 12.564 48.6366C12.5452 48.7776 12.5264 48.9092 12.5076 49.0501C12.4606 49.332 12.4137 49.614 12.2915 49.8771C11.1542 52.2923 10.0733 54.7451 8.92661 57.1603C8.37207 58.3162 7.70476 59.4157 6.99983 60.487C6.3043 61.5489 5.76857 62.6673 5.21403 63.8138C4.65009 64.9885 4.04855 66.1538 3.5692 67.3567C3.09925 68.569 3.05226 69.6685 3.24964 70.9372C3.34363 71.5104 3.33421 72.2528 3.58799 72.7885C3.79477 73.2302 4.25531 73.5027 4.66887 73.7377C5.19521 74.0384 5.76855 74.2827 6.37008 74.3955C6.65205 74.4519 6.94344 74.4895 7.23481 74.5271C7.46978 74.5553 7.77055 74.668 7.99612 74.5929C8.54126 74.4237 9.0864 74.1418 9.60334 73.888C10.3271 72.9201 10.9192 71.8675 11.4173 70.7586C12.5076 68.2306 13.4757 65.6557 14.6506 63.1653C14.9044 62.2444 15.1581 61.3234 15.4119 60.4024C15.6469 59.5566 16.5774 59.068 17.4139 59.3123C18.2692 59.566 18.7392 60.4682 18.5042 61.314C18.4384 61.5677 18.3632 61.8121 18.2974 62.0658C18.4102 62.4793 18.3538 62.9398 18.147 63.3533C17.9966 63.6446 17.8463 63.9453 17.7053 64.2461C17.0285 66.6988 16.3424 69.161 15.8913 71.6514C15.8067 72.0931 15.7221 72.5442 15.6375 72.9859C15.6093 73.7095 15.5999 74.4237 15.6469 75.1567C15.7127 76.1247 16.0229 77.2618 17.0567 77.5813C17.6583 77.7692 18.2974 77.9384 18.9365 77.835C19.1715 77.7975 19.4723 77.5719 19.7073 77.5907C19.9516 77.6095 20.196 77.5343 20.4122 77.4216C21.3615 76.9517 22.2732 76.3126 23.0439 75.589C23.8616 74.8184 24.482 73.8786 24.9989 72.8919C25.6004 71.7548 25.685 70.4861 25.8824 69.2362C25.92 68.9731 25.967 68.7099 26.014 68.4468C26.0986 67.2157 26.2866 65.994 26.531 64.7817C26.7847 63.5412 27.0855 62.3008 27.2923 61.0509C27.3957 60.2991 27.4709 59.5473 27.4709 58.786C27.4709 57.9121 28.2604 57.1979 29.1251 57.2167C30.018 57.2355 30.7041 57.9872 30.6947 58.8706C30.6947 60.7126 30.3 62.5075 29.9146 64.3024C29.9146 64.6971 29.924 65.0824 29.9146 65.4771C29.8958 66.7928 29.6138 68.1179 29.6514 69.4336C29.689 70.7023 30.1308 71.9333 30.2718 73.1926C30.394 74.2452 30.7793 75.4292 31.6722 76.0683C32.5369 76.6979 33.7964 76.8295 34.8021 76.4724C35.2814 76.3032 35.7044 75.7676 36.0333 75.3917C36.3999 74.9688 36.7101 74.4989 36.945 73.9914C37.4432 72.8731 37.8755 71.736 38.3267 70.5989C38.4207 70.3639 38.5241 70.1384 38.6275 69.9128C38.4865 65.4865 38.3079 61.0697 38.3079 56.6434C38.3079 55.7694 39.0974 55.0552 39.9621 55.074C40.855 55.0928 41.5318 55.8446 41.5318 56.728C41.5318 57.6583 41.5318 58.5793 41.5506 59.5097C41.5976 62.9116 41.7291 66.3136 41.8419 69.7249C42.0957 70.3827 42.1803 71.1157 42.3213 71.7924C42.4622 72.4408 42.5563 72.9577 43.1296 73.3524C43.3552 73.5121 43.5995 73.6437 43.8251 73.8128C43.9567 73.9162 44.1353 74.217 44.2763 74.2733C44.5112 74.3673 44.6898 74.5083 44.9436 74.5553C45.2068 74.6116 45.4699 74.6117 45.7331 74.5929C46.2876 74.5553 46.8422 74.4237 47.3403 74.1794C47.7915 73.9538 48.1393 73.5873 48.5622 73.3242C48.8536 73.1456 49.1261 72.9295 49.3705 72.6945C49.4739 72.3186 49.5585 71.9427 49.6431 71.5668C49.9439 70.2136 50.2258 68.8415 50.442 67.4694C51.2503 62.1598 51.2315 56.775 51.8519 51.4465C51.8519 50.9672 51.8895 50.4973 51.9552 50.0275C52.068 49.238 52.2372 48.5426 52.5662 47.819C52.8481 47.1894 53.2147 46.6537 53.6659 46.1274C53.7505 46.0335 53.835 45.9395 53.9196 45.8455C54.07 45.479 54.2674 45.1313 54.4742 44.8212C55.5175 43.2612 57.0589 42.265 58.7507 41.5508C59.0233 41.3065 59.3053 41.0715 59.606 40.9024C60.123 40.611 60.6681 40.3385 61.2039 40.1036C62.3693 39.6055 63.6288 39.5585 64.8695 39.4551C65.3958 39.4081 65.9316 39.333 66.4579 39.286C68.2813 38.5342 70.3679 38.4778 72.2947 38.7033C72.3417 38.7033 72.3793 38.7127 72.4169 38.7221C73.4602 38.4778 74.5504 38.5342 75.6031 38.6751C76.5524 38.8067 77.5017 38.9946 78.4604 38.9383C78.6672 38.9007 78.8646 38.8537 79.062 38.7973C79.1653 38.7503 79.2687 38.6939 79.3627 38.6282C79.4755 38.5248 79.5883 38.4214 79.6823 38.3086C79.8421 38.0831 79.9831 37.8387 80.1053 37.585C80.2744 37.1527 80.406 36.711 80.5 36.2693C80.4342 36.1472 80.3778 36.025 80.3402 35.8934L80.312 35.8089ZM12.9682 38.6C12.0941 38.6 11.3798 37.8106 11.3986 36.946C11.4174 36.0532 12.1693 35.3766 13.0528 35.3766C13.9363 35.3766 14.6412 36.166 14.6224 37.0305C14.6036 37.9233 13.8517 38.6 12.9682 38.6Z" fill="white"/>
</g>
</svg>
