<svg width="80" height="80" viewBox="0 0 80 80" fill="none" xmlns="http://www.w3.org/2000/svg">
<g id="Frame 3">
<path id="Vector" d="M56.657 16.0158C56.0757 17.3933 55.6334 18.8088 55.1912 20.2495C54.7489 21.6902 54.0791 23.1182 53.5105 24.5463C53.2198 25.2793 52.9418 26.0123 52.6512 26.7453C52.3605 27.4782 52.0825 28.1986 51.6402 28.8305C50.7809 30.0563 49.6184 31.0547 48.7085 32.23C49.2266 32.23 49.7447 32.1416 50.2628 32.1795C50.8694 32.23 51.4886 32.3059 52.0699 32.4322C53.144 32.6723 54.1549 33.1399 55.128 33.6454C55.5955 33.8856 56.0505 34.1257 56.4675 34.4416C56.9098 34.7828 57.3141 35.162 57.7312 35.5285C58.641 36.2994 59.5509 37.0703 60.4986 37.8159C60.9156 38.1445 61.3453 38.4983 61.8381 38.7258C62.331 38.9533 62.8491 39.1429 63.3293 39.4335C63.721 39.6736 64.0875 39.9517 64.5045 40.1539C65.0226 40.4066 65.5028 40.3814 66.0588 40.4193C67.2088 40.4825 68.3208 40.4193 69.4581 40.1918C69.951 40.0907 70.3048 39.7747 70.6965 39.4841C70.924 39.6484 70.2795 40.5962 70.1658 40.8237C69.9509 41.2534 69.6224 41.6072 69.3696 42.0369C69.1043 42.4919 68.9906 43.01 68.7125 43.4523C68.4345 43.8946 68.0681 44.2485 67.7521 44.6403C67.3857 45.0952 67.0319 45.5628 66.7033 46.0431C66.3874 46.4854 66.0841 46.9277 65.7682 47.3574C65.6165 47.5596 65.4017 47.7744 65.3132 48.0019C65.1995 48.2673 65.0605 48.52 64.9089 48.7728C64.6308 49.2278 64.3149 49.6322 64.0748 50.1124C63.7968 50.6685 63.5188 51.2372 63.2661 51.8059C62.2804 53.9795 61.5096 56.2291 60.5492 58.4027C60.069 59.477 59.513 60.5006 58.9317 61.5243C58.3504 62.5479 57.8575 63.6095 57.2763 64.6331C56.7455 65.5683 56.0505 66.5794 55.2164 67.2744C54.3192 68.0074 53.5105 68.8415 52.6259 69.5745C50.7935 71.091 48.759 72.3169 46.6992 73.4795C45.6756 74.0609 44.6647 74.5285 43.54 74.8444C42.3774 75.1604 41.1769 75.1351 39.9891 75.2867C38.8012 75.4384 37.5755 75.6659 36.375 75.8302C35.7937 75.906 35.2124 75.9818 34.6311 75.9945C33.9992 76.0197 33.3674 75.9565 32.7356 75.9313C31.5351 75.8807 30.3851 75.7164 29.2099 75.451C28.0979 75.2109 26.9858 75.034 25.9117 74.6043C24.8376 74.1746 23.7382 73.846 22.7652 73.2394C21.7921 72.6328 20.9328 71.8746 20.1114 71.1163C19.29 70.358 18.3802 69.5745 17.5082 68.8162C16.6742 68.0959 15.9792 67.1986 15.3094 66.3392C13.8309 64.4562 12.9842 62.1814 11.948 60.0583C10.9118 57.9352 9.81242 55.6983 8.73829 53.5246C8.19491 52.4377 7.70207 51.313 7.12078 50.2514C6.60267 49.3036 5.70544 48.9118 4.77032 48.4695C3.70882 47.9766 2.60944 47.6101 1.51004 47.2057C1.10566 47.0541 0.751818 46.8013 0.511719 46.4348C0.34744 46.1821 -0.17065 45.6513 0.0568121 45.3227C0.284275 44.9941 1.06775 45.1331 1.39631 45.1205C2.01551 45.1079 2.62207 45.0447 3.24127 45.0573C4.42913 45.0573 5.56643 44.9309 6.70374 44.5518C7.63887 44.2485 8.48555 43.7177 9.20585 43.0479C9.98933 42.3149 10.7222 41.4935 11.4805 40.7352C12.2387 39.9769 12.8958 39.0165 13.6919 38.2456C14.5386 37.4241 15.4358 36.6532 16.3204 35.8823C17.9632 34.4416 19.7955 33.1147 21.9185 32.4954C24.1931 31.8383 26.6193 32.5712 28.7802 33.3042C29.8544 33.6707 30.9032 34.1762 31.8763 34.7576C32.3059 35.0103 32.6976 35.301 33.0767 35.6296C33.4559 35.9582 33.9108 36.3626 34.1003 36.8302C34.2899 37.2978 34.6185 37.6516 34.9217 38.0307C35.1871 38.372 35.4398 38.5868 35.819 38.7764C36.5519 39.1681 37.3227 39.3324 38.1315 39.4714C38.6875 39.5725 39.1677 39.3703 39.6732 39.1808C39.9385 39.0797 40.2039 38.9786 40.4693 38.8901C40.722 38.8016 41.0885 38.7384 41.3033 38.5868C42.0994 38.0434 42.9588 37.7274 43.5274 36.8933C44.1719 35.9455 44.6521 34.8713 45.3597 33.9614C45.6756 33.5443 46.0674 33.2158 46.4339 32.8366C46.8509 32.3943 47.2426 31.9394 47.6217 31.4844C48.4052 30.5745 49.1761 29.6519 49.9595 28.742C50.3007 28.3502 50.6293 27.9711 50.8567 27.5035C51.1221 26.9854 51.2611 26.4167 51.4633 25.8732C51.8803 24.7738 52.3858 23.7122 52.8786 22.638C53.3715 21.5638 53.7379 20.4011 54.0665 19.2384C54.2308 18.6697 54.395 18.0884 54.5593 17.5197C54.6351 17.229 54.7236 16.951 54.7994 16.6603C54.8626 16.4329 54.9763 16.0158 54.9005 15.7757C54.8373 15.5735 54.6352 15.3966 54.5467 15.207C54.433 14.9795 54.3445 14.7268 54.2939 14.474C54.1676 13.8927 54.1676 13.2861 54.2308 12.7047C54.4709 10.6195 56.0631 8.78705 57.8954 7.85185C58.919 7.32107 60.0311 6.8282 61.1305 6.51226C62.2299 6.19631 63.4935 6.0573 64.6688 5.85509C65.844 5.65289 67.0824 5.56443 68.3082 5.65289C69.496 5.72872 70.7471 5.77927 71.9349 5.66553C73.1228 5.55179 74.298 5.33695 75.4732 5.12211C76.0545 5.00837 76.6358 4.89463 77.2297 4.83144C77.7858 4.76825 78.1649 4.46494 78.6324 4.18691C79.0495 3.93416 79.4917 3.89625 79.7571 4.33857C79.8708 4.5155 80.0225 4.69242 79.9972 4.9199C79.9719 5.21057 79.6813 5.42541 79.5044 5.61498C78.6956 6.47434 77.9248 7.35898 77.1666 8.25626C76.56 8.97661 75.7512 9.49476 75.132 10.2025C74.8414 10.5311 74.6771 10.8849 74.4749 11.264C74.2601 11.6684 73.9568 12.0223 73.6283 12.3509C72.9712 13.008 72.2508 13.6399 71.5053 14.1834C70.6965 14.7647 69.8499 15.1438 68.9021 15.4345C66.9813 16.0285 64.9341 16.3697 62.9123 16.4708C61.876 16.5213 60.8272 16.5087 59.791 16.4708C59.2602 16.4455 58.7168 16.4329 58.1987 16.357C57.7059 16.2812 57.2383 16.1548 56.7455 16.0664C56.5938 16.4202 57.3394 16.1801 56.7455 16.0664L56.657 16.0158ZM49.2771 50.2641C48.8601 50.0113 48.2915 49.9607 47.8239 49.7712C47.2805 49.5437 46.7624 49.2783 46.2443 49.0129C45.7262 48.7475 45.2587 48.4948 44.7532 48.2294C44.2477 47.964 43.7169 47.686 43.123 47.6986C42.5796 47.6986 42.15 47.9513 41.7204 48.2547C41.2402 48.6085 41.038 48.975 40.7726 49.5058C40.5325 49.9734 40.3429 50.4915 40.0775 50.9465C39.8374 51.3509 39.4331 51.591 39.0666 51.8564C38.1315 52.5136 37.0447 51.7174 36.2992 51.1487C35.4399 50.4915 34.6564 49.5943 33.6075 49.2151C33.0641 49.0129 32.6597 49.1898 32.2048 49.4931C31.7246 49.8091 31.2444 50.1377 30.8148 50.5168C30.0313 51.1992 29.172 51.7427 28.3 52.2987C28.0599 52.4504 27.8072 52.602 27.5545 52.7158C27.3017 52.8295 26.9605 52.9053 26.7331 53.0823C27.5166 53.929 28.3759 54.7125 29.1088 55.6098C29.8417 56.5071 30.4862 57.3917 31.4213 58.0742C31.8763 58.4027 32.3944 58.6302 32.8493 58.9588C33.0388 59.0978 33.241 59.2495 33.4432 59.3759C35.4525 60.6902 38.0304 60.6017 40.2924 60.172C40.7473 60.0836 41.2022 59.9825 41.6445 59.8687C42.0868 59.755 42.6681 59.6539 43.0851 59.4264C43.7169 59.0852 44.2982 58.6681 44.829 58.2005C45.8652 57.278 46.7119 56.1406 47.4069 54.9274C47.9629 53.9543 48.4305 52.918 48.8096 51.8564C48.9865 51.3383 49.214 50.7822 49.2771 50.2388C49.214 50.2009 49.2266 50.6811 49.2771 50.2388V50.2641Z" fill="white"/>
</g>
</svg>
