<svg width="81" height="80" viewBox="0 0 81 80" fill="none" xmlns="http://www.w3.org/2000/svg">
<g id="Frame 5">
<path id="Vector" d="M80.2459 31.7186C78.9699 24.8672 73.3424 26.9597 70.0884 31.0807C68.8123 32.701 67.6766 34.5893 66.0687 35.9035C65.3286 36.5159 62.7382 37.6642 62.3682 38.2255C68.1105 29.3966 69.2207 22.5834 63.6442 13.091C62.6999 11.4707 61.4239 9.92688 59.3311 10.1693C57.0469 10.4372 57.9019 15.8214 57.5063 17.8372C57.2511 19.1386 53.0783 32.5607 51.4832 30.7872C50.7431 29.9579 52.4657 23.03 52.1084 21.1928C51.6235 18.6921 49.8498 8.00032 39.2073 8.00032C31.8571 8.00032 28.8966 16.3828 28.3096 19.5469C27.9906 21.2183 29.1901 29.6135 28.399 30.4938C28.2714 30.6341 25.7319 26.3855 25.566 25.9007C24.877 23.821 25.5022 21.1672 26.0382 19.1131C27.6588 12.9252 22.3376 10.5393 18.0245 15.1324C14.1579 19.2407 13.1881 24.6121 14.5535 30.111C15.6892 34.6786 18.9943 42.959 23.1798 45.4597C19.3388 43.1631 16.5824 41.7597 14.2983 37.4983C10.789 30.9914 1.30784 28.7459 0.554959 38.0979C-0.593511 52.2983 16.5059 65.8863 28.5903 69.8925C42.104 74.3707 59.3183 71.9594 68.6337 60.2852C74.3505 53.1276 81.9942 41.109 80.2459 31.7059C80.1183 31.0041 80.3991 32.5607 80.2459 31.7059V31.7186ZM58.5654 14.7752C58.2847 14.4434 58.425 14.2648 58.5654 13.9459V14.7752Z" fill="white"/>
</g>
</svg>
