<svg width="81" height="81" viewBox="0 0 81 81" fill="none" xmlns="http://www.w3.org/2000/svg">
<g clip-path="url(#clip0_375_6093)">
<path d="M40.667 0.333191C24.1045 0.333191 10.667 13.7707 10.667 30.3332C10.7061 33.8879 11.3506 37.4035 12.6006 40.7238L12.5225 40.7043C15.7061 50.6457 31.4287 66.1144 40.6475 75.3527H40.667V75.3332C48.2061 67.7941 60.0615 55.7043 65.9014 46.5637C67.21 44.4933 68.2451 42.5207 68.8311 40.7043L68.7334 40.7238C69.9834 37.4035 70.6475 33.8879 70.667 30.3332C70.667 13.7707 57.249 0.333191 40.667 0.333191ZM40.667 18.7902C47.0342 18.7902 52.21 23.966 52.21 30.3332C52.21 36.7004 47.0342 41.8762 40.667 41.8762C34.2998 41.8566 29.1436 36.7004 29.1436 30.3332C29.124 23.966 34.2998 18.8098 40.667 18.7902Z" fill="#D9D6AE"/>
</g>
<defs>
<clipPath id="clip0_375_6093">
<rect width="80" height="80" fill="white" transform="translate(0.666016 0.33313)"/>
</clipPath>
</defs>
</svg>
