<svg width="256" height="120" viewBox="0 0 256 120" fill="none" xmlns="http://www.w3.org/2000/svg">
<path d="M18.9088 51.323C13.4303 51.323 8.92302 49.6135 5.35015 46.176C1.77728 42.7385 0 38.2348 0 32.6466C0 27.4076 1.72231 22.9958 5.16693 19.4113C8.61154 15.8267 12.9906 14.0437 18.3224 14.0437C23.6543 14.0437 27.8684 15.8451 31.1481 19.4481C34.4278 23.051 36.0585 27.7753 36.0585 33.6024V35.6613H9.74753C10.0407 38.0142 11.0851 39.9811 12.899 41.5436C14.7129 43.1061 17.0582 43.8965 19.9348 43.8965C21.4922 43.8965 23.1962 43.584 25.0284 42.9407C26.8607 42.2973 28.3082 41.4517 29.3892 40.3671L33.4934 46.3965C29.9205 49.687 25.0651 51.323 18.9088 51.323ZM27.0439 29.3377C26.8973 27.3341 26.1095 25.5142 24.662 23.8966C23.2145 22.2789 21.1074 21.4701 18.3224 21.4701C15.684 21.4701 13.6319 22.2606 12.1661 23.8598C10.7003 25.4591 9.83915 27.2789 9.60095 29.3377H27.0439Z" fill="#D9D6AE"/>
<path d="M75.0483 50.4415H65.6672V45.8826C62.7906 49.504 59.1444 51.3238 54.7471 51.3238C50.3497 51.3238 46.392 49.6694 43.4604 46.3606C40.5288 43.0518 39.063 38.5113 39.063 32.7209C39.063 26.9305 40.5288 22.5003 43.4604 19.118C46.392 15.7356 50.1481 14.0444 54.7471 14.0444C59.346 14.0444 62.8822 15.8643 65.6672 19.4856V1.39741H75.0483V50.4415ZM57.6054 43.015C59.1628 43.015 60.7018 42.629 62.2226 41.8753C63.7434 41.1216 64.8794 40.1474 65.6672 38.9709V26.3974C64.8794 25.2209 63.7434 24.2466 62.2226 23.493C60.7018 22.7393 59.1628 22.3533 57.6054 22.3533C54.9669 22.3533 52.8232 23.3091 51.1559 25.2209C49.4885 27.1327 48.664 29.6327 48.664 32.7209C48.664 35.8091 49.4885 38.2356 51.1559 40.1473C52.8232 42.0591 54.9669 43.015 57.6054 43.015Z" fill="#D9D6AE"/>
<path d="M117.998 50.4415H108.617V45.8826C105.74 49.504 102.094 51.3238 97.6965 51.3238C93.2991 51.3238 89.3415 49.6694 86.4099 46.3606C83.4783 43.0518 82.0125 38.5113 82.0125 32.7209C82.0125 26.9305 83.4783 22.5003 86.4099 19.118C89.3415 15.7356 93.0975 14.0444 97.6965 14.0444C102.295 14.0444 105.832 15.8643 108.617 19.4856V1.39741H117.998V50.4415ZM100.555 43.015C102.112 43.015 103.651 42.629 105.172 41.8753C106.693 41.1216 107.829 40.1474 108.617 38.9709V26.3974C107.829 25.2209 106.693 24.2466 105.172 23.493C103.651 22.7393 102.112 22.3533 100.555 22.3533C97.9164 22.3533 95.7726 23.3091 94.1053 25.2209C92.4379 27.1327 91.6134 29.6327 91.6134 32.7209C91.6134 35.8091 92.4379 38.2356 94.1053 40.1473C95.7726 42.0591 97.9164 43.015 100.555 43.015Z" fill="#D9D6AE"/>
<path d="M131.848 11.1029C130.327 11.1029 129.027 10.5515 127.927 9.44851C126.828 8.34558 126.278 7.04043 126.278 5.5147C126.278 3.98897 126.828 2.7022 127.927 1.61764C129.027 0.533082 130.327 0 131.848 0C133.369 0 134.725 0.533082 135.806 1.61764C136.887 2.7022 137.418 3.98897 137.418 5.5147C137.418 7.04043 136.887 8.34558 135.806 9.44851C134.725 10.5515 133.406 11.1029 131.848 11.1029ZM136.539 50.4411H127.231V14.9264H136.539V50.4411Z" fill="#D9D6AE"/>
<path d="M158.525 51.323C155.447 51.323 152.497 50.8267 149.694 49.8524C146.89 48.8782 144.545 47.5179 142.695 45.8083L146.726 39.2642C148.1 40.5326 149.95 41.6723 152.296 42.6465C154.641 43.6208 156.858 44.1171 158.965 44.1171C160.925 44.1171 162.391 43.7679 163.399 43.0877C164.407 42.4076 164.901 41.4701 164.901 40.2936C164.901 39.4113 164.37 38.6944 163.326 38.1245C162.281 37.5546 160.98 37.1502 159.441 36.9113C157.902 36.6723 156.217 36.3047 154.384 35.8083C152.552 35.312 150.866 34.7238 149.327 34.0436C147.788 33.3635 146.487 32.2605 145.443 30.7716C144.399 29.2826 143.867 27.426 143.867 25.2201C143.867 22.0767 145.168 19.4297 147.752 17.2789C150.335 15.1282 153.89 14.0437 158.379 14.0437C163.857 14.0437 168.621 15.6613 172.67 18.8966L168.932 25.2936C167.815 24.1172 166.312 23.1429 164.425 22.3525C162.538 21.562 160.559 21.176 158.452 21.176C156.785 21.176 155.447 21.5069 154.421 22.1686C153.395 22.8304 152.882 23.676 152.882 24.7054C152.882 25.4958 153.395 26.1392 154.421 26.6539C155.447 27.1686 156.748 27.5547 158.305 27.7936C159.863 28.0326 161.548 28.4186 163.362 28.9333C165.176 29.448 166.862 30.0547 168.419 30.7716C169.977 31.4885 171.278 32.6282 172.304 34.1907C173.33 35.7532 173.843 37.6649 173.843 39.926C173.843 43.2532 172.487 45.9921 169.775 48.1245C167.063 50.2568 163.307 51.323 158.525 51.323Z" fill="#D9D6AE"/>
<path d="M210.781 45.9186C207.355 49.5215 202.811 51.323 197.149 51.323C191.487 51.323 186.943 49.5215 183.554 45.9186C180.164 42.3157 178.46 37.8855 178.46 32.6466C178.46 27.4076 180.164 22.9958 183.554 19.4113C186.943 15.8267 191.487 14.0437 197.149 14.0437C202.811 14.0437 207.355 15.8267 210.781 19.4113C214.207 22.9958 215.911 27.4076 215.911 32.6466C215.911 37.8855 214.207 42.3157 210.781 45.9186ZM190.553 40.0363C192.165 42.0216 194.364 43.0142 197.149 43.0142C199.934 43.0142 202.151 42.0216 203.782 40.0363C205.412 38.051 206.237 35.5877 206.237 32.6466C206.237 29.7054 205.412 27.3157 203.782 25.3304C202.151 23.3451 199.934 22.3525 197.149 22.3525C194.364 22.3525 192.165 23.3451 190.553 25.3304C188.941 27.3157 188.134 29.7605 188.134 32.6466C188.134 35.5326 188.941 38.051 190.553 40.0363Z" fill="#D9D6AE"/>
<path d="M256 50.4407H246.692V28.9701C246.692 24.5583 244.512 22.3525 240.169 22.3525C236.798 22.3525 234.105 23.7495 232.108 26.5436V50.4407H222.8V14.926H232.108V19.5584C235.186 15.8819 239.308 14.0437 244.494 14.0437C248.305 14.0437 251.181 15.0547 253.105 17.0584C255.029 19.062 256 21.8378 256 25.3672V50.4407Z" fill="#D9D6AE"/>
<path d="M32.8338 105.588H23.526V101.912C20.9792 104.945 17.2414 106.47 12.3127 106.47C9.14289 106.47 6.28459 105.423 3.77442 103.345C1.26425 101.268 0 98.3822 0 94.7058C0 91.0293 1.2276 88.0146 3.70113 86.1028C6.17466 84.1911 9.03296 83.2352 12.3127 83.2352C17.3513 83.2352 21.0891 84.6874 23.526 87.5734V82.794C23.526 80.9742 22.8114 79.5404 21.4006 78.4558C19.9898 77.3712 18.1026 76.8381 15.7573 76.8381C11.8913 76.8381 8.44664 78.2352 5.42344 81.0293L1.90553 74.7793C6.10137 71.0477 11.2683 69.1911 17.3697 69.1911C21.9136 69.1911 25.6331 70.2389 28.5097 72.3529C31.3863 74.4668 32.8338 77.8859 32.8338 82.647V105.588ZM16.0504 100.147C19.5134 100.147 22.0052 99.1175 23.526 97.0587V92.647C22.0052 90.5881 19.5134 89.5587 16.0504 89.5587C14.1449 89.5587 12.5509 90.0367 11.2866 90.9925C10.0224 91.9484 9.38108 93.2536 9.38108 94.9264C9.38108 96.5991 10.0224 97.8124 11.2866 98.7499C12.5509 99.6874 14.1449 100.147 16.0504 100.147Z" fill="#D9D6AE"/>
<path d="M56.5807 120C50.4793 120 45.3857 118.235 41.3364 114.706L45.5139 107.941C48.1524 110.882 51.8352 112.353 56.5807 112.353C59.2191 112.353 61.5094 111.654 63.4333 110.257C65.3571 108.86 66.3282 106.563 66.3282 103.382V99.7794C63.3966 103.511 59.7505 105.368 55.4081 105.368C50.8091 105.368 47.0713 103.787 44.1581 100.625C41.2448 97.4633 39.7973 93.0147 39.7973 87.2795C39.7973 81.5442 41.2448 77.1508 44.1581 73.9707C47.0713 70.7905 50.8091 69.1913 55.4081 69.1913C60.007 69.1913 63.4516 71.0111 66.3282 74.6324V70.0736H75.7093V103.162C75.7093 106.397 75.1413 109.173 73.987 111.471C72.8327 113.768 71.2936 115.515 69.3331 116.691C67.3726 117.868 65.3571 118.713 63.2867 119.228C61.2163 119.743 58.9809 120 56.5807 120ZM58.3396 97.0589C59.8604 97.0589 61.3628 96.6728 62.8836 95.8824C64.4044 95.0919 65.5404 94.1361 66.3282 93.0148V81.5442C65.5404 80.3677 64.4044 79.3934 62.9202 78.6398C61.4361 77.8861 59.897 77.5001 58.3396 77.5001C55.6462 77.5001 53.4842 78.3824 51.8535 80.1471C50.2228 81.9118 49.3983 84.2831 49.3983 87.2795C49.3983 90.2758 50.2228 92.6471 51.8535 94.4118C53.4842 96.1765 55.6462 97.0589 58.3396 97.0589Z" fill="#D9D6AE"/>
<path d="M101.58 106.47C96.1012 106.47 91.5938 104.761 88.021 101.323C84.4481 97.8859 82.6708 93.3822 82.6708 87.794C82.6708 82.555 84.3931 78.1433 87.8377 74.5587C91.2823 70.9742 95.6614 69.1911 100.993 69.1911C106.325 69.1911 110.539 70.9926 113.819 74.5955C117.099 78.1984 118.729 82.9227 118.729 88.7499V90.8087H92.4183C92.7115 93.1617 93.7559 95.1286 95.5698 96.6911C97.3837 98.2536 99.729 99.044 102.606 99.044C104.163 99.044 105.867 98.7315 107.699 98.0881C109.531 97.4447 110.979 96.5991 112.06 95.5146L116.164 101.544C112.591 104.834 107.736 106.47 101.58 106.47ZM109.715 84.4852C109.568 82.4815 108.78 80.6617 107.333 79.044C105.885 77.4264 103.778 76.6176 100.993 76.6176C98.3548 76.6176 96.3027 77.408 94.8369 79.0073C93.3711 80.6065 92.5099 82.4264 92.2718 84.4852H109.715Z" fill="#D9D6AE"/>
<path d="M158.673 105.588H149.365V84.1177C149.365 79.7059 147.184 77.5001 142.842 77.5001C139.471 77.5001 136.777 78.8971 134.78 81.6912V105.588H125.472V70.0736H134.78V74.706C137.858 71.0295 141.981 69.1913 147.166 69.1913C150.977 69.1913 153.854 70.2023 155.778 72.206C157.701 74.2096 158.673 76.9854 158.673 80.5148V105.588Z" fill="#D9D6AE"/>
<path d="M184.397 106.47C178.919 106.47 174.43 104.724 170.912 101.25C167.394 97.7756 165.635 93.2903 165.635 87.794C165.635 82.2977 167.394 77.8859 170.912 74.4117C174.43 70.9374 178.919 69.1911 184.397 69.1911C190.645 69.1911 195.317 71.3234 198.395 75.5881L192.312 81.3234C190.608 78.7683 188.116 77.4999 184.837 77.4999C181.997 77.4999 179.688 78.4374 177.911 80.3308C176.134 82.2242 175.236 84.7058 175.236 87.794C175.236 90.8822 176.134 93.3822 177.911 95.294C179.688 97.2058 181.997 98.1616 184.837 98.1616C188.006 98.1616 190.498 96.8933 192.312 94.3381L198.395 99.9999C195.317 104.32 190.645 106.47 184.397 106.47Z" fill="#D9D6AE"/>
<path d="M203.232 119.485L204.625 111.103C205.504 111.489 206.475 111.691 207.556 111.691C210.048 111.691 211.679 110.827 212.467 109.118L213.786 106.103L199.421 70.0735H209.388L218.623 94.7793L227.857 70.0735H237.898L221.261 111.397C220.034 114.54 218.33 116.728 216.131 117.978C213.932 119.228 211.166 119.908 207.849 120C206.145 120 204.606 119.834 203.232 119.485Z" fill="#D9D6AE"/>
</svg>
