<svg width="386" height="184" viewBox="0 0 386 184" fill="none" xmlns="http://www.w3.org/2000/svg">
<path d="M340.782 0H345.038C368.977 0 386 11.6657 386 42.4208V141.579C386 172.334 368.977 184 345.038 184H340.782C316.843 184 299.82 172.334 299.82 141.579V42.4208C299.82 11.6657 316.843 0 340.782 0ZM342.378 27.8386C335.196 27.8386 331.738 32.0807 331.738 41.8905V142.11C331.738 151.919 335.196 156.161 342.378 156.161H343.442C350.623 156.161 354.081 151.919 354.081 142.11V41.8905C354.081 32.0807 350.623 27.8386 343.442 27.8386H342.378Z" fill="url(#paint0_linear_373_3823)"/>
<path d="M238.698 0H242.954C266.893 0 283.916 11.6657 283.916 42.4208V141.579C283.916 172.334 266.893 184 242.954 184H238.698C214.759 184 197.736 172.334 197.736 141.579V42.4208C197.736 11.6657 214.759 0 238.698 0ZM240.294 27.8386C233.112 27.8386 229.655 32.0807 229.655 41.8905V142.11C229.655 151.919 233.112 156.161 240.294 156.161H241.358C248.54 156.161 251.998 151.919 251.998 142.11V41.8905C251.998 32.0807 248.54 27.8386 241.358 27.8386H240.294Z" fill="url(#paint1_linear_373_3823)"/>
<path d="M136.614 0H140.87C164.809 0 181.833 11.6657 181.833 42.4208V141.579C181.833 172.334 164.809 184 140.87 184H136.614C112.675 184 95.6522 172.334 95.6522 141.579V42.4208C95.6522 11.6657 112.675 0 136.614 0ZM138.21 27.8386C131.029 27.8386 127.571 32.0807 127.571 41.8905V142.11C127.571 151.919 131.029 156.161 138.21 156.161H139.274C146.456 156.161 149.914 151.919 149.914 142.11V41.8905C149.914 32.0807 146.456 27.8386 139.274 27.8386H138.21Z" fill="url(#paint2_linear_373_3823)"/>
<path d="M0 121.695H30.8547V142.64C30.8547 150.594 34.0466 156.161 41.2283 156.161H42.0263C49.208 156.161 52.3998 150.594 52.3998 142.64V119.043C52.3998 108.438 48.676 104.991 39.3664 104.991H28.7268V77.683H39.3664C48.676 77.683 51.8679 74.2363 51.8679 63.6311V41.3602C51.8679 33.1412 48.942 27.8386 41.7603 27.8386H40.9623C33.7806 27.8386 30.8547 33.1412 30.8547 41.3602V62.3055H0V41.3602C0 14.0519 13.8314 0 39.6324 0H43.0902C68.8912 0 83.2546 14.0519 83.2546 41.3602V62.3055C83.2546 75.2968 79.5307 86.4323 66.7633 90.6744C79.5307 93.8559 83.7866 103.135 83.7866 120.369V142.64C83.7866 169.948 69.6891 184 43.3562 184H39.8984C13.5654 184 0 169.948 0 142.64V121.695Z" fill="url(#paint3_linear_373_3823)"/>
<defs>
<linearGradient id="paint0_linear_373_3823" x1="193" y1="0" x2="193" y2="184" gradientUnits="userSpaceOnUse">
<stop stop-color="#D9D6AE"/>
<stop offset="1" stop-color="#D9D6AE" stop-opacity="0"/>
</linearGradient>
<linearGradient id="paint1_linear_373_3823" x1="193" y1="0" x2="193" y2="184" gradientUnits="userSpaceOnUse">
<stop stop-color="#D9D6AE"/>
<stop offset="1" stop-color="#D9D6AE" stop-opacity="0"/>
</linearGradient>
<linearGradient id="paint2_linear_373_3823" x1="193" y1="0" x2="193" y2="184" gradientUnits="userSpaceOnUse">
<stop stop-color="#D9D6AE"/>
<stop offset="1" stop-color="#D9D6AE" stop-opacity="0"/>
</linearGradient>
<linearGradient id="paint3_linear_373_3823" x1="193" y1="0" x2="193" y2="184" gradientUnits="userSpaceOnUse">
<stop stop-color="#D9D6AE"/>
<stop offset="1" stop-color="#D9D6AE" stop-opacity="0"/>
</linearGradient>
</defs>
</svg>
