<svg width="52" height="52" viewBox="0 0 52 52" fill="none" xmlns="http://www.w3.org/2000/svg">
<g id="Frame 140">
<g id="Vector">
<path d="M26.0163 4.56672C26.4654 3.91211 26.8136 3.40879 27.159 2.90546C30.2677 -1.639 37.8552 -0.536343 39.8182 4.02267C40.5637 5.75375 40.5119 7.47029 40.0053 9.22175C38.9979 12.6956 36.842 15.442 34.4644 18.0314C32.0984 20.6091 29.5596 23.0064 26.9374 25.3136C26.2639 25.9071 26.3963 26.1806 26.9806 26.7072C30.9038 30.2624 34.8846 33.7683 37.8638 38.2313C38.9173 39.8082 39.7347 41.4956 40.1723 43.3663C41.4704 48.9204 36.8247 52.3651 32.3517 51.9665C29.9482 51.7512 28.106 50.6049 26.782 48.5625C26.0422 47.4191 25.9674 47.4075 25.2075 48.5974C22.6946 52.528 18.0086 52.6444 15.0899 51.0035C12.4216 49.5022 11.1696 46.811 11.7567 43.7795C12.3727 40.6053 14.0883 38.0218 16.0887 35.6012C18.7657 32.363 21.8599 29.5438 24.9628 26.7421C25.6076 26.1602 25.7026 25.9013 25.0147 25.2758C21.8311 22.3925 18.6563 19.4861 15.9218 16.1461C14.0105 13.8128 12.3468 11.3311 11.7769 8.26165C10.9652 3.89175 14.0105 0.220098 18.4087 0.0280781C21.5836 -0.111573 23.8575 1.14237 25.481 3.81028C25.6162 4.03431 25.7861 4.23796 26.0192 4.56672H26.0163ZM33.906 11.5522C33.9607 10.8481 33.7822 10.1178 33.3188 9.46032C31.9199 7.47902 28.7134 7.27246 27.0756 9.06173C26.379 9.82205 25.6604 9.8172 24.9196 9.04718C24.7872 8.91044 24.6548 8.76788 24.4994 8.65442C23.0516 7.5954 21.5174 7.56921 19.9688 8.36639C18.5584 9.09373 17.9971 10.3069 18.1094 11.9013C18.2072 13.2687 18.8002 14.4179 19.5313 15.506C21.1749 17.9557 23.3912 19.8585 25.527 21.8398C25.8839 22.1714 26.1516 22.1511 26.4999 21.8281C28.4428 20.033 30.4404 18.2903 32.0207 16.1432C33.0022 14.8078 33.9089 13.4171 33.9031 11.5551L33.906 11.5522ZM33.9118 40.3318C33.9664 38.8481 33.2209 37.5126 32.3286 36.2383C30.7311 33.9515 28.627 32.1535 26.6352 30.245C26.1746 29.8028 25.8062 29.8289 25.3658 30.2566C24.5944 31.0014 23.7683 31.691 23.0141 32.4532C21.1461 34.3298 19.2406 36.1947 18.3512 38.7986C17.6603 40.8177 18.2418 42.5692 19.8393 43.5525C21.3878 44.5068 23.682 44.2246 24.9024 42.927C25.6297 42.1551 26.3704 42.1589 27.1245 42.9386C28.2701 44.1257 30.0691 44.469 31.681 43.8056C33.0857 43.2267 33.9031 42.0135 33.9146 40.3347L33.9118 40.3318Z" fill="#D9D6AE"/>
<path d="M11.9842 34.2281C10.0787 34.2135 8.7518 33.2505 8.15309 31.6969C7.4853 29.9658 7.80769 27.9903 9.13751 26.9284C10.0269 26.2185 10.2515 25.8898 9.20659 25.0635C7.63787 23.8212 7.39607 21.5024 8.40639 19.6986C9.34475 18.0228 11.02 17.3565 13.0262 17.9297C15.3865 18.6047 17.1395 20.2368 18.8492 21.8864C19.9488 22.9484 20.9303 24.1354 21.978 25.2555C22.4069 25.7152 22.5105 26.1225 22.0356 26.6462C20.0984 28.7701 18.2246 30.9579 15.8586 32.6308C14.5863 33.5298 13.2306 34.1844 11.9842 34.231V34.2281Z" fill="#D9D6AE"/>
<path d="M40.0283 34.225C38.9921 34.19 37.7659 33.6896 36.629 32.9448C34.0039 31.2254 31.9775 28.86 29.905 26.5442C29.5683 26.1689 29.5135 25.8256 29.8734 25.4357C31.9947 23.1198 34.0068 20.6818 36.698 18.9827C37.4119 18.5317 38.1603 18.1506 38.9777 17.9266C40.9984 17.3767 42.6506 18.0138 43.5918 19.7042C44.5992 21.5109 44.369 23.885 42.7945 25.0691C41.6633 25.9187 42.0202 26.23 42.8693 26.9195C44.1963 27.996 44.5273 29.954 43.8624 31.6938C43.2752 33.2387 41.9252 34.2133 40.0283 34.225Z" fill="#D9D6AE"/>
</g>
</g>
</svg>
