<svg width="52" height="52" viewBox="0 0 52 52" fill="none" xmlns="http://www.w3.org/2000/svg">
<g id="Frame 141">
<path id="Vector" d="M51.9913 46.9347C50.0648 49.0372 47.4144 49.6088 44.8195 50.2066C40.015 51.3147 35.1229 51.7025 30.1958 51.9037C22.5015 52.2128 14.8773 51.8104 7.33781 50.2153C5.29165 49.7837 3.25714 49.2413 1.47369 48.0807C-0.479059 46.8093 -0.505323 45.3833 1.47953 44.144C3.64537 42.7909 6.11768 42.2369 8.59292 41.7382C9.8714 41.4796 10.1575 40.8206 9.45109 39.7611C8.0471 37.6732 6.61389 35.6056 5.23325 33.5031C4.84795 32.9199 4.45684 32.6575 3.71835 32.7654C2.65879 32.9199 1.79771 32.5204 1.38907 31.4619C1.01545 30.4937 1.20807 29.616 2.01953 28.9511C2.82514 28.295 3.73584 28.2104 4.60275 28.7936C5.48135 29.3856 5.92212 30.2254 5.53683 31.2956C5.35293 31.8118 5.43465 32.1792 5.84621 32.5233C8.17842 34.5004 10.5019 36.4863 12.8312 38.4634C13.0005 38.6063 13.2019 38.8396 13.4354 38.7113C13.736 38.5451 13.5843 38.2272 13.5405 37.9764C12.8808 34.2059 12.2007 30.4383 11.5585 26.6619C11.4447 25.9971 11.1265 25.6938 10.5019 25.4663C9.05411 24.9356 8.47907 23.603 9.09788 22.4278C9.70501 21.2701 11.0857 20.8443 12.1686 21.4859C13.377 22.2003 13.666 23.5592 12.802 24.7811C12.5072 25.1981 12.3233 25.5101 12.6035 26.0175C13.8995 28.3504 15.1634 30.7007 16.4448 33.0453C16.5148 33.1707 16.6258 33.2728 16.7017 33.3661C17.0023 33.3077 17.0402 33.1124 17.0578 32.9228C17.5394 28.0763 18.0152 23.2326 18.4939 18.386C18.5727 17.5783 18.4647 16.9572 17.6591 16.4264C16.474 15.6449 16.4156 14.1985 17.3496 13.1983C18.1757 12.3147 19.7285 12.3235 20.5896 13.2187C21.4886 14.1519 21.3894 15.6828 20.2511 16.4614C19.5739 16.9251 19.5096 17.3742 19.6381 18.1061C20.4845 22.9439 21.2814 27.7905 22.0987 32.6341C22.1688 33.0395 22.2739 33.4419 22.5862 33.8501C22.7555 32.465 22.9423 31.0798 23.0941 29.6918C23.8822 22.5065 24.6586 15.3212 25.4496 8.13885C25.5547 7.18237 25.4379 6.49125 24.3959 5.9926C23.0328 5.34231 22.484 3.81135 22.8547 2.45828C23.2809 0.903999 24.4747 -0.00290909 26.0918 7.01094e-06C27.6563 0.00292311 28.8326 0.88067 29.2734 2.37663C29.6879 3.77928 29.1245 5.30148 27.7293 6.01593C26.8507 6.46501 26.5792 7.01615 26.6814 7.93764C27.633 16.5022 28.567 25.0698 29.5128 33.6373C29.5186 33.7014 29.5886 33.7568 29.79 34.063C30.1024 32.2171 30.3767 30.5754 30.6569 28.9365C31.2641 25.3526 31.8566 21.7658 32.4988 18.1877C32.636 17.4325 32.598 16.9397 31.8741 16.4352C30.7241 15.6362 30.6832 14.1548 31.6231 13.1954C32.4959 12.303 34.0341 12.3293 34.8456 13.2479C35.7475 14.2743 35.6395 15.6711 34.4457 16.4731C33.7481 16.9426 33.5759 17.4675 33.6517 18.2169C34.0837 22.4832 34.4837 26.7553 34.9478 31.0186C35.0324 31.7972 34.8718 32.637 35.4031 33.6023C36.3371 31.9051 37.1895 30.3654 38.033 28.8199C38.3103 28.3095 38.5438 27.773 38.8416 27.2772C39.437 26.2887 40.0529 25.4488 39.0809 24.1949C38.3512 23.253 39.0897 21.8562 40.2543 21.3576C41.308 20.9056 42.572 21.41 43.0915 22.489C43.5907 23.5301 43.1849 24.956 42.0378 25.2943C40.8556 25.6442 40.6221 26.3966 40.4528 27.4026C39.869 30.9107 39.2415 34.413 38.6314 37.9181C38.5847 38.1806 38.4855 38.4459 38.7161 38.7929C39.4283 38.583 39.8807 37.9793 40.4207 37.5273C42.3209 35.941 44.1978 34.3255 46.098 32.7333C46.6234 32.2929 46.819 31.873 46.5942 31.1352C46.2118 29.8872 47.1546 28.6332 48.4623 28.4466C49.6707 28.2746 50.8996 29.2719 50.9697 30.482C51.0426 31.7651 50.0706 32.8937 48.7571 32.7566C47.6683 32.64 47.1663 33.1095 46.6438 33.9172C45.234 36.0926 43.7629 38.2301 42.2917 40.3647C41.7897 41.0937 41.8889 41.4262 42.8026 41.5836C44.7903 41.9248 46.7402 42.4206 48.6345 43.1263C49.9218 43.6045 51.1127 44.2256 52 45.3133V46.9376L51.9913 46.9347ZM38.0476 46.7072C39.6647 46.7889 42.3151 45.8237 43.1382 44.9576C43.83 44.2286 43.6724 43.5841 42.9601 42.9834C41.8626 42.0648 41.2146 42.0036 40.6571 42.8172C39.8077 44.0507 38.9875 45.3046 38.0506 46.7072H38.0476ZM10.6478 42.2048C9.89768 42.5401 8.96071 42.7938 8.63963 43.7212C8.33606 44.596 9.02492 45.0771 9.65832 45.4592C10.7938 46.1444 12.0752 46.4623 13.3449 46.7947C13.5317 46.8443 13.7477 46.8939 13.8674 46.7014C13.9871 46.5089 13.8382 46.3282 13.7331 46.1736C12.9421 44.9838 12.1482 43.7999 11.3513 42.616C11.1995 42.3885 11.0273 42.1756 10.642 42.2077L10.6478 42.2048Z" fill="#D9D6AE"/>
</g>
</svg>
