<svg width="176" height="184" viewBox="0 0 176 184" fill="none" xmlns="http://www.w3.org/2000/svg">
<g id="Vector">
<path d="M171.451 1.85592V31.2853H125.42L124.618 68.9337C129.435 64.4265 136.66 61.7752 144.956 61.7752H145.759C167.971 61.7752 176 74.5014 176 101.81V142.64C176 169.948 162.619 184 136.125 184H133.449C106.955 184 93.0387 169.948 93.0387 142.64V128.323H124.082V142.64C124.082 150.594 126.758 156.161 133.984 156.161H134.787C142.013 156.161 144.689 150.594 144.689 142.64V101.81C144.689 93.8559 142.013 88.8184 134.787 88.8184H133.984C126.758 88.8184 124.082 93.8559 124.082 101.81V103.401H94.3768L97.053 1.85592H171.451Z" fill="url(#paint0_linear_373_3818)"/>
<path d="M82.1584 152.715V182.144H0V163.32C0 140.519 4.28187 128.323 15.5218 115.066L37.4664 89.0836C48.7063 75.562 50.312 69.7291 50.312 57.5331V38.9741C50.312 31.5504 47.3682 27.8386 41.213 27.8386H40.4102C34.255 27.8386 31.5788 31.5504 31.5788 38.9741V62.3055H0.535234V41.3602C0.535234 14.0519 14.1837 0 39.3397 0H42.8187C68.2423 0 81.6232 14.0519 81.6232 41.3602V56.2075C81.6232 75.562 77.6089 86.4323 63.1576 103.666L40.9454 129.914C33.7197 138.398 31.5788 143.435 31.5788 152.715H82.1584Z" fill="url(#paint1_linear_373_3818)"/>
</g>
<defs>
<linearGradient id="paint0_linear_373_3818" x1="88" y1="0" x2="88" y2="184" gradientUnits="userSpaceOnUse">
<stop stop-color="#D9D6AE"/>
<stop offset="1" stop-color="#D9D6AE" stop-opacity="0"/>
</linearGradient>
<linearGradient id="paint1_linear_373_3818" x1="88" y1="0" x2="88" y2="184" gradientUnits="userSpaceOnUse">
<stop stop-color="#D9D6AE"/>
<stop offset="1" stop-color="#D9D6AE" stop-opacity="0"/>
</linearGradient>
</defs>
</svg>
