<svg width="52" height="52" viewBox="0 0 52 52" fill="none" xmlns="http://www.w3.org/2000/svg">
<path d="M14.1313 11.5253C13.2228 12.5283 12.2758 13.3607 11.5304 14.375C9.06086 17.7433 7.12828 21.3321 6.58453 25.5759C6.00906 30.0563 9.4664 34.2183 13.9931 34.3593C19.1225 34.5185 22.8223 30.9706 22.9061 25.8056C23.0239 18.4619 28.4274 12.4328 35.7137 11.514C41.7289 10.7566 47.4383 13.7814 50.3881 19.2898C53.1114 24.3751 52.3253 30.9728 48.4737 35.4578C45.9181 38.4325 42.6737 40.0723 38.804 40.5044C38.5729 40.5294 38.3282 40.5999 38.0541 40.3543C38.7768 39.531 39.5403 38.7418 40.2155 37.8799C42.7213 34.6845 44.6289 31.1912 45.3131 27.1293C46.1378 22.235 43.4667 18.4801 38.5888 17.6318C34.3883 16.8995 30.0859 20.0289 29.2249 24.3865C28.9757 25.6419 29.1094 26.9087 28.9123 28.1664C27.8588 34.8369 22.743 39.7084 15.8895 40.5067C9.65219 41.2322 3.41945 37.3682 1.01789 31.2821C-2.45985 22.4715 3.35148 12.6511 12.7108 11.5299C13.1186 11.4799 13.5241 11.2888 14.1291 11.5253H14.1313Z" fill="#D9D6AE"/>
<path d="M18.7601 26.04C18.7329 28.3757 16.7754 30.2657 14.435 30.2133C12.1988 30.1633 10.2436 28.121 10.3025 25.899C10.3614 23.627 12.3665 21.6643 14.5755 21.712C16.9385 21.7621 18.785 23.6747 18.7578 26.04H18.7601Z" fill="#D9D6AE"/>
<path d="M41.6746 25.9557C41.6746 28.3005 39.7647 30.22 37.4288 30.2132C35.1926 30.2086 33.2374 28.2437 33.2147 25.9807C33.1921 23.7519 35.1768 21.7323 37.4061 21.7096C39.7397 21.6869 41.6701 23.6086 41.6723 25.9557H41.6746Z" fill="#D9D6AE"/>
<path d="M29.1842 34.1046C29.1842 32.1623 30.752 30.5612 32.6619 30.559C34.633 30.5544 36.2507 32.1783 36.2258 34.1296C36.2008 36.015 34.5628 37.6366 32.6778 37.6434C30.7883 37.6502 29.1865 36.0264 29.1842 34.1046Z" fill="#D9D6AE"/>
<path d="M15.8238 17.823C15.8283 15.8853 17.3803 14.3274 19.331 14.3024C21.1888 14.2797 22.854 15.9535 22.8427 17.8367C22.8336 19.8403 21.2681 21.3868 19.2653 21.3664C17.3055 21.3459 15.8192 19.8153 15.8238 17.823Z" fill="#D9D6AE"/>
<path d="M25.1921 15.1848C23.6855 15.2098 22.3601 13.9021 22.3533 12.3829C22.3442 10.8636 23.6492 9.55137 25.1627 9.55592C26.6421 9.5582 27.9177 10.8159 27.9607 12.3078C28.0038 13.8043 26.6988 15.1598 25.1921 15.1848Z" fill="#D9D6AE"/>
<path d="M24.1206 39.606C24.1092 37.9958 25.31 36.7609 26.8756 36.77C28.3686 36.7791 29.6056 38.0368 29.6192 39.5606C29.6351 41.1617 28.4456 42.3625 26.837 42.3693C25.3032 42.3784 24.1296 41.1844 24.1183 39.6038L24.1206 39.606Z" fill="#D9D6AE"/>
<path d="M22.7498 43.0607C22.734 44.2093 21.8118 45.1053 20.6677 45.0849C19.4783 45.0644 18.5448 44.1069 18.5788 42.9425C18.6105 41.8485 19.587 40.9002 20.6926 40.8911C21.8345 40.882 22.7657 41.8645 22.7498 43.0607Z" fill="#D9D6AE"/>
<path d="M33.396 8.9691C33.4005 10.0994 32.492 11.016 31.3411 11.0364C30.1947 11.0569 29.2091 10.0721 29.2227 8.91907C29.2363 7.81831 30.2128 6.84036 31.3003 6.83809C32.4716 6.83581 33.3892 7.76828 33.3937 8.9691H33.396Z" fill="#D9D6AE"/>
<path d="M14.6615 43.3928C15.4681 43.4519 16.0594 44.1183 16.0096 44.9097C15.962 45.6739 15.2438 46.3198 14.4916 46.2789C13.6533 46.2334 13.0643 45.5488 13.1277 44.6914C13.1866 43.8749 13.8301 43.3314 14.6615 43.3928Z" fill="#D9D6AE"/>
<path d="M38.9037 7.1542C38.8856 7.94793 38.2467 8.58928 37.4673 8.59611C36.6494 8.60293 36.0105 7.92291 36.0377 7.0746C36.0626 6.23766 36.6449 5.69865 37.499 5.7214C38.3395 5.74414 38.9195 6.33773 38.9037 7.1542Z" fill="#D9D6AE"/>
</svg>
