<svg width="286" height="184" viewBox="0 0 286 184" fill="none" xmlns="http://www.w3.org/2000/svg">
<path d="M252.597 182.144L232.822 97.0375H232.288V182.144H200.221V1.85592H232.288V82.4553H232.822L252.062 1.85592H285.198L260.881 88.0231L286 182.144H252.597Z" fill="url(#paint0_linear_373_3828)"/>
<path d="M137.479 0H141.755C165.805 0 182.907 11.6657 182.907 42.4208V141.579C182.907 172.334 165.805 184 141.755 184H137.479C113.429 184 96.3264 172.334 96.3264 141.579V42.4208C96.3264 11.6657 113.429 0 137.479 0ZM139.082 27.8386C131.867 27.8386 128.393 32.0807 128.393 41.8905V142.11C128.393 151.919 131.867 156.161 139.082 156.161H140.151C147.366 156.161 150.84 151.919 150.84 142.11V41.8905C150.84 32.0807 147.366 27.8386 140.151 27.8386H139.082Z" fill="url(#paint1_linear_373_3828)"/>
<path d="M78.297 1.85592V31.2853H32.3343L31.5326 68.9337C36.3427 64.4265 43.5577 61.7752 51.8417 61.7752H52.6434C74.8231 61.7752 82.8399 74.5014 82.8399 101.81V142.64C82.8399 169.948 69.4786 184 43.0233 184H40.351C13.8957 184 0 169.948 0 142.64V128.323H30.9981V142.64C30.9981 150.594 33.6704 156.161 40.8855 156.161H41.6872C48.9022 156.161 51.5745 150.594 51.5745 142.64V101.81C51.5745 93.8559 48.9022 88.8184 41.6872 88.8184H40.8855C33.6704 88.8184 30.9981 93.8559 30.9981 101.81V103.401H1.33613L4.00838 1.85592H78.297Z" fill="url(#paint2_linear_373_3828)"/>
<defs>
<linearGradient id="paint0_linear_373_3828" x1="143" y1="0" x2="143" y2="184" gradientUnits="userSpaceOnUse">
<stop stop-color="#D9D6AE"/>
<stop offset="1" stop-color="#D9D6AE" stop-opacity="0"/>
</linearGradient>
<linearGradient id="paint1_linear_373_3828" x1="143" y1="0" x2="143" y2="184" gradientUnits="userSpaceOnUse">
<stop stop-color="#D9D6AE"/>
<stop offset="1" stop-color="#D9D6AE" stop-opacity="0"/>
</linearGradient>
<linearGradient id="paint2_linear_373_3828" x1="143" y1="0" x2="143" y2="184" gradientUnits="userSpaceOnUse">
<stop stop-color="#D9D6AE"/>
<stop offset="1" stop-color="#D9D6AE" stop-opacity="0"/>
</linearGradient>
</defs>
</svg>
